/* XPM */
static char *result[] = {
/* columns rows colors chars-per-pixel */
"64 64 207 2 ",
"   c #3E211F",
".  c #3D1E22",
"X  c #3D2727",
"o  c #3F2129",
"O  c #3F2731",
"+  c #42221E",
"@  c #451F22",
"#  c #442524",
"$  c #4A2524",
"%  c #462926",
"&  c #4A2B26",
"*  c #43252A",
"=  c #4C262A",
"-  c #452A2B",
";  c #4C2C2B",
":  c #512925",
">  c #532D2C",
",  c #5B2A2C",
"<  c #46312C",
"1  c #4D312D",
"2  c #53332E",
"3  c #5A342D",
"4  c #432934",
"5  c #4B2C32",
"6  c #482A37",
"7  c #522D32",
"8  c #592E37",
"9  c #4E3333",
"0  c #4B3435",
"q  c #533533",
"w  c #5A3533",
"e  c #553934",
"r  c #5A3A35",
"t  c #533439",
"y  c #5D353B",
"u  c #563B39",
"i  c #5C3C3A",
"p  c #623535",
"a  c #623C35",
"s  c #623538",
"d  c #623D3B",
"f  c #6B3D3B",
"g  c #59403B",
"h  c #5E413D",
"j  c #644136",
"k  c #63423D",
"l  c #684539",
"z  c #6B443D",
"x  c #6B4A3C",
"c  c #72413D",
"v  c #714A3A",
"b  c #4A2E41",
"n  c #4F3144",
"m  c #533544",
"M  c #5F3741",
"N  c #553847",
"B  c #5D3E41",
"V  c #51364A",
"C  c #56384D",
"Z  c #59394D",
"A  c #563753",
"S  c #563A51",
"D  c #593A53",
"F  c #663643",
"G  c #643A42",
"H  c #6B3B42",
"J  c #5E4441",
"K  c #564945",
"L  c #644542",
"P  c #6A4543",
"I  c #654A44",
"U  c #6B4B45",
"Y  c #654549",
"T  c #684748",
"R  c #664B4A",
"E  c #6C4D4A",
"W  c #734542",
"Q  c #734D43",
"!  c #7A4B45",
"~  c #784448",
"^  c #724E4B",
"/  c #7B4D48",
"(  c #6C5046",
")  c #6E514D",
"_  c #745146",
"`  c #7D5246",
"'  c #73534D",
"]  c #7A534D",
"[  c #76584F",
"{  c #7C594F",
"}  c #694C51",
"|  c #784E53",
" . c #6D5352",
".. c #755552",
"X. c #795754",
"o. c #765955",
"O. c #7A5955",
"+. c #71525D",
"@. c #7A5759",
"#. c #755A5A",
"$. c #7C5C59",
"%. c #6E605D",
"&. c #7F6055",
"*. c #7F605C",
"=. c #7F5E61",
"-. c #7C5D6A",
";. c #7D5F74",
":. c #7D6766",
">. c #7D736D",
",. c #814C4C",
"<. c #83544C",
"1. c #845A4B",
"2. c #8B5B4F",
"3. c #874F52",
"4. c #8A4F53",
"5. c #835452",
"6. c #8B5153",
"7. c #825C54",
"8. c #815E5A",
"9. c #895C5A",
"0. c #856255",
"q. c #8A6155",
"w. c #84635C",
"e. c #8A655D",
"r. c #8B6A5D",
"t. c #97685A",
"y. c #956B5D",
"u. c #856462",
"i. c #8A6762",
"p. c #876966",
"a. c #8B6A64",
"s. c #856B69",
"d. c #8E6D69",
"f. c #926D63",
"g. c #916E6A",
"h. c #9A6F6A",
"j. c #8E7166",
"k. c #8B7169",
"l. c #937364",
"z. c #9A7466",
"x. c #94736D",
"c. c #9A746C",
"v. c #9B7A6E",
"b. c #8A6C76",
"n. c #8A6B79",
"m. c #967572",
"M. c #997771",
"N. c #937970",
"B. c #9C7B74",
"V. c #96797B",
"C. c #9C7D7B",
"Z. c #AB7466",
"A. c #A2766C",
"S. c #A37C6C",
"D. c #A27D75",
"F. c #AA7E73",
"G. c #A27E79",
"H. c #9F8176",
"J. c #A6856F",
"K. c #A48176",
"L. c #AB8175",
"P. c #A4827A",
"I. c #AA837C",
"U. c #AB897D",
"Y. c #B4867A",
"T. c #B48C7C",
"R. c #B7907E",
"E. c #C28C7B",
"W. c #967986",
"Q. c #997D95",
"!. c #98928C",
"~. c #9F8294",
"^. c #9E9E97",
"/. c #A78782",
"(. c #A98780",
"). c #AC8B83",
"_. c #AD8D89",
"`. c #B38C83",
"'. c #BB8E84",
"]. c #B18C89",
"[. c #B59184",
"{. c #BC9382",
"}. c #BF9983",
"|. c #B5928A",
" X c #BB958B",
".X c #BD9B8B",
"XX c #A2859A",
"oX c #BD9491",
"OX c #BC9B91",
"+X c #A185A0",
"@X c #C39587",
"#X c #C29B86",
"$X c #C2968B",
"%X c #C39C8A",
"&X c #CB9B8D",
"*X c #D09A8A",
"=X c #C29A94",
"-X c #CD9F93",
";X c #C2A194",
":X c #C7A699",
">X c #CBA59A",
",X c #CEAA9E",
"<X c #D5A294",
"1X c #DAA799",
"2X c #D0AC9F",
"3X c #DDA99B",
"4X c #D1ADA1",
/* pixels */
"g X %.!.>.>.:. .u < ; 2 w w 2 > P X.7.X. .i 1 j ' f t.L.$.a.' Q 5.O.U , 5 8 8 $ + # q q > : z { o.f..X4X4X4X,X).o.h e r h J J J ",
" .0 K !.^.>.I 1 > q q w r q : w ^ X.X...u # r ..X.v t.S.E d.r.z f z z > @ 5 = # + % q q q & U O.O.a.|.4X4X4XOXw.I k h L J J I J ",
"o.I < K K K 1 q Y J u u w t ; r ..@. .i # + k o.X.v q.F.L e.K.9.P a d > - = = 7 i ) L e 2 = I X.X.w.`.4X4X:Xx.j h h L h J J J J ",
"X.o.J 0 1 w.o.q } #.} G B u 7 q E  .B o # 2 h ..O.z 1.F.k $.B.G.c.c.x.a.a.u.u.u.u.O.g 9 q - L ..O.w.(.4X2XU.( g k k h I I J J u ",
"o.O.O.( l e.B.I 9 K R  . .J i 9 u r * @ = 2 q  .$.Q 2.A.P ..B.I.K.B.x.j.e.&.o.) E h 3 e 9 4 t ..O.7.D.>X>Xf.l k L k k J h J h % ",
"$.$.O.O.v x I.I.) 0 0 < 9 g K e - & u t & q q I @.U <.h.P P i.x.i.o.U g r 2 3 q 2 t e u t - 5 ) X.X.x. X Xr.k L J L J L I L i - ",
"$.$.o.$.[ x r.U.B.j.&.[ h i q 2 3 ` L.9.$ q t g ' ' O.z.Q 3 j k r t 9 q 2 q 3 q j o.$.u - 9 i ..X.X.8.c.c._ j ( ..o.$.#.#.@...u ",
"g.p.*.O.O.v v v.[..X[.R.I.x.e.0.z.Y.3XZ.> 9 0 e ( ..7.z.] 3 q q w q e e q q 3 ( c./.=.q X R *.o.O.O.] 1.Q r 3 O.m.V.V.C.V.V.m.E ",
"B.B.x.e.7.] Q c.:X,X$XT.U.K.K.K.D.R.<XE.c 1 0 9 k  .O.z.9.w q 2 2 t t t q q P D.OXi.w = % ) j.&.X.X.O.X._ j j ' x.C.H.H.C.C.V.u.",
"K.K.H.v.e.O.^ e.OX4X=XI.G.K.K.L.L.Y.-X*X,.; e 1 J ..X.A.y.q q q 2 q e t q G c.=XD.P 7 5 & ' v.w.@.X.7.q.q.Q L I u.V.W.C./.V.C.V.",
"K.K.K.K.x.7.X.X.(.=X'.G.K.K.K.K.F.L.*X<X1.+ e e R #.R f.A.r q q 2 q q q r i.=X].| F w = $ ( U.p.@.o.0.x.B.q.Q Y ) p.V.C.C.W.C.W.",
"I.K.K.I.B.i.O.O.B.I.I.G.K.I.I.K.F.F.@X3X2.& q 9 R #.E y.Y.U q q 2 e 2 e O.oXoX9.H F M = $ x ).m.$.X.u.D.K.c.O.I Y E p.V.H.H.C.C.",
"P.K.K.P.H.p.O.7.B.F.G.I.K.G.K.K.D.L.@X4Xt.2 9 e  .#.( 0.L.^ q t q 3 g 0.[. X8.F s F M = @ z U.C.=.X.8.B.K.K.d.E i q B =.W.V.H.V.",
"N.H.P.H.B.e.O.8.c.G.I.P.P.K.K.K.G.I.{.3XA.r 9 i  .%.' 7.F.X.q w q j y..X=Xa.f F H F y = @ d K._.0.$.7.i.B.K.B.@.i q - t +.s.N.H.",
"( x.P.H.d.$.O.8.x.D.K.K.G.P.P.K.K.K.'.1XF.f < I o.o.' ` F.8.w q w q.%X2XD.z y G F M 8 = * d B..Xr.X.X.7.c.P.M.$.L w 2 % o q R  .",
"r ( p.p.0.O.O.8.c.G.K.G.G.P.K.P.I.D.`.<X@XP e ) o.R U ! F.e.7 q r r.>X=X7.r a G M y 5 = - s x..Xz.O.X.X.a.D.x.8.' i t t t q < - ",
"k r k ..o.O.O.8.x.H.K.I.P.H.P.P.H.G.`.-X$X/ d T J I $.<.z.8.q q w _  X X/ w y 7 = 7 = = # 2 k..XU.8.X.7.d.K.C.a.w.) u G -.n.s.-.",
"L e 2 k X.o.o.$.r.H.K.P.P.H.H.x.u.o.z.-X>X] > w ) k.O.] h.] q q 2 r g.oXg.y = = @ & = = + ; r.;X.X0.O.i.B.P.B.m.x.d.T J b.XX+X~.",
"i u 2 2 I o.o.O.w.v.K.K.P.H.k.U t 2 x F.>X/ $ E d. .r 5.c.P q w w 2 z G.].u.w = $ = & & & 3 p.;X.Xi.a.B.K.B.k.e.p.B.#.J n.~.+XQ.",
"q q q 1 r ' $.7.O.j.H.K.B.w.k e h h a <.F.^ H d. .e 2 e.f.w e t q q w L | Y > 7 w > q r l &.U.:XOXB.B.G.v.i.$.O.u.B.$.Y n.Q.Q.;.",
"% - 2 q 9 h ..X.O.r.v.v.e.j r k J Y Q v / p ] ^ r e i e.] e q q w q q 8 7 = q T X.8.d.m.B.).;X;X_.D.M.g.0.O.$.u.m.d.T k :.b.+.} ",
"- % % 1 q 1 L ..O.&.w.&.j 3 k L i J Q <.2.a w y q 9 E $.k 2 1 q q q t q q = Y ..X.9.g.M.K.U.P.H.x.i.0.O.O.w.d.M.x...i t B Y G | ",
"9 - o % 9 q q E $.[ I r e h r q q > p / 5.f 3 w q e E ' t 2 e 9 q 7 q 8 7 5 E $.$.$.8.8.e.i.i.0.O.O.7.$.a.m.M.x.$.j q ; # > ^ B.",
"9 5 - # # 5 5 Y o.E 2 < e 9 % $ > w 8 w d w q y q e L i q q q 9 9 9 9 1 - q ' $.X.X.8.w.w.8.O.O.O.O.7.a.c.c.p.X.k q q &   d B.].",
"< < q % . ; q B ..L - - % # o % w 3 3 = - > w t e q e q t e 9 e q 9 1 1 & 2 ) &.o.w.u.w.8.X.o.X.O.$.i.c.a.0.' k q q q & & w.[.M.",
"9 5 ; # % 1 5 k ..L #   # $ + $ > w w > & q y q q q q q 9 e e 9 9 9 q 1 & e ( o.$.i.w.O.X.O.@.X.O.0.x.c.0.[ j 3 q w q & U H.B.0.",
"5 9 - # & 9 < I o.I + o - = = $ 2 3 q ; % 1 t r t q q q 9 9 e 9 q 9 e < g I g [ w.i.8.X.X.@.$.@.$.w.B.a...L w 2 w i q e k.P.a.[ ",
"5 5 % $ ; 1 r ) o.x & + > , : , 3 3 w ; % e q q q 9 q q 0 e 9 9 q e 1 & ( p.k I w.8.O.O.$.X.@.@.X.i.B.w.Y r 2 y d i w ' U.x.&.O.",
"9 ; # & 2 q ( o.' r & $ > , , f f p 2 = % e q t q 9 0 e 0 e q q q q ; q &.N.) r ' @...O.X.X.7.O.8.a.M.$.y t d d a r a c.P.w.o.O.",
"5 % % ; e L ..[ I q 2 > s ~ 3.4.,.c a > < e e q 9 t 9 9 q q 9 q q 2 : j p.B...r k ] o.O.X.$.O.O.X.p.m.' t G | } f d O.(.x.O.O.O.",
"- * 7 i ) o.o.( 3 r h 2 H 4.4.4.6.6.v 2 2 e e 9 e q 9 9 e 9 q q 2 & r Q g.G.$.r r E X.X.O.O.o.O.o.d.d.Y 8 } u.9.L P M.).a.w.0.$.",
"- i E ..o...I q 1 g k 3 f 3.6.4.6.6.W , q q e e 0 e t e q q q 2 < 2 U O.x.K.O.r L ^ ^ O.o.X.O.O.$.p.$.i 8 } u.X.P i.).B.f.g.k.d.",
"R =.u.o. .h q 9 q w T P p ~ 6.4.6.,.p > 3 q 9 e e 9 0 q q q ; ; 3 ( o.O.K.B.E k u.$.E ^ $...O...' o.I q q T @.T ] (.I.w.8.e.u.d.",
"d.k.w.o.g # # q q q z ^ p s W v c p f f q q e q 9 q e q 1 ; ; w U [ O.w.(.x.k E _.g.T r T I k h r r q ; ; u Y H i.].a.O.O.X.o.O.",
"m.u.$.@.q # - - 9 u y ^ P w 2 3 3 j ' 8.x 1 e q q 0 q 9 ; 1 d } o.O.O.x.U.w.i ' H.:.i ; > > & % & % # % % > r ^ (.(.8.O.O.X.$.o.",
"8.$.u.E - # * - q t w P X.I g g v { [ j.O.& q 2 q e 1 ; q E ..$.O.O.$.K.V.I 2 t d u 2 ; = 1 & & ; & % # # > y a.|.g.@.X.X.$.O.O.",
"o.w.i.i * - X 4 0 t r y Y ' ) ( ' ( ( v.o.; e e q 1 < q T o.O.o.o.o.k.P.8.r 2 2 q q 2 2 q q q q 2 1 q ; # & k P.).e.o.$.X.O.O.O.",
"$.p.u.q 4 4 4 O 4 9 t q w r i u g 3 U x.E ; w q e 1 % h @.o.$.o.X.u.H.x.L r q q q q q q q q q q q q q ; # & O.|.m.$.X.o.O.O.O.o.",
"w.x.@.5 n V b O 4 0 9 q r q q q q r a.x.w 2 q e e 1 % k $.X.O.$.$.m.C.' e 2 q q 9 q q q q q q 9 q t 5 - # g H.|.i.O.X.$.O.O.O.O.",
"p.m.E 5 N S V 4 - < 9 t q r q q 3 ' P.7.> t e i g e & g ..X.$.o.d.C.&.r 2 q 9 q 5 t q q q q q q 9 9 - % & ' [.K.$.o.X.$.O.O.O.O.",
"M.K.^ 6 C D S 6 o - - q q t q r k B.I.d 2 w i Y L i ; 2 ) o.o.w.m.u.i 2 t q q t t u i i u r u u t ; % # e a.|.a.O.o.O.X.$.$.o.o.",
"U.x.i 6 Z D A V 4 X - 1 e q q e O.[.f.3 q r k I L h 2 1 r ' $.k.u.d t r d i L E E E } '  .' ..E I 1 & # h H.|.r.O.O.o.O.$.X.O.X.",
"P.u.q = D D A b 4 # # - q w q j B.`.Q d i i L L k k r 2 q i ^ $.E P E ' ....X.o.$.X.X.@.O.o.O.o.) r 2 ; I U.OXp.O.[ O.O.o.O.o.O.",
"H.o.= 6 A D D b o # # - q q q ' |.c.3 z k u k L k h r e w q e k ' ..X.o.X.$.O.X.o.O.O.o.O.o.O.O...k q > k x.OXN.O.O.$.O.X.O.O.O.",
"G...= = N Z C 6 # # % 2 q e r w.[.1.3 z I i a k l j h L k q 1 i ..o.o.$.o.o.X.O.O.O.O.O.X.O.O.O.@.) r 2 d O._.P.w.O.O.O.O.O.O.O.",
"(.i.t * n Z m 6 5 ; q q q e h x.I.0.` l ..k a r r r k ] E u 2 q ' o.o.o.O.X.O.o.O.O.O.O.O.O.O.O.o.] E r 2 L x.).a.O.O.O.O.O.O.O.",
"_.M.' t 6 6 7 5 u t 2 q e q i c.v.J.q.a O.U k j r r k ^ L e 1 q ) o.o.$.o.O.X.o.O.O.O.O.O.X.O.[ o.O.] I r r ..H.H.$.O.O.O.o.O.O.",
"C.G.i.E G q % 7 o.x 2 3 e q k v.e.T.l.l O...' ' U I I E L r q 9 E $.$.o.O.o.$.X.O.X.O.o.O.O.o.O.O.o.o.] L r h w./.a.O.O.O.] O.O.",
"i.B.B.m.a.O.( o.j.( 3 1 e q k K.q.R.A.Q o.o.[ ] [ ' ..o.) L e 1 Y o.O.o.O.X.X.O.O.O.o.O.X.O.O.O.O.O.O.O.' j r U x.C.*.O.O.O.O.O.",
"8.w.g.B.K.K.H.v.l.[ k 1 e g U v.t.R.L.] ..[ o.[ [ [ ] ....E i 1 r ..O.o.o.o.o.O.O.O.[ O.O.O.O.o.O.O.[ o.o.' h r ..B.x.$.O.O.[ o.",
"X.8.8.8.r.l.l.r.r.a.[ 3 e i I l.z.@X'.0.E O.] ] ' [ ....@...L q 2 E @.o.$.o.O.O.X.O.O.O.O.O.O.O.O.O.O.O.O.O.U r k i.K.u.O.O.O.O.",
"X.$.$.X.o.7.O.w.l.j.[ q 1 t J a.c. X$X9.z X...@.o.o...' ' @.) u ; k ..$.X.$.o.o.O.O.o.O.O.O.O.O.O.O.O.O.O.O.O.k r U m.C.0.O.O.O.",
"i.8.$.X.O.8.i.m.j.*.) e 1 q i w.K.@X%Xy.v X.o.o...[ E P k L L e ; 2 d E ..o.o.O.o.O.O.O.O.O.O.O.o.O.O.O.] o.O.) j r *./.d.o.o.o.",
"M.c.d.u.i.g.m.d.*.o...Y 1 1 q ' S.}.%XF.Q ' O...o.) j e q q t e q ; > e I ] o.O.O.O.O.X.O.O.O.X.[ O.O...o.O.O.O.I e k B.P.*.O.$.",
"d.g.g.x.B.B.d.8.o.O.$...h 1 > j S.#X&XR.1.z [ o. .x q 2 2 q q r q 2 2 ; > r U X.O.O.O.X.O.X.O.O.O.O.X.O.O.O.[ O...i 3 O.(.a.O.o.",
"o.7.8.u.i.i.$.$.O.$.#.....h : j J.#X#X#XS._ [ [ ) g q q q q 2 2 2 q q q ; ; 2 k ' O.O.O.X.O.O.o.O.O.[ O.O.O.O.O.X.U r L C.x.X.O.",
"7.O.8.O.$.7.O.O.$.$.$.@.@...L a z.E.#X#X#Xl.[ [ L r t q 2 q q q q q q q 7 q - ; r E o.o.o.o.$.#.o.o.O.o.O.X.O.O.O.' i r x.m.O.O.",
"a.8.O.O.O.O.O.O.X.$.@.@.$.#.X.U 0.T.#X#XR.R.&.x r t q q e q q q q q t q q q q > ; q k  .$.o.o.o.o.] O.O...X.O.O.O.' k r d.x.O.O.",
"B.i.7.o.O.7.O.$.@.$.$.$.$.$.o.O.{ l.R.%X#X#XJ.x e q q q q q 9 q q t q q q q q q q 1 q e Y ..#.o.o.o.O.o.O.O.O.O.O.o.U r a.x.O.O.",
"B.u.$.O.O.$.0.O.o.$.o.$.o.$.O.O.o.&.l.[.;X#XR.J.x 2 2 q q q e 9 q q q q q q q q q q 9 1 q i E ..o.$.O.$.o.O.O.X.O.o.^ P k.j.O.O.",
"g.8.O.$.O.O.O.O.O.$.$.O.$.$.$.X.o.O.0.z.[..X%X@Xa.j 3 2 q q 9 e q 9 9 e q q q q q e 9 q 2 < 2 i U ' o.o.o.O.O.O.o...' ( a.w.O.O.",
"w.O.O.$.7.O.O.O.O.O.$.O.O.o.$.$.$.$.O.7.c.`.%X$XR.f.l 3 3 q 2 2 9 q q q 0 e 2 q 9 e q q q e q 1 2 r L ' O.$.O.O.o.X.' E $.$.O.&.",
"8.O.7.O.O.O.&.O.O.O.O.$.O.@.$.$.$.X.o.7.7.c.`.$X.X{.y.l 3 q q 9 9 t q q q q q 9 q q e 2 q e 2 1 1 ; e E X.O.O.X.O.O.' ' O.[ O.O.",
"O.X.O.$.O.O.O.O.O.&.O.O.$.$.@.$.o.X.$.O.X.7.h.`.%X#XR.e.r 2 e 9 9 q q q 9 q q e q 9 q q 9 9 2 2 ; q U @.O.O.O.O.X.o.[ ' O.&.O.[ "
};
