/* XPM */
static char *_ec925991cea4569f59c75ff9c1eef62KrkISLeMwdgoTwgU[] = {
/* columns rows colors chars-per-pixel */
"64 64 209 2 ",
"   c #0D0602",
".  c #130A06",
"X  c #1A0C06",
"o  c #140D0B",
"O  c #1A0E0A",
"+  c #14100F",
"@  c #1E110C",
"#  c #1C1412",
"$  c #210F06",
"%  c #261107",
"&  c #20130D",
"*  c #2A140A",
"=  c #32170A",
"-  c #34180A",
";  c #39190B",
":  c #221713",
">  c #241915",
",  c #2B1A12",
"<  c #261C19",
"1  c #291F1B",
"2  c #391E11",
"3  c #2D211D",
"4  c #382219",
"5  c #2E2523",
"6  c #322723",
"7  c #362A27",
"8  c #3A2B26",
"9  c #31262C",
"0  c #3B2E2A",
"q  c #431E0D",
"w  c #47200E",
"e  c #4B220F",
"r  c #422214",
"t  c #4B2514",
"y  c #44281B",
"u  c #4C2A1B",
"i  c #532510",
"p  c #522815",
"a  c #5A2912",
"s  c #532C1C",
"d  c #5B2E1B",
"f  c #5A311F",
"g  c #632D14",
"h  c #683219",
"j  c #733417",
"k  c #783718",
"l  c #7E3A1A",
"z  c #432D24",
"x  c #4E2E20",
"c  c #43312B",
"v  c #4E342A",
"b  c #543121",
"n  c #5B3322",
"m  c #55382D",
"M  c #463631",
"N  c #473835",
"B  c #4C3A34",
"V  c #573D34",
"C  c #663824",
"Z  c #743C23",
"A  c #54413C",
"S  c #58433E",
"D  c #6E402D",
"F  c #7A4128",
"G  c #67473B",
"H  c #784836",
"J  c #5C4944",
"K  c #4E4650",
"L  c #684C44",
"P  c #724F43",
"I  c #67524D",
"U  c #6A534E",
"Y  c #745246",
"T  c #73544A",
"R  c #79574C",
"E  c #7A594E",
"W  c #6B5550",
"Q  c #7C5D54",
"!  c #7D635D",
"~  c #853E1D",
"^  c #883E1B",
"/  c #823F21",
"(  c #8D411D",
")  c #92421D",
"_  c #9A461F",
"`  c #884527",
"'  c #9E4720",
"]  c #964927",
"[  c #9F4820",
"{  c #854D36",
"}  c #8D533A",
"|  c #985537",
" . c #A44B22",
".. c #AD4E23",
"X. c #AF5125",
"o. c #AA522B",
"O. c #B55224",
"+. c #B95425",
"@. c #B2562C",
"#. c #BA5628",
"$. c #B2582F",
"%. c #BC592C",
"&. c #A75A38",
"*. c #B55D35",
"=. c #BE5D31",
"-. c #BD6138",
";. c #C06237",
":. c #C16339",
">. c #875846",
",. c #9D5D42",
"<. c #815E54",
"1. c #AC5C43",
"2. c #9B6048",
"3. c #856156",
"4. c #84645A",
"5. c #8A6559",
"6. c #996755",
"7. c #A56348",
"8. c #AB654B",
"9. c #B56848",
"0. c #AC6D54",
"q. c #B76E54",
"w. c #AD745E",
"e. c #B8775E",
"r. c #876A64",
"t. c #8C6C64",
"y. c #946D62",
"u. c #8D7069",
"i. c #9A7165",
"p. c #93746C",
"a. c #987469",
"s. c #9C766B",
"d. c #977770",
"f. c #997971",
"g. c #A8796A",
"h. c #B57A64",
"j. c #BB7B63",
"k. c #B47E6B",
"l. c #A27E74",
"z. c #AA7E72",
"x. c #C46941",
"c. c #C76F48",
"v. c #C86F49",
"b. c #C5714E",
"n. c #C9734E",
"m. c #C57655",
"M. c #CB7652",
"N. c #CC7956",
"B. c #C3785B",
"V. c #CD7C5B",
"C. c #D07E5D",
"Z. c #C47E63",
"A. c #CA7F62",
"S. c #BD806A",
"D. c #AE8275",
"F. c #A38078",
"G. c #A9857C",
"H. c #BB8573",
"J. c #BC8978",
"K. c #D2805F",
"L. c #CF8264",
"P. c #C9856B",
"I. c #D28363",
"U. c #D38669",
"Y. c #D78B6D",
"T. c #D88B6E",
"R. c #C38777",
"E. c #D58D72",
"W. c #D88E72",
"Q. c #CA907D",
"!. c #DA9176",
"~. c #DB947A",
"^. c #DA957C",
"/. c #AD8980",
"(. c #B58C81",
"). c #BC9286",
"_. c #BB9389",
"`. c #B19398",
"'. c #C68D83",
"]. c #C79485",
"[. c #CC9A8C",
"{. c #D59783",
"}. c #DE9C84",
"|. c #D39D8D",
" X c #DB9E8B",
".X c #CC9D92",
"XX c #D19F91",
"oX c #E19D86",
"OX c #DDA18E",
"+X c #CEA196",
"@X c #D2A396",
"#X c #DBA494",
"$X c #D3A498",
"%X c #DAA699",
"&X c #DCA89A",
"*X c #E3A28D",
"=X c #E3A693",
"-X c #E3A896",
";X c #E8AA97",
":X c #E2AA9A",
">X c #E9AE9D",
",X c #EAB09F",
"<X c #D9ADA8",
"1X c #DBB3B5",
"2X c #DDB7B9",
"3X c #E2AEA0",
"4X c #E7B4A6",
"5X c #EBB3A4",
"6X c #F2BDB0",
/* pixels */
"6X6X@XL ; k *.P..X<X1X2X2X2X1X'.0.1.9.R.<X1X1X2X2X1X2X2X2X2X2X2X2X2X2X`.K 9 H q.[.1X2X2X2X2X2X<XR.8.1.8.'.<X2X2X2X2X1X2X2X1X2X2X",
"}.oXR.V & H m.Y.}.}.}.}.}.oX^.q.` o.v.U.{.}.oXoXoXoXoX}.}.}.}.}.oX}.oXh.z , { A.T.oXoXoX}.oX}.^.8.` &.M.U.}.oXoX}.}.oX}.}.oXoX}.",
"x.x.&.t > 5.}.U.c.:.x.x.x.:.-.F 4 Y Q.!.n.:.x.x.x.x.x.x.x.x.x.x.x.x.x.| 2 6 i.}.K.c.c.:.:.x.x.*.C y <.{.U.v.x.x.x.x.x.x.x.x.x.x.",
"+.+._ w 1 u.&XU.%.O.#.#.#.#.X.a & I $X~.:.+.#.+.+.+.+.+.+.+.+.+.+.+.+.^ ; 9 l.-XN.#.+.+.#.#.+. .i : ! :XY.=.+.+.+.+.+.+.+.+.+.+.",
"+.+. .q < u.&XI.%.+.+.+.#.+.X.g & I $X~.;.+.+.+.+.+.+.+.+.+.+.+.+.+.+.) ; 6 l.-XN.%.+.+.+.+.+. .i : ! &XY.=.+.+.+.+.+.+.+.+.+.+.",
"+.+._ e < u.-XI.%.+.+.+.+.+.O.g & I @X~.;.+.+.+.+.+.+.+.+.+.+.+.+.+.+.) ; 6 l.-XN.#.+.+.+.+.+. .i : ! &XY.=.+.+.+.+.+.+.+.+.+.+.",
"+.+. .q < u.-XI.%.+.+.+.+.+...g & I $X~.:.+.+.+.+.+.+.O.+.+.+.+.+.+.+.) ; 6 l.:XN.+.+.+.+.+.+...i : Q %XY.=.+.+.+.+.+.+.+.+.+.+.",
"+.+._ e < u.&Xe.] [ +.+.+.+...g & I $X~.:.+.+.+.+.+.+.+.+.+.+.+.+.O.+.) ; 9 l.%X0.)  .+.+.+.+. .i : r.%XT.=.+.+.+.+.+.+.+.O.+.+.",
"+.+._ w 3 u.+X4.t k X.+.+.+...g @ I @X~.:.#.+.+.+.+.+.O.+.+.+.+.+.+.+.) ; 6 F.[.Y e ^ O.+.+.+.[ i : ! &XY.=.+.+.+.+.+.+.O.+.+.+.",
"+.+.[ w : 4.R.G @ e ^ ( ( ( ^ g r <.$X~.;.+.+.+.+.+.+.+.+.+.+.+.+.+.+.) ; 3 i.H.B & i ^ ( ( ( ~ i y y.:XY.=.+.+.+.+.+.+.+.+.+.+.",
"+.+.[ e @ F 7.n   X = - - - - a ~ e.-X~.;.+.+.+.+.+.+.+.+.+.+.+.+.+.+.) ; , { ,.y   $ = - - - ; g ` k.>XY.=.+.+.+.+.+.+.+.+.+.+.",
"+.+._ w $ D &.H 8 7 7 7 7 8 8 f ` j.:X~.:.+.#.+.+.+.+.+.+.+.+.+.+.+.O.) ; * { &.G 8 7 7 7 8 7 c C ] P.:XY.=.+.+.+.+.+.+.+.+.+.+.",
"+.+.[ e > <.^.'.G.G.G.G.G.G.l.T u 5.%X~.:.O.+.+.+.+.+.+.+.+.+.+.+.+.+.) ; 1 6.[.J.G.G.G.G.G.G.s.L b i.:XY.=.+.+.+.+.+.+.+.+.+.+.",
"+.+._ e < t.3X4X-X=X=X=X=X-X|.E 1 I @X~.:.+.+.+.+.+.+.+.+.+.+.+.+.+.+.( ; 6 F.4X,X-X=X-X-X=X;X].L < ! %XY.=.+.+.+.+.+.O.+.+.+.+.",
"+.+._ e < u.3X^.V.N.M.N.N.N.b.D : I @X~.:.+.+.+.+.+.+.+.+.+.+.O.+.+.+.) ; 6 l.,X!.N.N.M.M.N.N.9.n < ! &XT.=.+.+.+.+.+.+.+.+.+.+.",
"+.#._ e < p.:XI.%.#.#.#.#.%.X.g & I @X~.;.+.+.+.+.+.+.+.+.+.+.+.+.+.+.) ; 6 F.-XV.%.#.#.#.#.#. .p > Q &XY.=.+.+.+.+.+.+.+.+.+.+.",
"+.+.[ e > u.-XU.%.+.+.+.+.+...g * I @X~.:.+.+.+.+.+.+.+.+.+.+.+.+.+.+.) ; 6 F.-XN.+.+.+.+.+.+. .i : ! &XY.=.#.+.+.+.+.+.+.+.+.+.",
"+.+._ w 1 t.&XU.%.+.+.+.+.+.X.g & I $X~.:.+.+.+.+.+.+.+.+.+.+.+.+.+.+.) ; 6 F.-XN.+.+.+.+.+.+. .i : Q &XT.=.+.+.+.+.+.+.+.+.+.+.",
"+.+._ w > u.-XU.%.+.+.+.+.+.O.g & I $X}.:.+.+.+.+.+.+.+.+.+.+.+.+.+.#.) ; 6 l.-XN.%.+.+.+.+.+. .i : ! <XU.=.+.+.+.+.+.+.+.+.+.+.",
"O...( s c a. XV.%.+.+.+.+.+.X.g O J (.j.o. .O.+.+.+.+.+.+.+.+.+.+... .~ y B z. XM.+.+.+.+.+.+. .i : U ).e.o...O.+.+.+.+.+.+.+.+.",
" .j d Y a.h.V.:.+.+.+.+.+.+.O.g o < J V p j  .#.+.+.+.+.+.+.+.+.+.' g C E i.j.N.:.+.+.+.+.+.+. .i . 9 S m p ~ ..+.+.+.+.+.+.+.+.",
"_ w 3 p.#XV.%.%.+.+.+.+.+.+...g . + # 1 1 d )  . . .+.+.+.+.+.+.+.) ; 8 l.#XN.%.+.+.+.+.+.+.+...i . + < < 1 f ) [ [ ..O.+.+.+.+.",
"_ ; 1 p.-XI.%.#.+.+.+.+.+.+...g O 0 Q r.r.P d t p j  .+.+.+.+.+.+.( = 7 G.;XN.+.+.+.+.+.+.+.+. .i O N Q t.r.G d i i k ..+.+.+.+.",
"( p 0 d.OXN.%.+.+.+.+.+.+.+...g O I .X4X%Xa.c : > p )  . . . .[  ./ r N D.oXM.%.+.+.+.+.+.+.+. .i : Q <X3X@X5.8 : , d _ .. . .[ ",
"n Y 5.h.V.x.#.+.+.+.+.+.+.+...g # I $X;XE.h.u.r.4.T n i i i i p i C R y.j.V.:.#.+.+.+.+.+.+.+. .i : ! &X*XU.h.t.r.! H f p i i i ",
"6 p.@XK.%.#.#.+.+.+.+.+.+.+...g & I $X^.x.V. X&X%Xs.v : : : : @ . 0 F. Xm.=.#.+.+.+.+.+.+.+.+. .i > ! &X!.9.V.OX&X@Xt.8 # : : : ",
"5 f.-XV.%.+.+.+.+.+.+.+.+.+.O.g & I $X~.:.:.I.U.U.j.t.! ! ! ! J < 0 /.=XM.+.+.+.+.+.+.+.+.+.#. .i : ! &XT.;.c.K.U.U.h.5.! ! ! ! ",
"5 f.-XK.#.+.+.+.+.+.+.+.+.O.[ a & I $X~.:.#.%.%.=.m.{.&X&X&X%Xz.7 0 /.=Xn.#.+.+.+.+.+.+.+.O..._ e : ! &XT.=.#.%.=.;.V.|.&X&X&X&X",
"5 f.-XK.#.+.#.+.+.+.+.+.O.^ a - o I @X^.:.#.+.+.#.:.V.T.T.T.Y.6.4 0 G.=XM.#.+.+.#.+.+.+.+...^ a * # ! &XU.;.+.+.+.%.x.I.Y.Y.Y.Y.",
"8 f.&XN.X.X.............[ g X   O U .XE.*.........X.@.@.$.$.@.` 2 c (.=Xb................._ i X   & 4.#XU.$.......X.X.$.$.$.$.$.",
"H J.$X6.h g g g g g g g a =   % i } Z.8.k a g g g g g g a g g a a H ].XX>.g g g g g g g a a *   * f ,.Z.,.h g g g a g g g g a g ",
"-.{.+XI @ . X $ & @ & & & O @ p ' @.$./ 2 # & : : @ @ : : & & r ` q.*X].S X X X @ & @ & @ @ + & g [ X.$.Z , @ & & & & & @ & & & ",
"W.>X+XJ . * t D I U W W W W T } @.+.+.| T W U U U U U U U U U 3.e.!.>X_.B . ; d S U U U U U W T | +.+.O.} T U U U U U U W U U W ",
",X4X+XS @ g | S.XX%X@X@X@X@XXXS.$.+.%.m.|.$X@X$X$X$X$X@X$X$X$X%X-X>X5X).B & j &.P.@X$X$X$X$X$X|.e.%.O.-.V.+X$X$X$X$X$X$X$X$X$X$X",
"~.~.S.v & H L.Y.~.~.~.~.~.~.E.7.F | m.U.W.~.~.~.~.~.~.~.~.~.~.~.~.!.!.g.z , >.L.Y.~.~.~.~.~.~.P.&.Z | L.U.~.~.!.~.~.~.~.!.~.~.~.",
"-.-.o.e 3 t.OXU.:.-.:.-.:.-.-.l 2 Y [.!.c.;.;.;.:.-.:.-.:.;.;.;.:.:.:.] 2 6 s. XK.:.;.-.:.;.;.$.h 4 3.|.Y.x.;.;.:.-.;.;.:.-.:.-.",
"+.+.[ e > u.&XI.%.+.+.+.+.+...g @ I @X~.:.+.+.+.+.+.+.+.O.+.+.O.O.+.+.) ; 7 F.-XN.%.+.+.+.+.+. .p # ! &XY.%.+.+.+.+.+.+.#.+.+.+.",
"+.+._ e 3 u.&XI.%.+.+.+.+.+...g @ I $X~.;.+.+.+.+.+.+.+.+.+.+.+.+.+.+.) ; 6 F.-XN.#.+.+.+.+.+. .p > ! &XT.=.+.+.+.+.+.+.+.+.+.+.",
"+.+._ e 3 r.:XK.%.+.+.+.+.+.X.g & I @X~.:.+.+.+.+.+.+.+.+.+.+.+.+.+.#.( ; 6 F.-XN.#.+.+.+.+.+. .i : ! &XY.=.#.+.+.+.+.O.+.+.+.+.",
"+.+._ w 3 u.:XL.%.+.+.+.+.+...g @ I $X~.;.+.+.+.O.+.+.+.+.+.+.+.+.+.#.( ; 6 F.=XN.+.+.+.+.+.#. .i : ! &XY.=.+.+.+.+.+.+.+.+.+.+.",
"+.+. .w 3 u.%Xw.( [ O.#.#.+.X.g & I @X~.:.+.+.+.+.+.+.+.+.+.+.+.+.+.+.) ; 6 F.@X7.( _ +.+.+.+. .i : ! &XY.=.+.+.+.+.+.+.+.+.+.+.",
"+.+._ w > t.XXQ 2 j ..O.O.O...g & U @X~.:.+.+.+.+.+.+.+.+.+.+.+.+.+.+.) ; 6 F.[.L r l X.+.+.+.[ i > ! &XY.%.+.+.+.+.+.+.+.+.O.+.",
"+.+. .w > >.H.G O 2 j l l l k a p 3.$X~.;.+.+.+.+.+.+.+.+.+.+.+.+.+.+.) ; 3 5.S.m X e k l l l k a u y.:XY.-.+.+.+.+.+.+.+.+.+.+.",
"+.+._ w @ D &.f . . * @ * % = a ( S.-X~.:.+.+.+.+.+.+.+.+.+.+.+.+.+.+.( - * { &.y   X * % * % = g ] P.>XT.%.+.+.+.+.+.+.+.+.+.+.",
"+.+._ w @ F 9.H A M A N N A 0 D ( e.:X~.:.+.+.+.+.+.+.+.+.+.+.+.+.+.+.) ; * { 8.H A M N N N N B C ` H.>XY.=.+.+.+.+.+.+.+.+.+.+.",
"+.+. .w > 3.OX+X_._.J._._._.G.E 8 Q %X~.:.+.+.+.+.+.+.+.+.+.+.+.+.+.+.( ; 3 y.OX[._._._._._._.G.L u y.&XY.=.+.+.+.+.+.+.+.+.+.+.",
"+.+._ w 3 u.4X,X*X*X*XOXOXOX{.E 3 I @X~.:.+.+.+.+.+.+.+.+.+.+.+.+.+.+.) ; 6 F.4X:X*X*X*XOX*X*X].G < ! &XY.=.+.+.+.+.+.+.+.+.+.+.",
"+.+._ ; 3 u.3X!.M.c.c.c.c.c.-.D @ I @X~.:.+.+.+.+.+.+.+.+.+.+.+.+.+.+.) ; 6 F.>XE.n.c.c.c.c.c.-.n : ! &XY.%.+.+.+.+.+.+.+.+.+.+.",
"+.+.[ w < u.&XU.%.+.+.#.+.+.X.g & I $X~.:.+.+.+.+.+.+.+.+.+.+.+.+.+.+.) ; 6 F.-XN.#.+.+.+.+.+. .i > ! &XY.=.+.+.+.+.+.+.+.+.+.+.",
"+.+.[ w < u.&XI.%.+.+.+.+.+.O.g @ I @X~.:.+.+.+.+.+.+.+.+.+.+.+.+.+.+.( ; 6 F.-XN.#.+.+.+.+.+. .i # ! &XY.=.+.+.+.+.+.+.+.+.+.+.",
"+.+.[ w > u.&XI.%.+.+.+.+.+...g @ U +X~.:.+.+.+.+.+.+.+.+.+.+.+.+.+.#.) ; 6 F.-XN.#.+.+.+.+.+. .i : ! &XY.=.O.+.+.+.+.+.+.+.+.+.",
"+.+._ w 3 u.:XI.%.#.+.+.+.+.X.g @ I $X^.:.+.+.+.+.+.+.+.+.+.+.+.+.+.#.( ; 6 F.-XN.%.+.+.+.+.+. .i : ! &XY.=.+.+.+.+.+.+.+.+.+.+.",
"O. .( b B a.}.N.%.+.+.+.+.+...g @ A F.h.] [ X.+.+.+.+.+.+.+.+.+.+.O._ l x A D.^.n.#.+.+.+.+.+. .i @ J G.w.]  .+.+.+.+.+.+.+.+.+.",
" .g u E F.j.n.:.+.+.+.+.+.+.O.g O # M z t h [ +.+.+.+.+.+.+.+.+.+._ a b 3.z.e.n.;.+.+.+.+.+.+. .i o 3 M z r j X.+.+.+.+.+.+.+.+.",
"_ q 3 p.#XI.%.+.+.+.+.+.+.+...g . + 3 6 6 f ( _ _  .O.+.+.+.+.+.+.( ; 0 D.=XN.%.+.+.+.+.+.+.+. .i . # 5 3 4 n ( _ _  .+.+.+.+.+.",
"_ q , p.-XK.%.+.+.+.+.+.+.+...g @ M u.F.f.E x ; ; h _ +.+.+.+.+.+.( = 7 G.=XN.#.+.+.+.+.+.+.+. .i + A p.F.f.T u ; w j  .+.+.+.+.",
"/ b M s.}.V.#.+.+.+.+.+.+.+.O.g @ I +X5X#Xg.B 3 3 x ( _ _ _ _ _ _ l y A D.oXn.#.+.+.+.+.+.+.+. .i # ! 3X5X@X5.c 3 3 f ( _ _ _ _ ",
"b R g.j.m.:.#.+.+.+.+.+.+.+.X.g : I $X=XU.e.s.f.d.E x w w ; w w w m ! g.e.n.;.+.+.+.+.+.+.+.+. .i # ! &X*XL.S.s.f.p.T s w ; w w ",
"5 p.#XC.%.+.+.+.+.+.+.+.+.+...g @ I $X~.:.N.OX-X&XF.B 3 3 3 3 :   0 G.OXM.#.+.+.+.+.+.+.+.+.+. .i > ! &XY.:.I.OX-X#Xy.0 3 3 3 3 ",
"6 f.-XC.%.+.+.+.+.+.+.+.+.+...g @ I $X~.:.:.N.K.K.e.s.p.p.u.p.W 3 0 /.-Xn.#.+.+.+.+.+.+.+.+.+...i : ! &XY.-.:.N.K.K.h.s.u.p.p.u.",
"5 d.:XC.%.+.+.+.+.+.+.+.+..._ a @ I $X~.:.#.#.#.%.n.}.-X&X:X:XF.0 0 G.=XM.#.+.+.+.+.+.+.+.O. .) w # ! &XY.=.#.#.%.=.B.OX&X&X-X&X",
"5 f.:XC.#.+.+.+.+.+.+.+.O.^ i % o U $X~.:.+.+.#.+.:.N.I.I.I.K.2.4 0 (.=XM.#.+.+.+.+.+.+.+...~ w $ # ! &XY.=.+.+.+.#.:.K.I.I.K.K.",
"z l.=XB. . . .[  . . . .) a .   & T [.Y.$.[ [  . . . .o. . .o.l 2 v J.#Xq. . . .[  . .[ [ ) e .   , 5.OXP.o. .[ [  . . .o. .o. .",
"H J.XX6.g a a a a a a a i =   * a } B.7.h a a a a a a i a a a a d { ].+X} a a a a a a a a i %   = h ,.e.| h a a a a a a a a a a "
};
