/* XPM */
static char *result[] = {
/* columns rows colors chars-per-pixel */
"64 64 256 2 ",
"   c #78351C",
".  c #7C261D",
"X  c #752D2D",
"o  c #7A2C2E",
"O  c #7B2B25",
"+  c #75322D",
"@  c #7B332C",
"#  c #7A3424",
"$  c #6C2E36",
"%  c #7B2C33",
"&  c #7C2E3A",
"*  c #732732",
"=  c #733234",
"-  c #7C3233",
";  c #78333A",
":  c #6C2D2A",
">  c #701F28",
",  c #792E42",
"<  c #993708",
"1  c #862C18",
"2  c #87331A",
"3  c #983616",
"4  c #8E2E12",
"5  c #A83A07",
"6  c #B83A06",
"7  c #A33716",
"8  c #B53B15",
"9  c #852A28",
"0  c #863326",
"q  c #832E3C",
"w  c #862B34",
"e  c #833334",
"r  c #933320",
"t  c #C53D02",
"y  c #CC3E01",
"u  c #CA3D0A",
"i  c #D33C01",
"p  c #D73B06",
"a  c #DF3710",
"s  c #E73F06",
"d  c #F33D01",
"f  c #9B460A",
"g  c #AD4402",
"h  c #A84807",
"j  c #B44402",
"k  c #BC4200",
"l  c #B64C02",
"z  c #BA4B02",
"x  c #B54B0A",
"c  c #B9470B",
"v  c #BA5506",
"b  c #AB4A13",
"n  c #B64A14",
"m  c #B8541B",
"M  c #AB580A",
"N  c #996E04",
"B  c #B96915",
"V  c #B65627",
"C  c #B45231",
"Z  c #B36837",
"A  c #BD752F",
"S  c #C44302",
"D  c #CB4303",
"F  c #C34B01",
"G  c #C34B09",
"H  c #CA4808",
"J  c #D54402",
"K  c #DC4501",
"L  c #D84807",
"P  c #C45302",
"I  c #CC5302",
"U  c #C55B02",
"Y  c #CC5C02",
"T  c #C7580B",
"R  c #D35403",
"E  c #D35D01",
"W  c #DC5C01",
"Q  c #D8590B",
"!  c #C75815",
"~  c #D15011",
"^  c #E54402",
"/  c #EB4402",
"(  c #E34C03",
")  c #EC4A03",
"_  c #EA480A",
"`  c #F34402",
"'  c #F64A06",
"]  c #E65506",
"[  c #FD5401",
"{  c #FD5C02",
"}  c #F95809",
"|  c #EA4F15",
" . c #CA6606",
".. c #D36302",
"X. c #DB6502",
"o. c #D46C00",
"O. c #DB6C02",
"+. c #D5660A",
"@. c #DD7301",
"#. c #DB7809",
"$. c #C86518",
"%. c #D96715",
"&. c #D77516",
"*. c #C67217",
"=. c #E26403",
"-. c #EC6C00",
";. c #E86806",
":. c #F46302",
">. c #FD6402",
",. c #F56A02",
"<. c #FD6C02",
"1. c #FE640A",
"2. c #FE6B0A",
"3. c #F66409",
"4. c #E37302",
"5. c #EC7501",
"6. c #E57C03",
"7. c #ED7B00",
"8. c #E57B0C",
"9. c #EC7B0A",
"0. c #E4730A",
"q. c #F37401",
"w. c #FD7302",
"e. c #F37C01",
"r. c #FD7C02",
"t. c #FE730B",
"y. c #FE7C0B",
"u. c #F5780C",
"i. c #E77615",
"p. c #FD7D12",
"a. c #F77716",
"s. c #ED6715",
"d. c #C86727",
"f. c #C97627",
"g. c #D47727",
"h. c #C26F34",
"j. c #D17936",
"k. c #D16828",
"l. c #852A41",
"z. c #853246",
"x. c #BC7648",
"c. c #B7714F",
"v. c #C87A46",
"b. c #D3774B",
"n. c #C57A56",
"m. c #998707",
"M. c #8A8600",
"N. c #B28E0B",
"B. c #9BB005",
"V. c #B6BA03",
"C. c #B1AC0B",
"Z. c #B99736",
"A. c #B5B236",
"S. c #D98619",
"D. c #C18E01",
"F. c #EA8603",
"G. c #F58402",
"H. c #FD8402",
"J. c #F58C02",
"K. c #FD8C02",
"L. c #F3830A",
"P. c #FE840B",
"I. c #F58D0C",
"U. c #FE8C0B",
"Y. c #F59302",
"T. c #FD9303",
"R. c #FD9A02",
"E. c #F6920B",
"W. c #FE930A",
"Q. c #FD9B0A",
"!. c #F49B03",
"~. c #EA8915",
"^. c #FC8512",
"/. c #FB8D13",
"(. c #F98518",
"). c #FE9411",
"_. c #F99917",
"`. c #ED950F",
"'. c #C5B20F",
"]. c #FEA106",
"[. c #FDA41B",
"{. c #FCA718",
"}. c #EEA01A",
"|. c #C98329",
" X c #C4833C",
".X c #D78936",
"XX c #DB9737",
"oX c #D38A2F",
"OX c #E88927",
"+X c #FD8827",
"@X c #EA9426",
"#X c #F99928",
"$X c #E78C36",
"%X c #F99736",
"&X c #EA9836",
"*X c #FDA325",
"=X c #FEAA2D",
"-X c #F9A728",
";X c #FDB427",
":X c #FAA638",
">X c #FDB634",
",X c #FDB53C",
"<X c #FCBC3D",
"1X c #EAAD35",
"2X c #C0A83A",
"3X c #BCC603",
"4X c #A0C118",
"5X c #AAC424",
"6X c #C3CB01",
"7X c #FCC436",
"8X c #B9845A",
"9X c #BC8850",
"0X c #B4B756",
"qX c #B5B869",
"wX c #C58949",
"eX c #CB8555",
"rX c #D0885A",
"tX c #D5904B",
"yX c #EE9643",
"uX c #DCA757",
"iX c #CEA84C",
"pX c #FEA545",
"aX c #FCB747",
"sX c #E7B658",
"dX c #F6B856",
"fX c #EBAE4A",
"gX c #D99967",
"hX c #CD9874",
"jX c #D69779",
"kX c #D28966",
"lX c #D0A370",
"zX c #EBB26A",
"xX c #BED745",
"cX c #C7C346",
"vX c #FBC849",
"bX c #FEC857",
"nX c #F3D256",
"mX c #D9C86E",
"MX c #F8C669",
"NX c #FCD567",
"BX c #FCDA77",
"VX c #EEC060",
"CX c #FFE670",
"ZX c #D9F354",
"AX c #BAB784",
"SX c #CDA885",
"DX c #D8A684",
"FX c #D9B69A",
"GX c #D6A592",
"HX c #DFB6A4",
"JX c #E6C8B1",
"KX c #E8DF9A",
"LX c #E7DCCF",
"PX c #EAE5C9",
"IX c #F2F7EA",
"UX c None",
/* pixels */
"UXUXUXUXUXUXUXUXUXUXUXUXUXUXUXUXUXUXUXUXUXUXUXUXUXUXUXUXUXUXUXUXUXUXUXUXUXUXUXUXUXUXUXUXUXUXUXUXUXUXUXUXUXUXUXUXUXUXUXUXUXUXUXUX",
"UXUXUXUXUXUXUXUXUXUXUXUXUXUXUXUXUXUXUXUXUXUXUXUXUXUXUXUXUXUXUXUXUXUXUXUXUXUXUXUXUXUXUXUXUXUXUXUXUXUXUXUXUXUXUXUXUXUXUXUXUXUXUXUX",
"UXUXUXUXUXUXUXUXUXUXUXUXUXUXUXUXUXUXUXUXUXUXUXUXUXUXUXUXUXUXUXUXUXUXUXUXUXUXUXUXUXUXUXUXUXUXUXUXUXUXUXUXUXUXUXUXUXUXUXUXUXUXUXUX",
"UXUXUXUXUXUXUXUXUXUXUXUXUXUXUXUXUXUXUXUXUXUXUXUXUXUXUXUXUXUXUXUXUXUXUXUXUXUXUXUXUXUXUXUXUXUXUXUXUXUXUXUXUXUXUXUXUXUXUXUXUXUXUXUX",
"UXUXUXUXUXUXUXUXUXUXUXUXUXUXUXUXUXUXUXUXUXUXUXUXUXUXUXUXUXUXUXUXUXUXUXUXUXUXUXUXUXUXUXUXUXUXUXUXUXUXUXUXUXUXUXUXUXUXUXUXUXUXUXUX",
"UXUXUXUXUXUXUXUXUXUXUXUXUXUXUXUXUXUXUXUXUXUXUXUXUXUXUXUXUXUXUXUXUXUXUXUXUXUXUXUXUXUXUXUXUXUXUXUXUXUXUXUXUXUXUXUXUXUXUXUXUXUXUXUX",
"UXUXUXUXUXUXUXUXUXUXUXUXUXUXUXUXUXUXUXUXUXUXUXUXUXUXUXUXUXUXUXUXUXIXPXPXFXqXPXUXUXUXUXUXUXUXUXUXUXUXUXUXUXUXUXUXUXUXUXUXUXUXUXUX",
"UXUXUXUXUXUXUXUXUXUXUXUXUXUXUXUXUXUXUXUXUXUXUXUXUXUXUXUXUXUXUXUXUXAX0XA.B.B.0XUXUXUXUXUXUXUXUXUXUXUXUXUXUXUXUXUXUXUXUXUXUXUXUXUX",
"UXUXUXUXUXUXUXUXUXUXUXUXUXUXUXUXUXUXUXUXUXUXUXUXUXUXUXUXUXUXUXUXPXiXZX4XB.B.9XUXUXUXUXUXUXUXUXUXUXUXUXUXUXUXUXUXUXUXUXUXUXUXUXUX",
"UXUXUXUXUXUXUXUXUXUXUXUXUXUXUXUXUXUXUXUXUXUXUXUXUXUXUXUXUXUXUXUXIXZ.cXcXC.C.0XUXUXUXUXUXUXUXUXUXUXUXUXUXUXUXUXUXUXUXUXUXUXUXUXUX",
"UXUXUXUXUXUXUXUXUXUXUXUXUXUXUXUXUXUXUXUXUXUXUXUXUXUXUXUXHXJXLXUXUX2Xm.m.'.V.zXUXHXFXSXJXUXUXUXUXUXUXUXUXUXUXUXUXUXUXUXUXUXUXUXUX",
"UXUXUXUXUXUXUXUXUXUXUXUXUXUXUXUXUXUXUXUXUXUXUXUXUXSXlXzXsXsXgXgXSXcXm.N.3XV.0XhXyX$X@Xg.b.UXUXUXUXUXUXUXUXUXUXUXUXUXUXUXUXUXUXUX",
"UXUXUXUXUXUXUXUXUXUXUXUXUXUXUXUXUXUXUXUXFXFXFXGX8XMX,X/.^.<.t.~.|.cXm.'.V.3XD.#Xp.;.2.2.R T &.k.f.gXUXUXUXUXUXUXUXUXUXUXUXUXUXUX",
"UXUXUXUXUXUXUXUXUXUXUXUXUXUXUXUXuXtXg.~.#.@.O.E g.$.W :.3.2.:. .mXA.M.'.V.6XC.B J k z l x +.W.Y./.H.,.tXUXUXUXUXUXUXUXUXUXUXUXUX",
"UXUXUXUXUXUXUXUXUXUXUXUXUXUXgXXX`.{.{.T.Q.Q.W.G.O.T ! &.+.E |.mXxXM.C.6X6X6XN.h F ;.3.,.5.....W.U.Y.Q.J.%.DXUXUXUXUXUXUXUXUXUXUX",
"UXUXUXUXUXUXUXUXUXUXUXUXlXXX=XR.U.J.H.T.Q.#. .oX#X_.*X@X~.P iX5XN N N.N.N.N.5 _ :.2.<.q.P.G.=...Y.W.K.T.T.4.gXUXUXUXUXUXUXUXUXUX",
"UXUXUXUXUXUXUXUXUXUXUX9XsX{.K.J.K.R.W.q.o.i.@X].T.U.U.K.T.R.R f m $.x v G 5 D ] } <.<.w.w.P.Y.6.U H.Y.K.U.T.6.gXUXUXUXUXUXUXUXUX",
"UXUXUXUXUXUXUXUXUXUX XMX_.K.K.U.K.E.=.*.@X*X).F.T.U.U.Y.T.%.f.$X).P./.K.H.u.R t ] 3.2.w.G.H.P.T.G.Y ~.T.K.I.W.0.DXUXUXUXUXUXUXUX",
"UXUXUXUXUXUXUXUXUXv.NX(.H.H.W.R.`.U g.[.{.G.U.T.K.J.Q.I....X:XK.H.y.w.r.H.K.L.0.z ] <.<.r.e.P.K.Y.F.Y 9.W.T.Y.T.&.UXUXUXUXUXUXUX",
"UXUXUXUXUXUXUXUXA BX+Xr.G.U.Y.J.G |.>XK.H.P.J.Y.J.Y.y. .&X*X7.r.r.P.P.y.P.G.H.T.;.H s.q.<.t.G.H.K.Q.5.T Y.T.Y.Q.H.|.UXUXUXUXUXUX",
"UXUXUXUXUXUXUXx.BX$X<.K.K.K.U.j g.,XH.K.1XaX;X{.Q.K.T &X[.q.L.y.H.H.H.K.r.P.H.H.G.o.K 2.#XaX>X[.H.^.R.o.Y R.U.H.W.6.DXUXUXUXUXUX",
"UXUXUXUXUXUXn.iXaX2.r.G.Q.T.j h.vXK.P.vXCX,X~.i.#.G fXaXu.y.H.r.y.K.7.K.H.r.r.H.).U.F ! S.OXaXBXvXU.W.Y.T 4.Y.T.T.H.&.UXUXUXUXUX",
"UXUXUXUXUXUXwXNX<.<.H.T.U.v m aXK.t.=XCX0.6 H 7 9 0 B :X:X^.r.K.H.H.K.H.H.K.E.>X`.P 3 . 5 6 j i.CX>XG.Q.0.F Y.Y.W.K.e.DXUXUXUXUX",
"UXUXUXUXUXc.nX$X>.P.G.K.#.5 :X#X<.r.nX$XF ! b   = # . g -XaXp.J.U.P.K.K.K.J.aX1Xc O = z.9 f $.j S.BXE.K.W.F O.W.Y.T.K.A UXUXUXUX",
"UXUXUXUXUX XbX{ w.G.H.E.8 &.pXq.<.=XfXv T x O = - w e 4 Y bX/.G.K.H.K.y.H.}.bX$.4 q X e & O h +.v fX>XJ.W.o.c K.T.K.W.@.UXUXUXUX",
"UXUXUXUXhXuX#X<.y.e.W...j yX+X5.r.*XoXv T 3 % # % e O @ 5 -X*Xr.K.K.Y.K.H.=XaXz 9 e # o e & 3 ~ G S.;XK.K.E.k @.T.K.K.6.jXUXUXUX",
"UXUXUXUXv.MX:.t.y.H.K.k *.pX<.e.e.K.I Q X.< & ; & + - = < @X;Xr.^.K.Y.Y.G.=X1X5 w o # + o * 3 X.Q U E.U.K.R.T v T.K.K.J.wXUXUXUX",
"UXUXUXUX XdX{ y.r.W.@.5 &X(.>.w.P.e.Q a.r.%.3 # & * & O 7 ~.{.y.G.K.T.K.H.*X:X< 9 * ; & O < Y y.a.E G.W.T.K.0.g J.T.K.K.f.UXUXUX",
"UXUXUXUXuX#X<.r.G.K.Y n :X<.<.w.q.U...X.y.w.-.T h b g G c OX{.G.W./.H.K.H._.-Xx c x 5 h T 0.H.r.X.4./.T.K.U.J.j 5.W.K.K.&.UXUXUX",
"UXUXUXjXsXa.<.y.H.K.j h.%X>.t.w.P.P.G.I E P.H.H.r.e.H.,.k (.!.U.L.G.K.(.U.].J.S 0.P.r.r.y.U.u.O.I q.K.Y.K.).Y.z O.R.K.T.@.UXUXUX",
"UXUXUXkXsXr.2.y.T.G.5 $Xa.{ t.w.P.q.R.I.z l Y ;.2.=.I R +.Q.{.i.X.7.W.=.@.E.[.#.P E =.-.;.=.R I 0.U.K.T.T.K.R.F E Q.K.K.8.UXUXUX",
"UXUXUXrXsXr.t.H.R.5.g yX2.2.<.q.q.K.K.I.v j.g.P U +.tX#X=X<X&.;.q.5.L.-.5.Q :X7X-X@Xd. .+.z 6 u.H.H.U.K.K.K.!.E I Y.T.W.9.UXUXUX",
"UXUXUXn.dXw.y.H.W.4.m %X>.>.<.w.L.r.T.L.g zX,X,XbX7X=X#XnX#.R 0.j ! 6.3 +.,.x aX7X>XbXnXvXS.k s.;.] @.T.K.T.).o.F W.K.K.L.UXUXUX",
"UXUXUXn.fXq.H.H.W...n %X>.>.t.w.4.L I H x vX[.q.^.y.e.:XbXF Q c > ! q.% e ] S XXbXJ.H.W.T.-.j < 0 8 i %.Y.K.T.O.P Y.K.T.8.UXUXUX",
"UXUXUXrXdXG.H.H.R.E m %X{ <.w.5.z p u 4 r .X^.q.G.H.H.(.dX@XP 4 : Y q.0 > g &.aX*XK.T.W.0.n 0 + $ 7 K ~ R.K.W.O.P R.U.T.8.UXUXUX",
"UXUXUXkXbXP.H.K.R.Y V %X>.>.2.=.S ^ n ; % 0 8 O.G.G.K.r.K.>X%X$.j #.I.Y ! S.,X*XY.T.9.v 3 O * % $ 6 ( F Y.K.R...Y R.U.K.#.UXUXUX",
"UXUXUXhXzX_.H.U.T.E V %X{ 2.t.W p ( 7 $ O @ O 1 b Q q.K.G.I.U.T.W.K.T.K.H.].E.F.&.T 7 0 o e e = 2 a s Y W.W.T.Y ..R.U.K.|.UXUXUX",
"UXUXUXDXuX=XH.T.R.X.m %X>.2.t.=.u K 5 0 % ; ; ; X * 3 h ! %.;.F.L.G.G.L.8.@.T h 2 w $ $ X = 0 9 z / y 6.K.K.Y.P 5.R.K.W.wXUXUXUX",
"UXUXUXUXwX<XH.T.T.O.b %X>.1.t.q.F J K 5 9 q & # 2 q l.$ 9 . r 3 3 7 f r 3 . w * + @ @ q q 1 < S _ J ..U.P.T.Y.P F.T.Y.6.DXUXUXUX",
"UXUXUXUX9XbXH.Y.W.5.h %X<.>.<.r.s.t K H S 5 0 o , + w @ 0 ; ; = ; o $ , % @ e + w l.@ # 0 8 J _ p S q.H.U.T.6.P K.T.T.o.UXUXUXUX",
"UXUXUXUXb.NX_.G.W.J.5 OXa.>.<.e.H...S ` ` ^ 6 3 e = = % = ; @ 9 + @ @ @ o @ - - & # 2 5 J s ' J S ;.p.G.K.T.%...R.W.P.j.UXUXUXUX",
"UXUXUXUXjXsX>XG.T.Y.F $X+X{ <.w.r.K.W u J ) | D 5 3 2 o = = e w @ o - q & & & - # < S L / ` p y ] w.w.r.K.P.I F.Y.T.0.lXUXUXUXUX",
"UXUXUXUXUXwXNXH.K.W.I k.%X>.<.w.r.U.H.@.t i ` / ' y 6 8 3 1 # o o * X + 0 4 < 5 t / d ) ( J D ( <.w.w.r.K.i. .J.W.K.$.UXUXUXUXUX",
"UXUXUXUXUXn.VX{.r.Q.o.m :X<.<.w.r.P.T.T.8.I i / ' ` / ( i H 8 5 6 8 5 c c S K ^ _ ` ` K H 6 L 1.>.<.w.t.H.T 8.T.T.4.hXUXUXUXUXUX",
"UXUXUXUXUXSXwXvXY.K.F.x pXp.2.r.y.H.K.Y.Q...n G i _ ` / ' / ) / ( ( ^ / / / ` _ ( _ p S j H } [ { 2.q.y.q.P F.W.T.$.UXUXUXUXUXUX",
"UXUXUXUXUXUXc.dX;XK.Y.v .X%X>.q.r.H.K.W.T.u.! uXk.y ^ ^ ) ^ ^ s K ^ / / / / _ / K u u O.U L [ { { ,.w.r.Q O.W.T.o.jXUXUXUXUXUXUX",
"UXUXUXUXUXUXUXZ VX-X).0.d.dXt.t.r.K.H.K.J.U.Y uXNX .y y i L ^ ' d ` _ _ ( J J i z ..5.u.J ' [ [ 1.>.<.W P Y.).6.Z UXUXUXUXUXUXUX",
"UXUXUXUXUXUXUXUXc.oX(.-.z fX/.<.e.P.H.T.Y.T.7.M NXpX] ;.I S D i J i i y y D R Q a.w.r.X.i } } } } >.<.G 8.].F.x UXUXUXUXUXUXUXUX",
"UXUXUXUXUXUXUXUXUXUXh.Z C g.aX<.r.H.K.Y.K.K.).v .XNX+X>.q.<.=.Q Q R E W X.i.y.w.q.r.u.I } [ } [ { 1.L X.I.=.l UXUXUXUXUXUXUXUXUX",
"UXUXUXUXUXUXUXUXUXUXUXUXUX9X&X#Xt.H.J.W.W.K.W.5.! zXaX>.>.t.q.y.r.y.w.w.w.w.t.w.2.<.W L [ [ ' } 1.Q 5 M  .x.UXUXUXUXUXUXUXUXUXUX",
"UXUXUXUXUXUXUXUXUXUXUXUXUXUXk.#X(.e.K.T.Y.T.J.).U h.BXOX1.,.<.,.<.<.<.<.w.w.,.<.<.2.] ) [ [ [ } s b.UXUXUXUXUXUXUXUXUXUXUXUXUXUX",
"UXUXUXUXUXUXUXUXUXUXUXUXUXUXUXB -X_.H.U.H.K.W.W.I.t uXMX1.>.:.2.2.<.<.<.<.<.t.q.e.Y | } { } [ y x.UXUXUXUXUXUXUXUXUXUXUXUXUXUXUX",
"UXUXUXUXUXUXUXUXUXUXUXUXUXUXUXUXV $XQ.R.R.T.T.K.R.9.c dXaXs.1.,.:.>.<.<.>.>.>.<.] H s d K D m UXUXUXUXUXUXUXUXUXUXUXUXUXUXUXUXUX",
"UXUXUXUXUXUXUXUXUXUXUXUXUXUXUXUXUX8Xf.#.6.G.7.e.@. .8 ! dX%X[ { >.{ >.1.>.<.1.] gXUXkXn.8XUXUXUXUXUXUXUXUXUXUXUXUXUXUXUXUXUXUXUX",
"UXUXUXUXUXUXUXUXUXUXUXUXUXUXUXUXUXUXUXUXjXrXrXrXkXDXUXFXn &X+X[ [ <.:.:.1.) k.UXUXUXUXUXUXUXUXUXUXUXUXUXUXUXUXUXUXUXUXUXUXUXUXUX",
"UXUXUXUXUXUXUXUXUXUXUXUXUXUXUXUXUXUXUXUXUXUXUXUXUXUXUXUXUXV d.s.| ) [ ( G b.UXUXUXUXUXUXUXUXUXUXUXUXUXUXUXUXUXUXUXUXUXUXUXUXUXUX",
"UXUXUXUXUXUXUXUXUXUXUXUXUXUXUXUXUXUXUXUXUXUXUXUXUXUXUXUXUXUXGXc.Z Z v.hXUXUXUXUXUXUXUXUXUXUXUXUXUXUXUXUXUXUXUXUXUXUXUXUXUXUXUXUX",
"UXUXUXUXUXUXUXUXUXUXUXUXUXUXUXUXUXUXUXUXUXUXUXUXUXUXUXUXUXUXUXUXUXUXUXUXUXUXUXUXUXUXUXUXUXUXUXUXUXUXUXUXUXUXUXUXUXUXUXUXUXUXUXUX",
"UXUXUXUXUXUXUXUXUXUXUXUXUXUXUXUXUXUXUXUXUXUXUXUXUXUXUXUXUXUXUXUXUXUXUXUXUXUXUXUXUXUXUXUXUXUXUXUXUXUXUXUXUXUXUXUXUXUXUXUXUXUXUXUX",
"UXUXUXUXUXUXUXUXUXUXUXUXUXUXUXUXUXUXUXUXUXUXUXUXUXUXUXUXUXUXUXUXUXUXUXUXUXUXUXUXUXUXUXUXUXUXUXUXUXUXUXUXUXUXUXUXUXUXUXUXUXUXUXUX",
"UXUXUXUXUXUXUXUXUXUXUXUXUXUXUXUXUXUXUXUXUXUXUXUXUXUXUXUXUXUXUXUXUXUXUXUXUXUXUXUXUXUXUXUXUXUXUXUXUXUXUXUXUXUXUXUXUXUXUXUXUXUXUXUX",
"UXUXUXUXUXUXUXUXUXUXUXUXUXUXUXUXUXUXUXUXUXUXUXUXUXUXUXUXUXUXUXUXUXUXUXUXUXUXUXUXUXUXUXUXUXUXUXUXUXUXUXUXUXUXUXUXUXUXUXUXUXUXUXUX",
"UXUXUXUXUXUXUXUXUXUXUXUXUXUXUXUXUXUXUXUXUXUXUXUXUXUXUXUXUXUXUXUXUXUXUXUXUXUXUXUXUXUXUXUXUXUXUXUXUXUXUXUXUXUXUXUXUXUXUXUXUXUXUXUX",
"UXUXUXUXUXUXUXUXUXUXUXUXUXUXUXUXUXUXUXUXUXUXUXUXUXUXUXUXUXUXUXUXUXUXUXUXUXUXUXUXUXUXUXUXUXUXUXUXUXUXUXUXUXUXUXUXUXUXUXUXUXUXUXUX"
};
