/* XPM */
static char *result[] = {
/* columns rows colors chars-per-pixel */
"64 64 251 2 ",
"   c #9A1D00",
".  c #A31E00",
"X  c #962401",
"o  c #9B2501",
"O  c #9C2B01",
"+  c #9B250A",
"@  c #972C03",
"#  c #9B3405",
"$  c #962A08",
"%  c #A42603",
"&  c #A32C01",
"*  c #AA2C03",
"=  c #A62806",
"-  c #A43202",
";  c #AC3402",
":  c #A53A03",
">  c #AD3B03",
",  c #A8390C",
"<  c #B43502",
"1  c #B53C02",
"2  c #B93C03",
"3  c #B83605",
"4  c #B1360E",
"5  c #A83E23",
"6  c #C53903",
"7  c #D23C03",
"8  c #C02D02",
"9  c #E93D02",
"0  c #9F411B",
"q  c #AA4405",
"w  c #B54302",
"e  c #BB4705",
"r  c #BE5900",
"t  c #B95402",
"y  c #AB441B",
"u  c #A94317",
"i  c #B3471A",
"p  c #A9570B",
"a  c #B34B22",
"s  c #B34B2E",
"d  c #BC562C",
"f  c #B75A37",
"g  c #AA5126",
"h  c #B86637",
"j  c #CA4501",
"k  c #C54907",
"l  c #D24C03",
"z  c #D74605",
"x  c #CB5C02",
"c  c #C75301",
"v  c #D45A04",
"b  c #DC5C00",
"n  c #D85604",
"m  c #E44503",
"M  c #EA4403",
"N  c #E44C01",
"B  c #EB4B01",
"V  c #EC4C0A",
"C  c #E8440A",
"Z  c #F44804",
"A  c #EC5402",
"S  c #E55C03",
"D  c #EC5D04",
"F  c #E75507",
"G  c #F35B02",
"H  c #F3530A",
"J  c #F35B0B",
"K  c #F65705",
"L  c #E54412",
"P  c #F55112",
"I  c #CC6400",
"U  c #C86803",
"Y  c #DA6303",
"T  c #D36C01",
"R  c #D56704",
"E  c #CA7204",
"W  c #DA7502",
"Q  c #DB7C03",
"!  c #D77808",
"~  c #D46611",
"^  c #E56400",
"/  c #EB6402",
"(  c #E36B04",
")  c #ED6C01",
"_  c #EA6709",
"`  c #F36402",
"'  c #FB6301",
"]  c #F46D02",
"[  c #FC6E03",
"{  c #F66A09",
"}  c #E47402",
"|  c #ED7301",
" . c #E47B03",
".. c #ED7B02",
"X. c #EC780B",
"o. c #F47302",
"O. c #FA7303",
"+. c #F47B03",
"@. c #FB7C02",
"#. c #F5730A",
"$. c #FB740B",
"%. c #F57B0A",
"&. c #F97C0A",
"*. c #E67815",
"=. c #F37910",
"-. c #F56212",
";. c #C0633A",
":. c #B15D43",
">. c #B96447",
",. c #BA7155",
"<. c #BD7962",
"1. c #C25F40",
"2. c #C36A49",
"3. c #C4775B",
"4. c #C0724B",
"5. c #C57D63",
"6. c #D17966",
"7. c #CA8202",
"8. c #DE8402",
"9. c #DE8C02",
"0. c #D78405",
"q. c #DD9904",
"w. c #D49015",
"e. c #E38304",
"r. c #EB8401",
"t. c #E38C02",
"y. c #EC8A02",
"u. c #E8830B",
"i. c #F48402",
"p. c #FB8302",
"a. c #F48D02",
"s. c #FB8C03",
"d. c #F3850C",
"f. c #FD820A",
"g. c #F48D0B",
"h. c #FC8A0D",
"j. c #EB9502",
"k. c #EC9C02",
"l. c #E79707",
"z. c #F49302",
"x. c #FB9403",
"c. c #F49B01",
"v. c #FD9C03",
"b. c #F4930B",
"n. c #F9930B",
"m. c #FB9C0A",
"M. c #F0990B",
"N. c #F38713",
"B. c #E99916",
"V. c #EA8F13",
"C. c #DDA213",
"Z. c #E5A601",
"A. c #EBA302",
"S. c #ECAC01",
"D. c #EDA209",
"F. c #E8A80A",
"G. c #F4A401",
"H. c #FCA302",
"J. c #F5AA02",
"K. c #FCAC02",
"L. c #FCA30A",
"P. c #FCAC0A",
"I. c #F4A60C",
"U. c #EDB501",
"Y. c #EEBD00",
"T. c #EDB509",
"R. c #E7B706",
"E. c #F3B501",
"W. c #FBB303",
"Q. c #F5BB01",
"!. c #FBBB02",
"~. c #FCB30A",
"^. c #F5BB0A",
"/. c #F6B60A",
"(. c #FBAA13",
"). c #E9B719",
"_. c #F6BD18",
"`. c #EAA01D",
"'. c #E99627",
"]. c #DAA72A",
"[. c #E5AB25",
"{. c #E9B723",
"}. c #F5B827",
"|. c #E4B83F",
" X c #E9AF32",
".X c #EDC805",
"XX c #F4C401",
"oX c #FBC205",
"OX c #F4CB02",
"+X c #FBCC02",
"@X c #FBC70C",
"#X c #F6D502",
"$X c #FCD604",
"%X c #F7D907",
"&X c #F6CB15",
"*X c #F7E304",
"=X c #FCFE03",
"-X c #FCF806",
";X c #F8E917",
":X c #FAFE18",
">X c #EEFF03",
",X c #F2C72A",
"<X c #FEDB2A",
"1X c #F5D93B",
"2X c #EFCD35",
"3X c #FCFC27",
"4X c #F7E63A",
"5X c #FCFE35",
"6X c #F6FF30",
"7X c #F2E42B",
"8X c #D6805F",
"9X c #E8B046",
"0X c #C6876A",
"qX c #CD9275",
"wX c #F3C649",
"eX c #F3D548",
"rX c #F5D75A",
"tX c #FDFC4B",
"yX c #F7FF4D",
"uX c #FBFC54",
"iX c #F2E957",
"pX c #EFCF6E",
"aX c #FAFF6A",
"sX c #F7E978",
"dX c #FAF677",
"fX c #F0E86C",
"gX c #F2DC87",
"hX c #F9E785",
"jX c #FBFB88",
"kX c #F8E697",
"lX c #FDFE95",
"zX c #FAFB99",
"xX c #F1DBAF",
"cX c #F9EEA8",
"vX c #FCF9AA",
"bX c #FEFFB4",
"nX c #FBFFBC",
"mX c #F7F3B6",
"MX c #FDE8BB",
"NX c #FCFBC6",
"BX c #FDFED2",
"VX c #FDFDDB",
"CX c #F7F8D9",
"ZX c #EEFED1",
"AX c #FEFEE3",
"SX c #FDFDEB",
"DX c #F8F9E7",
"FX c #FDFEF3",
"GX c #FEFEFC",
"HX c #FAFAF5",
"JX c None",
/* pixels */
"JXJXJXJXJXJXJXJXJXJXJXJXJXJXJXJXJXJXJXJXJXJXJXJXJXJXJXJXJXJXJXJXJXJXJXJXJXJXJXJXJXJXJXJXJXJXJXJXJXJXJXJXJXJXJXJXJXJXJXJXJXJXJXJX",
"JXJXJXJXJXJXJXJXJXJXJXJXJXJXJXJXJXJXJXJXJXJXJXJXJXJXJXJXJXJXJXJXJXJXJXJXJXJXJXJXJXJXJXJXJXJXJXJXJXJXJXJXJXJXJXJXJXJXJXJXJXJXJXJX",
"JXJXJXJXJXJXJXJXJXJXJXJXJXJXJXJXJXJXJXJXJXJXJXJXJXJXJXJXJXJXJXJXJXJXJXJXJXJXJXJXJXJXJXJXJXJXJXJXJXJXJXJXJXJXJXJXJXJXJXJXJXJXJXJX",
"JXJXJXJXJXJXJXJXJXJXJXJXJXJXJXJXJXJXJXJXJXJXJXJXJXJXJXJXJXJXJXJXJXJXJXJXJXJXJXJXJXJXJXJXJXJXJXJXJXJXJXJXJXJXJXJXJXJXJXJXJXJXJXJX",
"JXJXJXJXJXJXJXJXJXJXJXJXJXJXJXJXJXJXJXJXJXJXJXJXJXJXJXJXJXJXJXJXJXJXJXJXJXJXJXJXJXJXJXJXJXJXJXJXJXJXJXJXJXJXJXJXJXJXJXJXJXJXJXJX",
"JXJXJXJXJXJXJXJXJXJXJXJXJXJXJXJXJXJXJXJXJXJXJXJXJXJXJXJXJXJXJXJXJXJXJXJXJXJXJXJXJXJXJXJXJXJXJXJXJXJXJXJXJXJXJXJXJXJXJXJXJXJXJXJX",
"JXJXJXJXJXJXJXJXJXJXJXJXJXJXJXJXJXJXJXJXJXJXJXJXJXJXJXJXJXJXJXJXJXJXJXJXJXJXJXJXJXJXJXJXJXJXJXJXJXJXJXJXJXJXJXJXJXJXJXJXJXJXJXJX",
"JXJXJXJXJXJXJXJXJXJXJXJXJXJXJXJXJXJXJXJXJXJXJXJXJXJXJXJXJXJXJXJXJXJXJXJXJXJXJXJXJXJXJXJXJXJXJXJXJXJXJXJXJXJXJXJXJXJXJXJXJXJXJXJX",
"JXJXJXJXJXJXJXJXJXJXJXJXJXJXJXJXJXJXJXJXJXJXJXJXJXJXJXJXJXJXJXJXJXJXJXJXJXJXJXJXJXJXJXJXJXJXJXJXJXJXJXJXJXJXJXJXJXJXJXJXJXJXJXJX",
"JXJXJXJXJXJXJXJXJXJXJXJXJXJXJXJXJXJXJXJXJXJXJXJXJXJXJXJXJXJXJXJXJXJXJXJXJXJXJXJXJXJXJXJXJXJXJXJXJXJXJXJXJXJXJXJXJXJXJXJXJXJXJXJX",
"JXJXJXJXJXJXJXJXJXJXJXJXJXJXJXJXJXJXJXJXJXJXJXJXJXJXJXJXJXJXJXJXJXJXJXJXJXJXJXJXJXJXJXJXJXJXJXJXJXJXJXJXJXJXJXJXJXJXJXJXJXJXJXJX",
"JXJXJXJXJXJXJXJXJXJXJXJXJXJXJXJXJXJXJXJXJXJXJXJXJXJXJXJXJXJXJXJXJXJXJXJXJXJXJXJXJXJXJXJXJXJXJXJXJXJXJXJXJXJXJXJXJXJXJXJXJXJXJXJX",
"JXJXJXJXJXJXJXJXJXJXJXJXJXJXJXJXJXJXJXJXJXJXJXJXJXJXJXJXJXJXJXJX> - d JXJXJXJXJXJXJXJXJXJXJXJXJXJXJXJXJXJXJXJXJXJXJXJXJXJXJXJXJX",
"JXJXJXJXJXJXJXJXJXJXJXJXJXJXJXJXJXJXJXJXJXJXJXJXJXJXJXJXJXJXJX4 & : & % s JXJXJXJXJXJXJXJXJXJXJXJXJXJXJXJXJXJXJXJXJXJXJXJXJXJXJX",
"JXJXJXJXJXJXJXJXJXJXJXJXJXJXJXJXJXJXJXJXJXJXJXJXJXJXJXJXJXJXJX5 8 L 7 k ; $ JXJXJXJXJXJXJXJXJXJXJXJXJXJXJXJXJXJXJXJXJXJXJXJXJXJX",
"JXJXJXJXJXJXJXJXJXJXJXJXJXJXJXJXJXJXJXJXJXJXJXJXJXJXJXJXJXJXJX>.< V K +.} v , JXJXJXJXJXJXJXJXJXJXJXJXJXJXJXJXJXJXJXJXJXJXJXJXJX",
"JXJXJXJXJXJXJXJXJXJXJXJXJXJXJXJXJXJXJXJXJXJXJXJXJXJXJXJXJXJXJXJX1 m G %.&.&.c @ JXJXJXJXJXJXJXJXJXJXJXJXJXJXJXJXJXJXJXJXJXJXJXJX",
"JXJXJXJXJXJXJXJXJXJXJXJXJXJXJXJXJXJXJXJXJXJXJXJXJXJXJXJXJXJXJXJX, 9 J  .v < # 6.JXJXJXJXJXJXJXJXJXJXJXJXJXJXJXJXJXJXJXJXJXJXJXJX",
"JXJXJXJXJXJXJXJXJXJXJXJXJXJX0X>.a a a a d ;.0XJXJXJXJXJXJXJXJXJX# z F e @ 2.JXJXJXJXJXJXJXJXJXJXJXJXJXJXJXJXJXJXJXJXJXJXJXJXJXJX",
"JXJXJXJXJXJXJXJXJXJXJXJXg : X + > > ; 1 3 3 < 6 w d qXJXJXJXJXJX& z z u JXJXJXJXJXJXJXJXJXJXJXJXJXJXJXJXJXJXJXJXJXJXJXJXJXJXJXJX",
"JXJXJXJXJXJXJXJXJXJXs O - < l V V H G D K J n z 6 6 - # 6.JXJXu % D w JXJXJXJXJXJX3.a u q ; , y >.JXJXJXJXJXJXJXJXJXJXJXJXJXJXJX",
"JXJXJXJXJXJXJXJXJX+ - j N Z Z B / o.p.a.v.H.m.p.f.) n 6 % X X - j { q JXJXJX,., w v ( | | %.} Y c ; O :.JXJXJXJXJXJXJXJXJXJXJXJX",
"JXJXJXJXJXJXJXJXO k V Z Z M N =.A.!.%X$XXXXX#X*XXX~.m.@.` v z N ] %.< & : O j } a.L.P.H.v.c.c.x.s.| _ 7 * f JXJXJXJXJXJXJXJXJXJX",
"JXJXJXJXJXJXJX@ l -.B z C M p.K.!.E.Z._.F.@XQ.#X$X!.Q.G.x.i.&...i.o.Y e k X.h.m.H.W.Q.XX!.K.c.x.s.i.i.#./ 2 # JXJXJXJXJXJXJXJXJX",
"JXJXJXJXJXJXy v +.H M M m _ W.E.j.F.{.iXlXMX4Xc.%X&XW.K.x.i.d.( I r R %.p.x.a.L.H.A.Z.c.OX@X^.v.x.p.+...+.O.n % >.JXJXJXJXJXJXJX",
"JXJXJXJXJX0Xw =.S V Z B B H.c.E 9.wXdXzX4X1XnX_.Z.@XE.K.x.@.s.a.&.p.p.O.h.s.H.k.t._.rX<XY.E.oXT.c.a.p.o.o.$.&.Y # f JXJXJXJXJXJX",
"JXJXJXJXJX: r.#.G S C Z o.K.t.8.Z.).T.&X*X*XNXMXt.!.Q.A.n.i.i...i.+.#.+.s.a.n.} ).gXfXNXhX&XA.oXK.z.f.#.$.] ) &.R & ,.JXJXJXJXJX",
"JXJXJXJX0Xl x.` G b l m j.J.~.P.~.!.+XoX$X&X9XxX9Xt.^.c.n.a.p.m.a.i.+.i.a.g.! B.ZXkXE.hXGXmXwXl.J.z.i.#.o.o.O.] @.n X JXJXJXJXJX",
"JXJXJXJXg @.a.J / N Y _ t.H.W.K./.!.XX@X+X+XXXS.w.Q b.H.a.s.h. .m.s.i.@.p.i.E pXxX{.@XOXD.{.}.Q e.b.p.o.#.| o.[ #.o.k , JXJXJXJX",
"JXJXJXJXi z.N.G D D / a. . .g.K.~.J.!.Q.!.!.XX!.K.j.k.J.c.z... .0.v.p.s.d.T ! V.c.G.E.^.W.E.F.c.g.y.p.O.] | f.+.] o.^ O 5.JXJXJX",
"JXJXJXJXw W.) ' -.G m g.v.j.e.Q j.K.~.E.^.W.K.W.W.P.K.G.H.b.l.S.g.y.x.v.k.t.c.v.L.W.~.K.H.K.c.v.a.i...| f.h.} x #.o.+.j y JXJXJX",
"JXJXJX5.t J.$.] ^ A A v e.j.k.j.E H.A.P.W./.^.!.Q.W.L.J.K.a.8.Z.W l.J.c.L.H.L.J.S.P.G.P.H.v.n.g.h.a.y.h.}  .I ~ +.o.#.S , JXJXJX",
"JXJXJXf c (.] ] ` S P b 7.=XR.9.W 0.P.H.J.Q.A.G.H.K.E.W.!.W.W.W.E.~.~.K.J.J.c.I.H.J.K.L.G.I.k.b.j.e.u.r.v.b.R u.O.$.[ ..& qXJXJX",
"JXJXJXf r L.o.] ' F A ` E =X=X=XOXT K.L.P.M.u.j.A.Z.U.Q.XXXXQ.E.!.!.Q.Q.W.K.P.P.L.G.c.H.c.G.y.q.Z.P.A.q.j.( ..p.O.o.$...* 0XJXJX",
"JXJXJXs t ~.#.] G D A ` 0..X>X=X=XB.0.^.!.j.j._.P.~.oX+X#X%X%X$X$XXXXXQ.(.J.c.l.I.K.L.s.v.(.I t.D.S..X.Xp W d.[ o.o.#.%.3 5.JXJX",
"JXJXJXd q W.o.{ G / V _ V.J.=X-X-X>X7.j.@XG.t.hXcXkXsXrX4X;X;X-X-X-X%X*XOXT.U.J.a.J.c.c.G.@.M.4X*X*X=XR.x s.o.[ o.O.] @.7 0XJXJX",
"JXJXJXf q J.O.] ' G H F m.r.&X=X-X3X;X7.~.A.`.lXZXBXSXSXSXSXDXDXHXCXDXCXDXSXpXY.M.H.G.G.H.! 7X6X3X=X&XU p.+.#.] o.o.] o.j qXJXJX",
"JXJXJX<.: g.s.` ' J N A z.A.e.*X=X:X5X4XC.9.[.zXNXBXVXSXFXGXGXGXGXGXGXGXSXSXCX).j.m./.v.} ,XyX3X:X*XI ....o.| O.o.[ O.o.k JXJXJX",
"JXJXJXJX- ! v.) / A D B } E.g.! .X:X3X5XuX{.).zXNXNXVXSXSXFXGXGXHXGXFXGXFXSXHX|.c.H.z.t.2XuXtX5X;X7.#.@.{ [ ) ] o.O.o.$.d JXJXJX",
"JXJXJXJX= t z.#.{ G H N G L.K.r.I 9.;XtXuXaXsXjXnXNXBXVXSXSXFXFXHXGXSXFXDXAXCXpXe.l. XfXaXuX5X;XQ #.%.) $.o.#.$.o.| &.b 8XJXJXJX",
"JXJXJXJX4.o e.f.` J -.B A i.G.J.a.T U B.<XyXdXlXnXnXBXBXDXSXAXSXDXHXSXSXSXVXNXgX9XsXlXdXuXtX2X! o.@.O.o.] [ o.o.O.| ..e JXJXJXJX",
"JXJXJXJXJXO k +.] D N V C S H.v.J.G.X.! T B.}.wXpXhXcXmXmXCXSXHXGXGXHXAXCXAXVXnXbXzXjXaXiX].W @.+.+.( #.#.| o.#.[ $.l JXJXJXJXJX",
"JXJXJXJXJXJX  x +.' H A Z M d.G.n.j.G.z.r. .! 8.A.E._.,X2X1XeXeXeXeXpXpXkXmXbXvXlXsXeX X! Y @.r.+.] o.o.o.O.O.o.$.S i JXJXJXJXJX",
"JXJXJXJXJXJXh X v } G Z N m A a.H.m.e.c.G.m.j.t.t.k.E.oX#X#X$X$X@XXXQ.!.T.`.'.'.C.9.W I ) p.@.X.[ o.[ o.+.] ] %.b - JXJXJXJXJXJX",
"JXJXJXJXJXJXJX>.  c _ V N M 9 ` x.m.j.T b.L.H.v.v.M.j.t.l.D.D.k.l.k.j.a.y.r. .i.X.} ..d.i...o.] [ o.#.] [ O.*.l : JXJXJXJXJXJXJX",
"JXJXJXJXJXJXJXJX3.o 3 F B M M m D x.H.j.U u.n.v.c.v.c.c.H.v.b.L.L.c.x.z.z.n.a.a.&.%.+.| ) _ o.#.o.[ @.o.$.S 2 & JXJXJXJXJXJXJXJX",
"JXJXJXJXJXJXJXJXJXJXy O 2 z H C N F p.v.y.E E c.x.a.z.s.s.n.} r.a.a.s.s.i.p.i.%.+.@.) b ( $.$.) O.o.#.F e # 5 JXJXJXJXJXJXJXJXJX",
"JXJXJXJXJXJXJXJXJXJXJXJXu - ; 6 m M A O.x.c.Q R r.g.s.a.i.n.I ! h.p.p.&.o.@.O.[ ] x r ( $.[ o.@.| l 1 # # JXJXJXJXJXJXJXJXJXJXJX",
"JXJXJXJXJXJXJXJXJXJXJXJXJXJX>.5 - * 8 7 b %.h.X.T T r.d.i.=.I x ..| ..| o.X.} Y t c ( o.) Y k ; & = s JXJXJXJXJXJXJXJXJXJXJXJXJX",
"JXJXJXJXJXJXJXJXJXJXJXJXJXJXJXJXJX3.f u +   & < u ; w w 1 e > 4 < 1 < < w w 1 ; 2 3 3 =   $ y ;.JXJXJXJXJXJXJXJXJXJXJXJXJXJXJXJX",
"JXJXJXJXJXJXJXJXJXJXJXJXJXJXJXJXJXJXJXJXJXJXJX5.1.f i , - O O o + + o o o O , , i f 2.qXJXJXJXJXJXJXJXJXJXJXJXJXJXJXJXJXJXJXJXJX",
"JXJXJXJXJXJXJXJXJXJXJXJXJXJXJXJXJXJXJXJXJXJXJXJXJXJXJXJXJXJXJXJXJXJXJXJXJXJXJXJXJXJXJXJXJXJXJXJXJXJXJXJXJXJXJXJXJXJXJXJXJXJXJXJX",
"JXJXJXJXJXJXJXJXJXJXJXJXJXJXJXJXJXJXJXJXJXJXJXJXJXJXJXJXJXJXJXJXJXJXJXJXJXJXJXJXJXJXJXJXJXJXJXJXJXJXJXJXJXJXJXJXJXJXJXJXJXJXJXJX",
"JXJXJXJXJXJXJXJXJXJXJXJXJXJXJXJXJXJXJXJXJXJXJXJXJXJXJXJXJXJXJXJXJXJXJXJXJXJXJXJXJXJXJXJXJXJXJXJXJXJXJXJXJXJXJXJXJXJXJXJXJXJXJXJX",
"JXJXJXJXJXJXJXJXJXJXJXJXJXJXJXJXJXJXJXJXJXJXJXJXJXJXJXJXJXJXJXJXJXJXJXJXJXJXJXJXJXJXJXJXJXJXJXJXJXJXJXJXJXJXJXJXJXJXJXJXJXJXJXJX",
"JXJXJXJXJXJXJXJXJXJXJXJXJXJXJXJXJXJXJXJXJXJXJXJXJXJXJXJXJXJXJXJXJXJXJXJXJXJXJXJXJXJXJXJXJXJXJXJXJXJXJXJXJXJXJXJXJXJXJXJXJXJXJXJX",
"JXJXJXJXJXJXJXJXJXJXJXJXJXJXJXJXJXJXJXJXJXJXJXJXJXJXJXJXJXJXJXJXJXJXJXJXJXJXJXJXJXJXJXJXJXJXJXJXJXJXJXJXJXJXJXJXJXJXJXJXJXJXJXJX",
"JXJXJXJXJXJXJXJXJXJXJXJXJXJXJXJXJXJXJXJXJXJXJXJXJXJXJXJXJXJXJXJXJXJXJXJXJXJXJXJXJXJXJXJXJXJXJXJXJXJXJXJXJXJXJXJXJXJXJXJXJXJXJXJX",
"JXJXJXJXJXJXJXJXJXJXJXJXJXJXJXJXJXJXJXJXJXJXJXJXJXJXJXJXJXJXJXJXJXJXJXJXJXJXJXJXJXJXJXJXJXJXJXJXJXJXJXJXJXJXJXJXJXJXJXJXJXJXJXJX",
"JXJXJXJXJXJXJXJXJXJXJXJXJXJXJXJXJXJXJXJXJXJXJXJXJXJXJXJXJXJXJXJXJXJXJXJXJXJXJXJXJXJXJXJXJXJXJXJXJXJXJXJXJXJXJXJXJXJXJXJXJXJXJXJX",
"JXJXJXJXJXJXJXJXJXJXJXJXJXJXJXJXJXJXJXJXJXJXJXJXJXJXJXJXJXJXJXJXJXJXJXJXJXJXJXJXJXJXJXJXJXJXJXJXJXJXJXJXJXJXJXJXJXJXJXJXJXJXJXJX",
"JXJXJXJXJXJXJXJXJXJXJXJXJXJXJXJXJXJXJXJXJXJXJXJXJXJXJXJXJXJXJXJXJXJXJXJXJXJXJXJXJXJXJXJXJXJXJXJXJXJXJXJXJXJXJXJXJXJXJXJXJXJXJXJX",
"JXJXJXJXJXJXJXJXJXJXJXJXJXJXJXJXJXJXJXJXJXJXJXJXJXJXJXJXJXJXJXJXJXJXJXJXJXJXJXJXJXJXJXJXJXJXJXJXJXJXJXJXJXJXJXJXJXJXJXJXJXJXJXJX",
"JXJXJXJXJXJXJXJXJXJXJXJXJXJXJXJXJXJXJXJXJXJXJXJXJXJXJXJXJXJXJXJXJXJXJXJXJXJXJXJXJXJXJXJXJXJXJXJXJXJXJXJXJXJXJXJXJXJXJXJXJXJXJXJX"
};
