/* XPM */
static char *_abdb227702546e2dd48d4610c3a8948Y3fhy7VpTCEtPxPf[] = {
/* columns rows colors chars-per-pixel */
"64 64 236 2 ",
"   c None",
".  c #5F0B05",
"X  c #590B07",
"o  c #5B120B",
"O  c #5C0913",
"+  c #580713",
"@  c #4C110A",
"#  c #640D05",
"$  c #6C0C04",
"%  c #65010C",
"&  c #6C040D",
"*  c #650E09",
"=  c #6B0D09",
"-  c #670704",
";  c #730C05",
":  c #7B0C05",
">  c #73050D",
",  c #7D040C",
"<  c #720D09",
"1  c #7F080D",
"2  c #65120B",
"3  c #7B120B",
"4  c #761107",
"5  c #6B0712",
"6  c #650B13",
"7  c #6C0913",
"8  c #720B12",
"9  c #780414",
"0  c #6D1B12",
"q  c #712718",
"w  c #820D05",
"e  c #82050C",
"r  c #83090B",
"t  c #8A0708",
"y  c #960B09",
"u  c #8C1B0B",
"i  c #88140A",
"p  c #961808",
"a  c #850712",
"s  c #8C0613",
"d  c #860C1A",
"f  c #960716",
"g  c #8D1316",
"h  c #941512",
"j  c #9C1411",
"k  c #9C161A",
"l  c #97161C",
"z  c #A8090C",
"x  c #B50B0E",
"c  c #A41309",
"v  c #A4190A",
"b  c #AC1B0B",
"n  c #AC160B",
"m  c #B41A0B",
"M  c #B9180D",
"N  c #A70A14",
"B  c #A31412",
"V  c #AC1413",
"C  c #AB1A15",
"Z  c #AC1C19",
"A  c #A61718",
"S  c #B31413",
"D  c #BB1311",
"F  c #B51B15",
"G  c #BB1B15",
"H  c #B41D19",
"J  c #B70514",
"K  c #972716",
"L  c #922513",
"P  c #B5220D",
"I  c #BC240D",
"U  c #A92916",
"Y  c #B4221A",
"T  c #BC2A1B",
"R  c #B82717",
"E  c #A8311B",
"W  c #B4341A",
"Q  c #BA3519",
"!  c #B13013",
"~  c #A1230D",
"^  c #A11F20",
"/  c #9F3E26",
"(  c #CE0E07",
")  c #CB0B0B",
"_  c #C6080C",
"`  c #D30E06",
"'  c #DA0F06",
"]  c #D20B0C",
"[  c #CE130B",
"{  c #CE190E",
"}  c #C7150A",
"|  c #D51106",
" . c #DB1306",
".. c #D3140B",
"X. c #DB1609",
"o. c #D41B0E",
"O. c #DC1C0B",
"+. c #C41211",
"@. c #CD1C11",
"#. c #C71914",
"$. c #D21E11",
"%. c #D51310",
"&. c #E21606",
"*. c #E51A07",
"=. c #EB1D07",
"-. c #E31C0A",
";. c #EC1E08",
":. c #E21608",
">. c #F01F08",
",. c #C3250D",
"<. c #CB280E",
"1. c #DC230E",
"2. c #D8260F",
"3. c #CD2314",
"4. c #CC2D13",
"5. c #C72919",
"6. c #D32313",
"7. c #DC2512",
"8. c #D42C14",
"9. c #DC2C14",
"0. c #D32D19",
"q. c #DA2C19",
"w. c #CA351A",
"e. c #D43114",
"r. c #DC3115",
"t. c #D5321B",
"y. c #DC341A",
"u. c #DD3A1B",
"i. c #D33B19",
"p. c #E4230D",
"a. c #EB230A",
"s. c #EC290E",
"d. c #E52A0E",
"f. c #F22409",
"g. c #F32B0C",
"h. c #F6340C",
"j. c #E22610",
"k. c #E32B12",
"l. c #EB2C11",
"z. c #E62A13",
"x. c #F12E10",
"c. c #E43315",
"v. c #EB3415",
"b. c #E2341A",
"n. c #E43B1A",
"m. c #EB3C1A",
"M. c #E93917",
"N. c #F33413",
"B. c #F43916",
"V. c #F33D1A",
"C. c #EE370D",
"Z. c #CE3822",
"A. c #DB3B22",
"S. c #D53721",
"D. c #E43C22",
"F. c #D8411B",
"G. c #E6411C",
"H. c #EC421D",
"J. c #EF481D",
"K. c #F4421D",
"L. c #F24B1B",
"P. c #F84C10",
"I. c #DD4325",
"U. c #D94828",
"Y. c #CE5130",
"T. c #EC4421",
"R. c #EE4A24",
"E. c #E34C2C",
"W. c #E64926",
"Q. c #F34621",
"!. c #F34B24",
"~. c #F84D25",
"^. c #F44F28",
"/. c #E5532E",
"(. c #ED532C",
"). c #EF5325",
"_. c #F35226",
"`. c #F3542B",
"'. c #F9552B",
"]. c #F3592E",
"[. c #F9592E",
"{. c #F85627",
"}. c #ED5B34",
"|. c #E75733",
" X c #F45730",
".X c #F55C33",
"XX c #F95D34",
"oX c #F25F3B",
"OX c #EE643B",
"+X c #F56236",
"@X c #F96137",
"#X c #F5643A",
"$X c #F9643B",
"%X c #F56A3D",
"&X c #FA693E",
"*X c #F46937",
"=X c #F9723F",
"-X c #F66C42",
";X c #FB6D42",
":X c #F26743",
">X c #FD7145",
",X c #FC7349",
"<X c #F97B4C",
"1X c #F77346",
"2X c #FA7D53",
"3X c #F67A58",
"4X c #FC835C",
"5X c #F98257",
"6X c #FC8661",
"7X c #FB8B63",
"8X c #FA8C69",
"9X c #FC936D",
"0X c #FE9A74",
"qX c #FE9C79",
"wX c #FB9675",
"eX c #FE9F81",
"rX c #FDA383",
"tX c #FDAA8B",
"yX c #FEA689",
"uX c #FCAC92",
"iX c #FEB293",
"pX c #FEB99C",
"aX c #FEBDA2",
"sX c #FFC2A6",
"dX c #FEC3AC",
"fX c #FFCBB4",
"gX c #FFCEB9",
"hX c #FFC7B2",
"jX c #FFD1BC",
"kX c #FFD5C3",
"lX c #FFD9C6",
"zX c #FFDCCC",
"xX c #FFDFD0",
"cX c #FFE2D4",
"vX c #FFE6DA",
"bX c #FFE9DD",
/* pixels */
"                                            y.q.y.y.b.m.H.T.!.!.K.K.K.K.K.K.K.K.L.L.                                            ",
"                                      q.q.6.6.3.6.6.8.0.y.D.R.].+X]._.).).).).).).).).).].                                      ",
"                                6.6.@.@.@.@.@.@.3.@.@.3.3.3.3.t.W.OX%X=X*X*X+X*X*X*X*X*X*X*X=X                                  ",
"                            6.$.{ { { { @.@.@.@.@.3.3.3.3.3.3.3.3.4.I.}.=X<X1X<X<X5X5X5X5X5X5X<X<X                              ",
"                          $...[ [ { { [ { @.$.$.3.6.6.6.6.3.6.0.0.3.0.e.G.%X5X5X0X0X0X0X0X0X9X8X8X4X                            ",
"                        ..[ [ [ { [ { o.o.$.o.$.$.$.6.6.6.6.6.8.8.8.0.0.e.t./.1X7XpXaXpXpXiXtXrXqXqXwX9X                        ",
"                    $.| [ | ..[ ......o.o.o.o.o.$.7.6.6.7.6.q.8.q.8.8.0.0.0.e.U.%X7XsXjXfXfXdXpXpXiXtXtXrX                      ",
"                  $.[ ( ( ( | ..| o.X...X.7.b.b.M.b.k.k.9.7.7.q.q.8.q.8.r.0.e.t.F.OX7XdXxXlXlXjXfXdXsXsXpXpX                    ",
"                %.[ ( ( | | ..|  . .1.G._.{.`.T.b.q.q.q.q.j.7.z.q.9.r.q.r.0.r.t.t.u.OX7XgXvXcXzXlXkXkXjXgXfXsX                  ",
"                ( ` | | | | |  .O.V.{.].I.5.+._ ] %.] %.%.%.%.%.X.o.9.r.r.r.r.t.y.t.I.%X8XlXbXvXcXxXlXlXlXkXkXdX                ",
"              | ( | | |  . .X.d.L.L.q.+._ ) ' X.%.O.7.O.-.7.%.j.o.$.X.6.k.y.r.y.r.t.i.I.%XwXcXbXvXvXcXcXxXzXzXlXdX              ",
"            [ ( | | | |  .X.C.P.b.%.] ]  . .X.X.-.-.-.-.j.-.j.j.j.j.o...o.r.y.r.u.y.u.t.U.:XtXbXvXvXvXcXcXxXzXzXkX              ",
"          ..` ` | |  . .X.h.P.1.] ' ' ' :.:.:.:.-.-.;.j.z.z.z.z.j.j.j.7.o.o.q.c.c.u.u.u.u./.1XdXvXvXcXcXxXzXlXlXkXhX            ",
"          | | |  .|  .X.C.h.O.` ' ' ' :.:.:.-.-.z.z.z.z.z.z.z.>.z.z.k.k.j.7.o.9.r.n.n.u.u.u.}.5XkXcXxXzXlXlXjXjXgXfXpX          ",
"        ..| `  . . .&.f.g.X.` ' ' :.:.:.:.>.%.z.D.A.D.S.A.A.D.z.a.a.l.z.k.k.9.1.c.n.n.u.u.u.W.*XrXlXlXlXkXjXgXfXhXsXaX          ",
"        | |  . . . .>.f.%.) '  .:.:.:.;.:.>.%.N d 9 5 5 d f N #.z.l.l.z.l.c.z.k.2.n.n.n.n.n.u.(.1XaXjXjXfXfXhXsXaXpXiXrX        ",
"      o. .|  .X. .&.=...J '  .&.*.*.*.=.>.=...f 6 O + + d l N #.s.v.l.l.l.l.c.k.d.9.n.n.u.G.n.G./.8XaXsXsXsXpXpXiXtXrXqX        ",
"      .. . .X.X.&.' ' J _  .&.*.*.=.=.=.>.=.] f 5 6 + + d f N #.s.s.x.s.v.v.v.M.c.9.n.G.G.G.G.G.W.}.rXiXiXiXtXtXrX0XwXwX7X      ",
"    o.| X.X.&.&.' ) z J ` &.*.=.=.=.>.>.f.a.+.f 7 6 + O l N N #.s.l.l.v.v.v.v.v.c.k.9.M.G.G.J.G.n.T.3XqXqXqXqXwX9X8X7X7X4X      ",
"    o.X.X.X.X.X.x J f ) :.:.*.=.=.a.f.>.f.f.+.s 7 6 + 6 d ^ N 3.s.x.N.g.v.v.v.v.M.v.c.c.H.G.G.H.G.y.E.4X6X4X6X4X4X5X2X2X2X,X    ",
"    o.X.O.X.*.} z s N ` *.*.=.a.f.>.f.f.f.x.+.s 7 6 O 6 l N H $.g.x.N.N.v.v.v.v.v.M.c.k.G.H.H.H.H.n.8.#X<X1X1X<X1X1X1X-X-X%X    ",
"  2.1.X.p.*.-.x f 9 J ' *.a.a.a.f.f.f.f.f.g.+.s 5 6 O 6 l A S $.x.N.N.N.B.B.B.m.M.M.M.c.M.H.H.J.J.M.<.W.%X%X*X*X#X#X+X+X+X.X    ",
"  6.O.O.O.O.o.z 9 9 _ &.a.a.a.f.f.f.g.g.f.g.+.s 9 6 O 6 l N S $.h.B.B.B.V.m.V.m.m.m.m.M.c.H.J.J.J.G.<.8.`.`._.`.`._.)._.^.(.R.  ",
"  1.1.1.p.p.+.t & r | p.a.a.a.f.g.f.g.g.g.x.D a 5 6 O 6 l ^ D $.N.B.B.B.V.V.V.V.Q.V.m.m.M.H.L.R.L.J.2.} m.K.K.K.K.H.T.H.T.T.m.  ",
"  2.1.1.1.p.n e % z X.p.a.s.f.s.g.g.g.g.g.N.+.a 5 6 O 6 l V S $.N.B.B.K.K.B.K.K.Q.D.V.D.V.H._.L.!.L.q.x 7.v.C.C.M.M.M.M.n.M.y.  ",
"  2.1.p.p.1.y 9 5 x -.p.a.s.g.g.g.g.h.h.N.x.D a 7 5 O 6 k V D q.B.V.K.K.K.K.K.~.Q.R.Q.T.m.m.R._._.!.n.S #.c.c.c.c.r.r.c.r.r.q.  ",
"8.9.9.p.j.o.y & , } a.l.s.l.x.g.g.N.h.h.B.N.D a 7 6 O 6 k Z D q.V.K.K.K.Q.K.K.~.!.!.!.T.T.m.R._.).L.H.V n c.c.9.9.r.9.e.r.8.e.  ",
"9.2.9.d.j.} t % e o.p.l.l.x.l.x.N.h.N.B.B.m.D a 7 6 6 6 k H G q.K.K.~.~.~.~.Q.~.!.^.!.R.Q.m.R.`._._.T.S c 9.r.2.e.e.e.e.e.e.8.4.",
"e.9.d.k.c.M t % f X.l.l.l.v.N.N.N.B.V.V.V.V.D a 7 5 O 6 k H G k.K.K.!.~.~.~.~.~.^.^.`.!.R.H.R.`.).`.R.R y 2.8.8.e.e.4.4.4.4.4.T ",
"e.k.r.r.d.m , % z 1.k.l.l.v.v.B.B.V.V.V.V.V.D a 7 6 O 6 k H G b.Q.~.~.~.~.~.~.`.^.`._.(.R.T.R.(.].).R.5.t <.8.8.<.4.4.w.4.4.4.R ",
"r.r.c.c.c.m , % z 1.d.v.v.v.V.V.V.V.V.V.~.V.+.a 7 6 O 6 k H #.y.~.~.~.'.~.'.'.`.`.`.(.^.(.T.R.).].`._.5.t ,.<.,.<.,.I ,.I I I P ",
"r.c.c.c.c.m , - z 9.c.M.v.V.V.V.V.Q.Q.Q.V.Q.D a 5 6 O 6 A H #.D.~.~.'.'.'.[.[.`. X X X_.(.R.R.(.].].`.w.t m ,.,.I I I P P P P b ",
"r.r.c.n.d.m e - z k.M.M.m.V.D.V.V.Q.Q.Q.Q.Q.S , 7 6 O 6 ^ G #.D.~.'.'.'.[.[.[.XX X X X`.(.R.R. X X].`.w.t n M m m P m b b b v v ",
"u.c.u.M.C.m e > x z.b.M.m.V.V.Q.!.Q.Q.~.^.Q.F a 5 6 O 6 Z H #.D.'.[.[.'.[.XX[.XXXX.X X X(.R.W. X}. X[.w.t c m m n b v b b v v p ",
"n.c.M.M.M.I e > M k.b.m.D.K.T.Q.Q.^.^.^.^.!.F 1 5 6 O 6 Z G 5.D.[.[.XX[.XXXXXXXX.X.X.X X XR.R..X.X X`.w.t y c c c p c p p p p i ",
"u.n.n.n.M.4.t , M k.m.m.V.Q.Q.R.^.^.^.^.^.^.F 1 5 6 6 7 ^ 5.0.D.[.XXXXXXXXXXXXXXXXoX X X XR.R..X.X X].5.: y y y y y t i t w i 4 ",
"u.M.n.H.V.e.t e D v.M.H.Q.Q.!.^.^.^.^.'. X^.G 1 5 5 O 6 Z 5.5.D.XXXXXXXXXXXXXXoXXXoXXX X`.R._.XX]..X].! ; t t t w i w : w 4 4 4 ",
"  n.M.H.H.n.y t S v.m.H.T.R.!.^.^. X X X X XH a 5 5 6 7 Y 5.0.D.XXXX$XXXXXXXXX$XXXXX X X`.R._.].XX].`.~ - w t : w : 4 4 4 4 4 2 ",
"  G.J.J.T.H.c w N m.K.H.R.^._.`. X X[. X.X XY r 7 7 * 6 Y 5.0.T.XX$XXX$X$XXX$XXX#XoXXX`.`.Q.].]..X[.).u ; w w : : ; 4 4 4 $ 2   ",
"  H.H.H.Q.T.,.t N n.Q.R.R.`.`.`. X XXXXXXX.XR 1 > 7 6 7 Y 5.0.D.XX$X$X$X$X$X$XXXXXXX.X X^.R.].XX.X.X/.4 - w : : ; ; $ $ $ $ 2   ",
"  W.T.R.R.^.u.y z e._.R._.`.`. XXXXXoXXXXXoX5.9 > > 7 7 T Z.q.T.XX$X$X$X$X$XXXXX;XoX[. X^.^..XXXXXXXU.- - : ; ; ; $ $ # 2 # #   ",
"  W.R.R.)._.R.M z 5. X(.(.`. X.XXXoX$XXX$XXX5.a 8 7 7 7 T 0.y.T.$X;X&X$X$X$X;XXXXXXX X'.Q.`.XXXXXXXX! . ; ; ; $ # # # # # # o   ",
"    R.^.).(.`.y.} } /. X X X.XoXXXoX$X$X$X#X5.1 > 8 8 0 T S.S.T.$X&X&X$X$X$X$X$XoXXX X~.!..XXX@X+XXXL - ; - # # # . . . . . o   ",
"    E.).(.].].R.8.{ t.+X X X}.XXoX$X$X;X;X#XZ.a > 8 7 8 T S.q.D.$X;X&X&X$X;X$X$XXX[. X!._.XXXX+X+X/.: - ; - $ # # . . . # .     ",
"    E.(.}.}.].`.n.7.6.|.oX}.oXoXoX#X&X&X-X&Xw.t > > > 8 T S.y.H.@X;X;X&X&X&X:XXXXX[.`.Q..XXX@X$X$XY.. - ; ; = = $ * 2 * # 2     ",
"      /. X X.X X).c.9.u.*X.XXXoX#X#X&X;X&X&XZ.t > > & 8 R S.y.D.$X;X;X&X;X$X$X#XXX XT.^.].XX@X$X+XK . ; ; 4 < $ = * * * 2 o     ",
"      /..X}.}..XoXR.M.c./.#X.X#X#X;X&X-X&X&XZ.a > & = 7 G q.r.n.XX;X;X-X&X;XoXXX X^.T. XXX@X+X@XU.# . $ = = = = * * * * *       ",
"        }..XoX.X X X^.R.A.OXXX.X$X:X;X&X&X&XZ.r > > & & G 6.q.n.XX;X;X&X$X$X$X.X XQ. XXX+X+X@X].L X $ > < < < = = * * * o       ",
"        /.oX#XoX.X.X XXXoXE.%X#X+X#X&X%X&X$XA.C T Y H Z ,.0.y.m..X&X;X&X-X#XXX XT.R.XX#X#X&X#XU.2 # i i i i 3 3 3 3 3 3         ",
"          }.#X#X#X+X.X$X6X3X|.OXoX#X#X&X&X$X X|.-X:X:XoX#X+XOXXX+X&X&X%X#X#X.X!.Q..X#X#X&X-X#X/ X h V V B B j j j k h g         ",
"          E.+X#X&X#XXX.X3XuXwX}.#XoX$X$X#X&X&X&X&X&X;X;X&X&X&X$X&X&X&X#XoX`.!.Q..X#X#X-X-X-XY.o 3 S S V V V A B B c B           ",
"            |.&X&X&X-X#XXX8XaXuX#XoXXXoX#X&X%X&X&X&X;X&X&X%X$X&X&X&X#XoX XT.Q.`.oX&X-X-X-XOXq @ j V V n B B B B B j l           ",
"              oXoX;X;X;X;XXX3XdXaX3XoXoXXX$X$X$X&X&X&X&X&X&X&X@XoXXX].).K.K.].#X#X%X;X-X1X/ @ i V B B B j j j j h h             ",
"              U.XX;X;X;X;X:X$X,XuXkXuX,X.X[.[.XXXX#X$X$X$X+X@X+X`.!.Q.K.!.XX#X%X-X-X-X,XY.@ 2 k B c j h h h u u g               ",
"                E.:X;X;X>X>X;X$XXX8XaXdXeX3XXX X_.'.~.'._.~.!.K.K.~.~.[.+X&X&X-X;X-X-XY.0 o c V B B j j h h h g                 ",
"                  E.:X;X>X>X>X;X;X$X;X3XeXuXyX9X2X-X$XXXXX[.[.'.[.XX$X&X&X&X;X-X;X;XOXq 0 B F S V V A A B B k ^                 ",
"                    U.&X;X>X>X;X;X;X;X;X&X;X2X6X7X4X4X<X,X&X@X@X&X&X&X;X;X;X;X>X-X|.K q C G G G H F Z C Z Z k                   ",
"                      I.#X,X,X,X>X>X,X;X;X;X$X;X&X@X&X&X&X&X>X=X>X>X=X>X>X;X;X1X|.E q Y G R Y R Y Y Z U Z ^                     ",
"                        Z.|.;X,X,X,X,X,X>X>X;X;X&X&X&X=X>X=X>X>X=X>X>X>X>X>X;XU.! ~ ! ! T T W T R R Y Y                         ",
"                            I.oX>X,X,X,X,X>X>X>X>X>X>X>X&X>X>X>X>X>X>X>X>X#XE.w.Q Q Q W Q Q W W W E E                           ",
"                              ! U.XX;X>X>X>X>X1X>X>X>X>X&X>X>X>X,X,X>X%X.XG.t.Q W W W W W W W W E                               ",
"                                  U Z.|.@X=X>X=X>X>X>X=X>X1X>X>X>X&X+X_.n.w.! ! U U ! ! U E K K                                 ",
"                                      U ,.i.U.)..X+X@X@X*X+X}.}.(.E.F.! ~ p p u u u u L u                                       ",
"                                            P 4.w.i.i.F.F.F.F.w.! ~ p u u u u u u u                                             "
};
