/* XPM */
static char *_ba11fd64eb1439eda53ba6f422295f3XOMLtuHSo9N44AdE[] = {
/* columns rows colors chars-per-pixel */
"64 64 222 2 ",
"   c None",
".  c #351E00",
"X  c #3B2301",
"o  c #392307",
"O  c #412701",
"+  c #412803",
"@  c #4A2E02",
"#  c #4D3204",
"$  c #523602",
"%  c #563902",
"&  c #5A3D01",
"*  c #553A08",
"=  c #5E4101",
"-  c #5C4110",
";  c #624501",
":  c #664901",
">  c #6B4C02",
",  c #644A0B",
"<  c #684A0A",
"1  c #714F01",
"2  c #755301",
"3  c #785602",
"4  c #7C5B03",
"5  c #7C5B0A",
"6  c #76570B",
"7  c #7A5B10",
"8  c #7E600A",
"9  c #815F01",
"0  c #856102",
"q  c #8A6504",
"w  c #8D6904",
"e  c #85630B",
"r  c #8D6B0B",
"t  c #936D02",
"y  c #957205",
"u  c #9A7303",
"i  c #9F7903",
"p  c #98740A",
"a  c #8E7019",
"s  c #987915",
"d  c #846718",
"f  c #A47D03",
"g  c #A17B0A",
"h  c #957C28",
"j  c #AB8402",
"k  c #AA860A",
"l  c #B58C02",
"z  c #B18C0D",
"x  c #B78C05",
"c  c #BC9401",
"v  c #B8920D",
"b  c #AB8913",
"n  c #B59113",
"m  c #BC9816",
"M  c #A2892B",
"N  c #B29527",
"B  c #BEA029",
"V  c #C49B02",
"C  c #CA9E01",
"Z  c #C49807",
"A  c #C09910",
"S  c #CDA101",
"D  c #CDA40C",
"F  c #C7A000",
"G  c #D2A402",
"H  c #DAA501",
"J  c #D4AA04",
"K  c #DCAB01",
"L  c #D4AB0D",
"P  c #D7A80C",
"I  c #DDB102",
"U  c #DCB20A",
"Y  c #C8A61B",
"T  c #DBAF13",
"R  c #DCB717",
"E  c #E1AE01",
"W  c #E4B301",
"Q  c #E9B601",
"!  c #ECBB01",
"~  c #E2B60B",
"^  c #E8B70A",
"/  c #E3B90D",
"(  c #EBBD0C",
")  c #E5BA06",
"_  c #F1BF01",
"`  c #F1BF0A",
"'  c #E5BC13",
"]  c #EABE13",
"[  c #E4BB1D",
"{  c #E5B815",
"}  c #C3A423",
"|  c #C8AA26",
" . c #D8B928",
".. c #C5AC39",
"X. c #CBB23C",
"o. c #D7BC34",
"O. c #CFB123",
"+. c #E2BD25",
"@. c #EEC20B",
"#. c #F4C401",
"$. c #F9C601",
"%. c #F6C902",
"&. c #F9CA04",
"*. c #F3C50A",
"=. c #F5CA0D",
"-. c #FBCD0B",
";. c #FDD20D",
":. c #FBD306",
">. c #ECC313",
",. c #ECC31A",
"<. c #E7C51D",
"1. c #F2C513",
"2. c #F5CA14",
"3. c #FBCE12",
"4. c #F4CA1B",
"5. c #FACF1B",
"6. c #F2C61B",
"7. c #FED214",
"8. c #FED51C",
"9. c #FDD91E",
"0. c #F7D719",
"q. c #DCC034",
"w. c #DEC22D",
"e. c #EDC423",
"r. c #E8C527",
"t. c #F4CA22",
"y. c #F5CB2B",
"u. c #F7CC28",
"i. c #F6D124",
"p. c #FDD523",
"a. c #FEDA24",
"s. c #F6D22B",
"d. c #FBD42C",
"f. c #FEDB2B",
"g. c #F6D822",
"h. c #ECCD32",
"j. c #EBCE3B",
"k. c #E4CA39",
"l. c #F4CC33",
"z. c #F5CE3A",
"x. c #F9CF33",
"c. c #ECD13B",
"v. c #EDD531",
"b. c #F5D533",
"n. c #FBD433",
"m. c #FDDD34",
"M. c #F3D53A",
"N. c #FAD33C",
"B. c #FCDE3B",
"V. c #F7D937",
"C. c #EAD22E",
"Z. c #FFE126",
"A. c #FDE32B",
"S. c #FFE82E",
"D. c #FEE234",
"F. c #FFEA33",
"G. c #FEE23C",
"H. c #FEEA3C",
"J. c #C7B44C",
"K. c #C9B855",
"L. c #DBC64D",
"P. c #DCCC5E",
"I. c #EAD348",
"U. c #FADC42",
"Y. c #F5DB4C",
"T. c #F8D94A",
"R. c #E3CA57",
"E. c #E6D356",
"W. c #F6DB59",
"Q. c #E5C546",
"!. c #FFE444",
"~. c #FFEA44",
"^. c #FEE54A",
"/. c #FFEA4D",
"(. c #F7E044",
"). c #F7E454",
"_. c #FDE752",
"`. c #FFEB53",
"'. c #FBE65D",
"]. c #FFEC5B",
"[. c #F5E65F",
"{. c #D8CA62",
"}. c #E9DA69",
"|. c #F9DE62",
" X c #F4DD61",
".X c #FBE663",
"XX c #FEED63",
"oX c #F2E46A",
"OX c #FDEC6B",
"+X c #F8E46D",
"@X c #FFF065",
"#X c #FFF16B",
"$X c #F5EA74",
"%X c #FDED73",
"&X c #FBE37A",
"*X c #FCED79",
"=X c #F8E774",
"-X c #FFF274",
";X c #FEF47C",
":X c #EFE371",
">X c #FDEF83",
",X c #F8E78A",
"<X c #FFF681",
"1X c #FFF882",
"2X c #FDF28D",
"3X c #FCEB9B",
"4X c #FBEC93",
"5X c #FDF292",
"6X c #FDF39B",
"7X c #FBEDA6",
"8X c #FDF4A2",
"9X c #FEF6A9",
"0X c #FDF5B3",
"qX c #FDF5BB",
"wX c #FEF8BD",
"eX c #FEF9C4",
"rX c #FEFACA",
"tX c #FDF5C5",
"yX c #FEFAD4",
"uX c #FDFBDC",
"iX c #FEFDEB",
"pX c #FEFDF3",
/* pixels */
"                                              ].].#X-X1X1X2X2X,X}.L.                                                            ",
"                                      H.~././.`.].].].].@X@X$X1X2X4X,XW.e.( Q ^ ^ ^                                             ",
"                                  H.~.~./././././.`.`.`.`.].].].].#X5X0X0X&Xu.#._ _ _ ` `                                       ",
"                              D.G.!.~.~././././././.`.`.`.`.`.`.].].].OX2XwXtX&X5._ _ _ ` _ `                                   ",
"                          a.D.G.!.~.!.~.~.^.~./././././.`.`.`.`.`.].`.].].OX6XyXqXT.$.$.$.#._ _ *.                              ",
"                        f.D.G.!.G.~.!.!.!.~.~./.~./././././.`.`.`.`.].`.`.].].;XtXiX&X-.$.$.$.$._ #.1.                          ",
"                      f.D.G.G.G.G.G.G.!.!.~.~.~./././././././.`./.`.`.`.`.].].`.XX0XiX3X3.$.&.$.$.$.#.*.                        ",
"                    f.m.D.D.D.G.G.G.~.G.B.k.q.B Y Y O.O.C.v.(././././.`.`.`.`.`.].].8XpX7X5.&.$.$.$.$.#.*.                      ",
"                  f.D.m.D.D.m.G.H.G.h.} s 8 7 a N ..X.X...| } B q.)././.`./.`.`.`.`.].6XpX7X0.&.&.$.$.$.$.#.                    ",
"                d.f.f.m.m.D.D.D.C.m p e h J.}.$X<X<X1X1X;X;X$XP...B q././.`.`./.`.`./.].9XpX3X5.-.-.&.$.$.$.*.                  ",
"              s.f.f.f.m.f.D.V.} d 8 M {.*X1X1X1X<X<X<X<X1X1X1X1X1X:XJ.B c././././.`.`.`.].0XpX&X7.3.-.-.&.&.$.#.                ",
"            i.a.f.f.f.A.f.h.s 1 8 K.;X1X<X;X1X<X<X<X<X<X<X<X<X<X1X1X;X:X..q././././.`./.^.XXeXiXW.8.5.5.-.2.=.$.=.              ",
"            p.f.a.f.f.A.r.r < h }.;X;X;X1X;X;X1X<X;X1X1X1X1X1X<X;X1X<X1X*XL.o.^././././.`./.-XuXtXU.d.u.5.3.3.=.&.2.            ",
"          p.f.a.a.f.f.r.r > M oX-X-X;X;X;X;X*X$X$X$X$XoXoXoX;X<X1X1X<X<X<X<XP.o./././././.`.^.5XiX4Xn.p.u.5.3.2.=.*.            ",
"        i.a.a.a.f.a.r.p 2 M .X#X#X#X-X-X-XY.N a d b b n n v E.1X1X<X<X1X<X<X<XP.q./././.^.`./.`.qXyXW.n.x.d.u.t.6.2.2.          ",
"        8.a.p.p.a.g.b 4 s (.`.].].].@X#X#X).n 2 1 4 O.C.v.C.E.<X;X1X;X1X<X<X<X<XE.q././././././.%XyX3XN.n.x.d.u.u.4.2.t.        ",
"      t.9.a.p.a.a.D q r k.!.!.^./.`.`.].].%X .C S L H.~.~.~.).;X<X;X;X<X;X<X<X1X;XL.c.~.^./.^./.`.8XrX|.z.N.x.x.u.t.4.6.        ",
"      p.9.8.8.9.<.f q O.D.D.G.G.!.^././.`.-X6.Q W R H.~.~.~.).;X;X;X;X;X;X<X;X;X;X-XL.^.!.^././.^.OXtX4XU.z.x.y.x.] 6.1.t.      ",
"      8.8.9.a.8.D y b a.f.f.A.G.G.G.!.~./.-X6.) I U H.~.~.H.).-X-X;X;X-X;X;X;X;X;X1X}.h.~.^.~.^.^./.8X0XW.z.l.y.u.t.6.1.1.      ",
"    8.8.8.8.8.,.j y [ f.f.f.f.A.m.D.G.G.^.%X,.W K U H.~.~.H.).#X#X-X;X-X-X;X;X;X;X;X;XI.(.!.^.^.^.^.%XqX|.z.l.l.y.+.] 6.@.,.    ",
"    p.8.a.8.p.D i z a.a.a.a.f.f.f.D.D.G.!.OX,.W J / F.~.~.H.).@X#X#X#X-X-X-X-X-X-X;X;XoXc.!.!.!.!.!.`.9X,XU.l.l.l.e.<.,.] ]     ",
"    p.a.p.9.6.Z i R a.9.9.9.a.f.f.f.m.D.!.OX] W J @.F.H.H.H.(.@X@X#X#X#X-X#X-X-X-X-X-X-XI.G.!.~.!.~.!.>X7XI.l.l.e.<.>.@.) )     ",
"  i.a.p.a.p.' l k 8.9.p.9.p.p.a.f.f.f.f.G.OX] I J U F.H.H.H.^.XX].@X@X#X#X#X#X#X-X-X-X-XW.M.G.!.!.!.!.OX3XY.+.] ' ) W I I I R   ",
"  f.p.a.a.p.~ l D a.8.8.9.9.9.p.a.a.f.f.!.OX] E J U F.H.H.D.(.].].].].XX@X@X#X#X#X#X#X#XOXc.!.!.!.!.!.`.5X X] / W W I I I K L   ",
"  d.a.f.f.8.K x >.a.9.8.8.a.9.a.9.a.f.f.!..X' W K / F.H.H.A.(.`.`.].].].].XX@X@X@X@X#X#X#XI.B.G.B.!.!.!.*X$X[ U U I I J J J J   ",
"  f.f.f.f.2.W Z 0.f.a.a.a.a.a.a.f.a.a.a.G..X/ E K U D.F.H.A.(.^./.`.`.].].].].XX@XXX@X@X#X(.V.!.G.!.G.!.OX-XR J J S S S F F F   ",
"n.f.f.f.m.3.W L 9.f.f.a.f.f.f.a.f.f.Z.f.G.'./ I K R S.F.F.S.B.~.^./.`.`._.].].].].XX].XX@X).b.G.G.!.!.G.].OX[ G S S F S S F V   ",
"d.f.d.f.f.-.) / a.a.a.f.a.a.f.f.f.f.m.A.!._.~ W K U A.F.F.A.V.!.!.^.^.^._.`.].].].].].].].`.b.G.B.G.G.B.!.OX .F F F F c c c c m ",
"d.d.f.f.d.7.) @.9.p.a.a.a.a.f.f.f.m.m.D.^._.~ K I U S.F.S.A.V.G.!.!.^.^.^.`._.`.]._.].'.`.'.b.G.G.G.G.G.!.^.+.V V V V V c c c v ",
"d.f.d.f.f.f.>.2.9.p.9.a.p.a.a.a.f.f.m.m.!.^.U K I U A.S.S.A.V.!.!.!.!.^.^.^.^._.`.`._._.].`.V.B.B.G.B.G.B.f.[ l l l j l l j j k ",
"p.p.d.a.f.G.4.;.8.8.8.9.8.a.a.a.f.f.f.m.G.(.U K J U S.S.D.A.V.^.!.!.!.!.!.^.^._._.^._._._._.V.m.G.m.G.G.m.3.U f j j f f f f u i ",
"p.8.p.8.f.`.0.7.7.7.7.7.7.8.8.8.9.a.f.f.m.U.I K J U A.S.S.A.V.^.^.^.^.^.!.!.^.^.^.^.^.^._.^.V.B.G.G.G.G.m.*.S u u t t t t t t r ",
"5.8.8.8.f.OXf.7.-.:.-.:.-.:.7.7.7.8.8.a.m.V.I G S U A.S.D.A.B.!.^.^.^.^.^.^.!.^.^.^.^.^.^.^.V.G.G.G.G.G.m.( V 0 9 9 4 4 4 4 4 4 ",
"5.3.7.7.d.-X!.7.-.&.$.&.&.-.-.;.7.7.8.a.m.b.U G S U A.A.S.f.V.!.!.^.^.^.^.!.!.!.U.!.!.^.^.^.V.B.!.G.G.!.V.) j : : : ; : : ; ; , ",
"2.-.7.7.p.*X_.9.&.%.%.#.$.$.$.&.-.:.;.7.a.m.P S S U Z.A.S.f.b.!.!.!.^.!.^.^.!.!.!.^.^.!.^.^.n.B.G.!.!.G.V.P g = = = ; = = = = , ",
"3.-.-.-.8.*X-Xf.&.$.#.$.$.%.$.$.&.&.-.7.p.s.J S S U Z.A.A.A.m.G.B.B.U.!.!.U.!.^.^.^.U.^.!.^.m.G.!.!.G.!.b.Z t ; : ; ; ; ; ; = , ",
"2.-.-.-.-.=X2XG.&.#.#.#._ $.$.$.$.$.%.&.0.s.G C S U Z.Z.Z.A.s.m.m.B.B.B.U.G.!.!.!.^.!.^.!.!.m.B.G.!.G.!.h.c 9 & & & & = = = = - ",
"=.&.&.&.=..X5X_.3.! _ ! $._ _ $.$.$.%.$.7.i.G C S U Z.Z.S.g.0.a.f.f.m.m.B.B.B.B.U.!.!.!.!.B.m.G.G.!.!.!.+.j > @ $ $ $ $ % % & - ",
"  %.$.&.&.U.8XOX5._ _ ! _ _ _ _ #.$.$.#.&.4.S S F U Z.Z.Z.a.2.8.8.p.p.f.f.m.B.B.G.G.U.!.U.B.m.!.G.!.!.!.O.u $ + O O O O O O O   ",
"  *.$.&.$.s.8X2Xd._ Q ! Q _ _ _ #.! #.#.&.5.S F S U g.Z.A.a.3.3.5.7.8.8.p.d.f.f.m.m.B.B.B.f.m.G.B.B.B.G.m 9 + . . X . . X . o   ",
"  *.%.%.%.&.4X9XU.*.Q Q Q Q Q Q Q ! _ _ &.2.G C S U a.Z.Z.a.=.:.-.7.3.7.7.8.p.p.p.m.m.m.m.a.B.B.B.G.G.M.k 6 X X . . X . . . o   ",
"  @.%.%.%.%. XeX%X4.W E Q Q Q Q Q Q ! _ _ 2.G C V U 9.Z.Z.g.=.%.&.-.-.-.3.7.7.8.8.p.p.d.d.a.m.D.m.B.B.w.w : X X O X X X X X o   ",
"    &.%.#.$.i.qX8Xn.^ E E E W W ) Q Q Q ` =.S C S U 9.Z.Z.9.*.%.%.&.-.-.-.3.3.7.8.8.p.p.8.a.f.m.m.m.F.Y 4 : = = ; = = & & &     ",
"    *.#.#.%.&.,XeX+X` E E E E E E W E W Q =.C C S U 9.Z.Z.9.@.%.%.%.$.$.&.-.-.-.3.7.7.7.8.a.f.f.f.m.b.s 1 > : > : : : : : <     ",
"    @.#.#.%.%.b.rX8Xb.W E E E E E E E E Q #.C Z S U 9.a.a.p.@.#.$.#.#.%.%.&.:.-.-.-.7.;.8.p.a.a.a.f.+.3 > = : : : : ; ; ; ,     ",
"      #.%.#.%.*.,XrXOX,.H K H E H E E E E #.C V V U 9.Z.Z.9.@.#.#.#.#.#.#.%.%.-.-.-.-.;.8.8.8.8.a.a.b ; : = = = = = = = ;       ",
"      @.#.#.#.#.u.tXwXT.^ H E H H E E H E #.H V V U 9.9.9.9.@._ ! #.#.#.#.#.%.%.-.-.:.7.8.8.7.8.9.e.5 = = = : = ; : : : ,       ",
"        #.#.#.%.$.W.yX5Xn.E H H H H H H K t.] ~ U >.Z.Z.Z.A.@.! ! ! ! #.#.#.#.%.$.:.;.8.7.8.8.8.8.n * ; : : : : : : > <         ",
"        ! #.#.#.#.*.,XyX*Xt.K H H H H H H W.,XW.^.!.G.F.G.G.>.Q ) #.! #.! #.%.#.$.:.7.7.7.7.3.5.,.< % > > > > > > 2 2 6         ",
"          ! $.#.#.#.2.7XtX.X6.K H H H H H R.,X&X+X.X.X].].!.@.) W Q ! ! ! #.#.%.:.7.3.7.5.7.7.8.b @ = 1 1 > 2 2 2 2 3           ",
"          ~ #.#.#.#.#.t.7XtX'.,.E H H G G H H P ~ { { [ +.[ W W W Q Q ! ! ! *.:.;.7.3.7.-.7.5.T $ $ 1 1 1 1 2 2 2 2 5           ",
"            ) #.#.#.#.#.6.3XwXOXe.E H H H C H H H H H H H E E E W W W ) ! *.:.;.-.-.-.;.3.3.2.7 O : 1 1 1 2 2 2 2 5             ",
"              #.#.! #.#.$.2.,XqX>Xb.~ H H H G H H H H H H E K E W E W Q =.;.=.-.-.3.-.7.3.3.g . & 2 1 2 2 2 2 4 3               ",
"              / #.#.#.#.#.#.*.T.8X8X].t.E H H H H H H H H H K K K ) >.0.;.-.-.-.-.-.-.-.3.A + $ 1 2 3 3 2 2 2 3                 ",
"                ~ #.#.#.#.#.#.#.4.|.4X2XW.b.( E H H H H H H K / 6.g.9.:.&.-.-.-.-.-.-.;.P # O 1 3 2 3 1 2 2 2 7                 ",
"                  ~ #.#.! #.#.#.#.#.4.T.&X>X*X'.T.M.l.h.z.U.U.b.9.=.&.&.&.&.&.&.-.-.-.L * . > 3 3 3 2 3 2 2 7                   ",
"                    ~ _ #.#.#.#.! #.#.#.*.4.l.U.Y.^.(.G.D.g.;.%.%.%.%.%.#.&.&.&.&.-.D * o : 3 1 2 2 2 2 3                       ",
"                      U ! #.#.#.#.#.#.#.#.#.#.#.#.%.*.#.#.#.#.%.%.%.%.%.%.%.*.:.&.v # X > 2 3 3 2 2 2 6                         ",
"                        L ) _ #.#.#.#.#.#.#.#.#.#.#.#.%.#.#.#.#.%.%.%.%.%.%.%.@.p + @ 1 2 2 4 4 9 4 5                           ",
"                            U Q _ #.#.#.#.#.#.#.#.#.#.#.#.#.#.#.%.%.%.%.%.*.F : O = 4 8 9 0 0 0 q                               ",
"                              A J ! #.#.#.#.#.#.#.#.#.#.#.#.#.#.#.#.#.%.G r * % 4 w w w t t p p                                 ",
"                                  A G E Q #.#.$.#.#.#.$.#.$.$.$.%.) c w = = 8 y i i j i k                                       ",
"                                      z z Z G J I W I W I J F x i q 8 8 y k l l z z                                             ",
"                                              g g r 5 4 q e 5 8 e s                                                             "
};
