/* XPM */
static char *result[] = {
/* columns rows colors chars-per-pixel */
"64 64 234 2 ",
"   c #261710",
".  c #251912",
"X  c #2B1B13",
"o  c #291E1B",
"O  c #321E16",
"+  c #341F19",
"@  c #391F1B",
"#  c #25160F",
"$  c #2C2119",
"%  c #342017",
"&  c #352119",
"*  c #3C221B",
"=  c #38291D",
"-  c #3C2525",
";  c #3C2B23",
":  c #3B2C2C",
">  c #372729",
",  c #3D332C",
"<  c #3D2E30",
"1  c #3F3331",
"2  c #43251D",
"3  c #4B291F",
"4  c #47271E",
"5  c #502A1F",
"6  c #422323",
"7  c #432B23",
"8  c #4B2A22",
"9  c #4C2D2C",
"0  c #452B29",
"q  c #532D24",
"w  c #552E27",
"e  c #43322C",
"r  c #4C342B",
"t  c #4A3429",
"y  c #5A3027",
"u  c #54332B",
"i  c #5B332A",
"p  c #5A362C",
"a  c #433433",
"s  c #4C3735",
"d  c #4C3B35",
"f  c #4C3B3B",
"g  c #423832",
"h  c #523331",
"j  c #543A34",
"k  c #5C3B34",
"l  c #523C3A",
"z  c #402F30",
"x  c #61382F",
"c  c #633C32",
"v  c #693E33",
"b  c #4D4338",
"n  c #53423B",
"m  c #5C423B",
"M  c #564537",
"N  c #6B4136",
"B  c #6C4439",
"V  c #654339",
"C  c #72453A",
"Z  c #74493D",
"A  c #784B3E",
"S  c #5B4545",
"D  c #5C4B44",
"F  c #584843",
"G  c #524D46",
"H  c #634C45",
"J  c #644D4A",
"K  c #674B45",
"L  c #794E41",
"P  c #764C40",
"I  c #65544B",
"U  c #6B534D",
"Y  c #675546",
"T  c #7D5245",
"R  c #7A574A",
"E  c #655A54",
"W  c #6C5D54",
"Q  c #6A5B58",
"!  c #735B54",
"~  c #755E5A",
"^  c #785B54",
"/  c #6D625A",
"(  c #696256",
")  c #76615B",
"_  c #7A645C",
"`  c #786859",
"'  c #746653",
"]  c #6D6562",
"[  c #7A6563",
"{  c #7C6B64",
"}  c #7E6C6A",
"|  c #766A65",
" . c #7D736C",
".. c #7B7069",
"X. c #7F7A76",
"o. c #835A4C",
"O. c #83574A",
"+. c #885E51",
"@. c #8C6254",
"#. c #866B5A",
"$. c #936858",
"%. c #8A775C",
"&. c #816D63",
"*. c #806F6D",
"=. c #847365",
"-. c #8C7C65",
";. c #83746C",
":. c #8B756B",
">. c #83786E",
",. c #8A7C6D",
"<. c #877865",
"1. c #937C6C",
"2. c #98786A",
"3. c #847673",
"4. c #857C74",
"5. c #8B7C73",
"6. c #847D79",
"7. c #8B7E7B",
"8. c #937D73",
"9. c #A3796C",
"0. c #8E816B",
"q. c #92826A",
"w. c #988869",
"e. c #8C8176",
"r. c #8C837C",
"t. c #89837C",
"y. c #938475",
"u. c #92847C",
"i. c #9A847B",
"p. c #95897C",
"a. c #998A78",
"s. c #9D927E",
"d. c #A48A7A",
"f. c #A59677",
"g. c #AD9972",
"h. c #B5A37D",
"j. c #8C8581",
"k. c #8E8984",
"l. c #8E8C89",
"z. c #918683",
"x. c #938B85",
"c. c #9A8C83",
"v. c #958D8A",
"b. c #9D9285",
"n. c #95908B",
"m. c #9C948C",
"M. c #9F988F",
"N. c #979492",
"B. c #9B9692",
"V. c #9C9A95",
"C. c #9D9B9A",
"Z. c #978F90",
"A. c #A39484",
"S. c #AA9C85",
"D. c #A3958C",
"F. c #A49A8B",
"G. c #AA9D8D",
"H. c #A79A84",
"J. c #B09F88",
"K. c #A39B94",
"L. c #A39E9B",
"P. c #A69B92",
"I. c #ADA28D",
"U. c #AEA184",
"Y. c #B5A585",
"T. c #B9A783",
"R. c #B3A58B",
"E. c #BBA881",
"W. c #ACA395",
"Q. c #A4A19D",
"!. c #ABA49A",
"~. c #ABA498",
"^. c #B1A593",
"/. c #B3A99D",
"(. c #B5A899",
"). c #BFB19F",
"_. c #A4A4A2",
"`. c #ABA6A3",
"'. c #ADA9A5",
"]. c #AEADAA",
"[. c #B2ABA3",
"{. c #BBAEA2",
"}. c #B3ADAB",
"|. c #BAAEA8",
" X c #BBB2A5",
".X c #B5B1AC",
"XX c #BAB3AC",
"oX c #B9B3A8",
"OX c #B6B3B1",
"+X c #BBB5B2",
"@X c #BDB9B4",
"#X c #BEBBBA",
"$X c #C2AF9F",
"%X c #C1B19F",
"&X c #C2B3A4",
"*X c #C5BBAE",
"=X c #CBBBAC",
"-X c #C5B6A9",
";X c #D0BDAC",
":X c #C1BCB5",
">X c #C1BDBB",
",X c #CBBFB3",
"<X c #C4C1BD",
"1X c #CBC2B8",
"2X c #D4C4B4",
"3X c #DBC2B2",
"4X c #DCCBBB",
"5X c #D8C9BA",
"6X c #DBC0AF",
"7X c #E4CEBB",
"8X c #E4C9B7",
"9X c #E8D1BD",
"0X c #C0BFC0",
"qX c #C5C3C2",
"wX c #C9C6C4",
"eX c #CBC9C6",
"rX c #CACAC9",
"tX c #C9C8C8",
"yX c #D1CECB",
"uX c #D5CCC6",
"iX c #D6D1CB",
"pX c #DCD9D6",
"aX c #D9D6D5",
"sX c #CFD0D2",
"dX c #E4D1C1",
"fX c #EDDCCB",
"gX c #EAD7C5",
"hX c #F2DFCB",
"jX c #E5DDD5",
"kX c #F3E1CE",
"lX c #E7E1D9",
"zX c #F3E5D7",
"xX c #E5E5E2",
"cX c None",
/* pixels */
"cXcXcXcXcXcXcXcXcXcXcXcXcXcXcXcXcXcXcXcXcXcXcXcXcXcXcXcXcXcXcXcXcXcXcXcXcXcXcXcXcXcXcXcXcXcXcXcXcXcXcXcXcXcXcXcXcXcXcXcXcXcXcXcX",
"cXcXcXcXcXcXcXcXcXcXcXcXcXcXcXcXcXcXcXcXcXcXcXcXcXcXcXcXcXcXcXcXcXcXcXcXcXcXcXcXcXcXcXcXcXcXcXcXcXcXcXcXcXcXcXcXcXcXcXcXcXcXcXcX",
"cXcXcXcXcXcXcXcXcXcXcXcXcXcXcXcXcXcXcXcXcXcXcXcXcXcXcXcXcXcXcXcXcXcXcXcXcXcXcXcXcXcXcXcXcXcXcXcXcXcXcXcXcXcXcXcXcXcXcXcXcXcXcXcX",
"cXcXcXcXcXcXcXcXcXcXcXcXcXcXcXcXcXcXcXcXcXcXcXcXcXcXcXcXcXcXcXcXcXcXcXcXcXcXcXcXcXcXcXcXcXcXcXcXcXcXcXcXcXcXcXcXcXcXcXcXcXcXcXcX",
"cXcXcXcXcXcXcXcXcXcXcXcXcXcXcXcXcXcXcXcXcXcXcXcXcXcXcXcXcXcXcXcXcXcXcXcXcXcXcXcXcXcXcXcXcXcXcXcXcXcXcXcXcXcXcXcXcXcXcXcXcXcXcXcX",
"cXcXcXcXcXcXcXcXcXcXcXcXcXcXcXcXcXcXcXcXcXcXcXcXcXcXcXcXcXcXcXcXcXcXcXcXcXcXcXcXcXcXcXcXcXcXcXcXcXcXcXcXcXcXcXcXcXcXcXcXcXcXcXcX",
"cXcXcXcXcXcXcXcXcXcXcXcXcXcXcXcXcXcXcXcXcXcXcXcXcXcX>XwXiXeXeXeXwXXX+XcXcXcXcXcXcXcXcXcXcXcXcXcXcXcXcXcXcXcXcXcXcXcXcXcXcXcXcXcX",
"cXcXcXcXcXcXcXcXcXcXcXcXcXcXcXcXcXcXcXcXcXcX*XiXcXeXC.:XwXwXwXwXtXeXXX<XyX1XcXcXcXcXcXcXcXcXcXcXcXcXcXcXcXcXcXcXcXcXcXcXcXcXcXcX",
"cXcXcXcXcXcXcXcXcXcXcXcXcXcXcXcXcXcXcXcX{.G.).-XK.p.V.@XeXwXeXeXeXrX'.t.t.{.2XiXcXcXcXcXcXcXcXcXcXcXcXcXcXcXcXcXcXcXcXcXcXcXcXcX",
"cXcXcXcXcXcXcXcXcXcXcXcXcXcXcXcXcXcXcX/.&X=X8X4Xb.t.n.].<XqXwXeXwX<Xx.t.t.*XfXiX4XcXcXcXcXcXcXcXcXcXcXcXcXcXcXcXcXcXcXcXcXcXcXcX",
"cXcXcXcXcXcXcXcXcXcXcXcXcXcXcXcXcXOXP.&X7X9X9X8Xs.t.t.V.#XeX<X<X@X/.t.e.x.=XkXkXfX9XiXcXcXcXcXcXcXcXcXcXcXcXcXcXcXcXcXcXcXcXcXcX",
"cXcXcXcXcXcXcXcXcXcXcXcXcXcXcXcXcXK.!.;X7X9X9X8XU.a.X.l.OX<X.X.X[.[.k.p.G.4XkXhXkXzXzXcXcXcXcXcXcXcXcXcXcXcXcXcXcXcXcXcXcXcXcXcX",
"cXcXcXcXcXcXcXcXcXcXcXcXcXcXcXcXeXr.~.5X9X9X9X-X).H.>.k._.OX]._..X/.k.n.1XfXkXhXhXzXzXiXcXcXcXcXcXcXcXcXcXcXcXcXcXcXcXcXcXcXcXcX",
"cXcXcXcXcXcXcXcXcXcXcXcXcXcXN.x.p.t.M.=X9X9X9X-X).^.e.r.X.( G G ] .. .C.5XfXkXfXfXgX,X-XcXcXcXcXcXcXcXcXcXcXcXcXcXcXcXcXcXcXcXcX",
"cXcXcXcXcXcXcXcXcXcXcXcXcXC.].Q.t.t.p.^.5XfX9X).(.R.0.b , $ . . $ $ , | x. X4X1X1XG.e.p.[.cXcXcXcXcXcXcXcXcXcXcXcXcXcXcXcXcXcXcX",
"cXcXcXcXcXcXcXcXcXcXcXcXC.C.+XOXt.p.4.p.2X2X).Y.T.w.b $ . . . # . . . $ 1 / /.&XA.>.r.u.W.=XcXcXcXcXcXcXcXcXcXcXcXcXcXcXcXcXcXcX",
"cXcXcXcXcXcXcXcXcXcXcX0XC.].:X#XV.e.p.e.^.R.Y.R.w.M $ . . . # X X X O X . , b. Xe.e.t.I. X%X2XjXcXcXcXcXcXcXcXcXcXcXcXcXcXcXcXcX",
"cXcXcXcXcXcXcXcXcXcXcX_.L.+X1XXX/.F.p.p.y.s.U.f.M $ . . X . X X X X X O $ & b { e.p.W.2X2X%X5XgXcXcXcXcXcXcXcXcXcXcXcXcXcXcXcXcX",
"cXcXcXcXcXcXcXcXcXcXcXC._.:X:XXX!.(.b.e.a.a.a.( % . . X X X $ X O O O O % & & ,  .!.2XkXkX9XgXhXjXcXcXcXcXcXcXcXcXcXcXcXcXcXcXcX",
"cXcXcXcXcXcXcXcXcXcXqXV.].:X:X@X[.~.W.G.F.s.<.= . . X X X % X % O O % * % * * = b n.3XkXhXkXhXkX5XcXcXcXcXcXcXcXcXcXcXcXcXcXcXcX",
"cXcXcXcXcXcXcXcXcXcXOXC.XX#X:XXX[.K.~.~.W.I.Y $ X X X X O O O O % % * * * * * * ; I ~.9XkXkXkXhX*XcXcXcXcXcXcXcXcXcXcXcXcXcXcXcX",
"cXcXcXcXcXcXcXcXcXcXn.V._.@X#X@X/.I.~.^.^.s.b $ X X O O % O * @ 2 * * 2 * 2 * 2 * ,  .2XkXgX;XG.c.cXcXcXcXcXcXcXcXcXcXcXcXcXcXcX",
"cXcXcXcXcXcXcXcXcXcXl.X.k.V.OX@X~.~.~.^.R...& X O O O + & & @ @ * 2 2 2 2 = 2 2 4 = G  X2XF.e.0.>.Q.eXcXcXcXcXcXcXcXcXcXcXcXcXcX",
"cXcXcXcXcXcXcXcXcX'.X.k.t.t.'.].Q.~.~.^.R.' % O O O + @ * * * * 2 2 2 2 4 2 2 4 4 2 , / t.4.X.t.p.F..XeXcXcXcXcXcXcXcXcXcXcXcXcX",
"cXcXcXcXcXcXcXcXeXV.C.n.l.k.k.n.l.t.t.s.s.M % % % * * * * 2 2 2 2 7 3 8 8 t 7 2 2 2 ; E  .4.n.Q.!.!.eXuXcXcXcXcXcXcXcXcXcXcXcXcX",
"cXcXcXcXcXcXcXcX].Q.@X'.k.t.t.e.e.e.0.>.` ; & * * * * 2 2 2 2 4 3 3 8 8 9 d e 8 8 e g 4.V.Q.#X<X XoXpXeXcXcXcXcXcXcXcXcXcXcXcXcX",
"cXcXcXcXcXcXcXcXQ._.+X/.[.!.l.r.t.e.t.s.{ 4 * * * 2 2 4 2 3 3 5 8 3 8 q t g g t e e , Q Q.@XeXeXwXeXxX<XcXcXcXcXcXcXcXcXcXcXcXcX",
"cXcXcXcXcXcXcXcXC..X@X.X<XyX!.Q.~.~.~.^.` 2 2 2 2 4 4 4 3 5 5 5 q q q q u f b d , : ; M n.].eXrXeXrXsXqXlXcXcXcXcXcXcXcXcXcXcXcX",
"cXcXcXcXcXcXcXcXC.OX:X@X1X<XC.~.~.~.^.^.( 2 2 2 3 4 3 3 3 5 5 q q q w y w j n s t 7 t u e.'.0XrXrXrXrXqXpXcXcXcXcXcXcXcXcXcXcXcX",
"cXcXcXcXcXcXcXtXN.'.@X@X:XXXQ.~.~.~.~.I.V = * * 2 2 2 6 2 3 q q y y y y i p r h u q t t ` Q._..X#XtXrXqXeXcXcXcXcXcXcXcXcXcXcXcX",
"cXcXcXcXcXcXcX>XN.C.].@X#X[.Q.~.~.W.I.b.G , , , : : a g 0 2 y w y x i x p p j j p q q w F t.B.V.V.Q._.'.pXcXcXcXcXcXcXcXcXcXcXcX",
"cXcXcXcXcXcXcXcXV.j.j.V.].Q.B.B.n.e.0. .b , , 1 a a a a > * 0 8 y x x x c c k u V y u u b /  .e.e. .4.K.cXcXcXcXcXcXcXcXcXcXcXcX",
"cXcXcXcXcXcXcXcXM.X.4.t.t.X.t.e.4.6.p.y.S > > > > > > < < < < 6 y x c x x v v k V y y p M  .l.l.r.k.M.Q.aXcXcXcXcXcXcXcXcXcXcXcX",
"cXcXcXcXcXcXcX].~.V.m.M.m.l.r.x.b.F.R.H.D a f f f f f f f f z 6 w x c v v v V c V N x p H V.0XwX<X<XeX<XeXcXcXcXcXcXcXcXcXcXcXcX",
"cXcXcXcXcXcXcX_..XXXoX{.oX~.Q.~.~.W.^.H.n > > < < < z z < 6 6 - 6 0 w v N N B B C c x k m K.tXrXrXrXeXyXaXcXcXcXcXcXcXcXcXcXcXcX",
"cXcXcXcXcXcXcXC..X@XXXoXoXQ.~.!.~.^.^.H.M < < : > > > 6 < < z f j r q B C C C Z C c c k M n.<XrXrXrXrXsXwXcXcXcXcXcXcXcXcXcXcXcX",
"cXcXcXcXcXcXcXC._.@X:X:XXXK.~.Q.~.W.^.S.l f f f f f f f f f f f l r w C C A Z A L N k c m j.0XrXrXqXeXpXrXcXcXcXcXcXcXcXcXcXcXcX",
"cXcXcXcXcXcXcXC.Q..X@X:X@XK.~.~.~.W.I.y.9 z f f f f f f f f f h s s 9 B Z Z L L T Z c c m t..X<XqXOX.XpXpXcXcXcXcXcXcXcXcXcXcXcX",
"cXcXcXcXcXcXcX].V.V.C./.}.m.P.K.n.p.,.<.h 6 > 6 6 6 6 6 6 6 6 9 0 9 9 w x L L O.T L N N V e.!.`._.V.Q.yXiXcXcXcXcXcXcXcXcXcXcXcX",
"cXcXcXcXcXcXcXcXt.6.X.X.6.6.6.3.e.e.f.H.J l l f f f f f h l l l l m k k k L T O.o.P N B m | n.n.z.5.4.m.<XcXcXcXcXcXcXcXcXcXcXcX",
"cXcXcXcXcXcXcX#Xc.c.z.z.c.D.z.p.H.I.^.J.K l S n S S S S S S S J J J H H N R o.o.+.A C B K { 4.e.p.D.b.G.lXcXcXcXcXcXcXcXcXcXcXcX",
"cXcXcXcXcXcXcXB.-X;X;X8XgX;X^.W.W.R.R.J.Y j l l S S S S S S J J J J J m V R o.@.@.O.Z C _ /.4X4XgXfX=X(.:XcXcXcXcXcXcXcXcXcXcXcX",
"cXcXcXcXcXcXcX].$X3X3X8XdX=XP.W.^.^.R.R.! 9 9 h h h h h h h l l j k k k V V N T $.o.T P >.,XkXkXhXhX2X^.=XcXcXcXcXcXcXcXcXcXcXcX",
"cXcXcXcXcXcXcXaX$X8X;X;X;X;X^.^.^.R.R.R.#.H J J J J J S J J J J U U ! ! ! R K o.$.R P A { XXfXkXhXhXgX4XjXcXcXcXcXcXcXcXcXcXcXcX",
"cXcXcXcXcXcXcXcX|.6X2X$X=X;X^.W.W.R.R.U.' J Q ~ [ ~ [ [ [ [ [ [ [ [ [ _ _ _ R @.$.O.T T ` ~.4XdX7XfXfXkXzXcXcXcXcXcXcXcXcXcXcXcX",
"cXcXcXcXcXcXcXcX}.-X-X).(.{.^.W.H.a.q.0.R Y W [ [ [ [ [ [ } [ [ } } } &.&.&.^ @.2.O.T T ` V. X1X=XgXfXfXzXcXcXcXcXcXcXcXcXcXcXcX",
"cXcXcXcXcXcXcXcX+Xx.v.D.(.{.I.s.,.<.,.0.#.K Q ~ *.+.&.*.} *.*.*.} *.*.*.;.} ^ @.9.@.T T ` V.~. X{.{.5XfXzXcXcXcXcXcXcXcXcXcXcXcX",
"cXcXcXcXcXcXcXcXrXX.3.4.4.u.e.>.y.y.d.g.%.K K K K K K J U ^ ~ [ ) ) ~ ~ ^ ^ ^ ^ +.o.R o.! } 4.t.r.6.r.-XcXcXcXcXcXcXcXcXcXcXcXcX",
"cXcXcXcXcXcXcXcX#Xm.n.m.V.Q.W.H.R.R.R.T.-.W ! ~ ~ ~ ! Q ~ ! ! ! ! ! ^ ~ _ { =.=.<.#.^ o.' t.l.6.j.N.Q.@XcXcXcXcXcXcXcXcXcXcXcXcX",
"cXcXcXcXcXcXcXcX_.@X:X>X:X1XoXI.R.R.R.T.0.{  .3.6.3.4.3.3.3.*.*.;.3.5.7.7.u.8.u.5.=.$.$.e.'.qX0X#XyXxXlXcXcXcXcXcXcXcXcXcXcXcXcX",
"cXcXcXcXcXcXcXcXQ.OX:X:X<X:XW.I.R.R.R.T.q...3.7.7.7.7.j.7.7.z.z.z.z.c.z.z.z.z.z.z.:.1.d.j._.qXrXeXsXpXpXcXcXcXcXcXcXcXcXcXcXcXcX",
"cXcXcXcXcXcXcXcXC.].:X:X:X@XW.I.R.R.R.T.q.=.5.j.j.z.z.z.z.z.z.z.v.v.v.v.Z.Z.Z.Z.v.:.1.d.u.Q.0XrXeXeXXX@XcXcXcXcXcXcXcXcXcXcXcXcX",
"cXcXcXcXcXcXcXcXC..X@XoXoX:X~.R.R.R.R.g.-.:.3.7.j.j.z.z.z.z.z.z.7.7.u.u.8.7.8.8.8.:.2.2.r.Q.OXrXtX@X!.[.cXcXcXcXcXcXcXcXcXcXcXcX",
"cXcXcXcXcXcXcXcX_.Q.oX/.~.XX[.I.G.f.a.-.%.5.8.5.3.8.8.:.8.:.:.8.8.8.y.i.c.A.D.D.D.H.d.8.4.C.Q._.].XX/./.cXcXcXcXcXcXcXcXcXcXcXcX",
"cXcXcXcXcXcXcXcX'.V.n.B.B.'.!.b.,.-.-.f.f.A.P.K.P.B.D.Z.Z.Z.D.P.`.|..X@X>X>X>XqXwX1X:XU. .X.j.l.k.n.K.c.cXcXcXcXcXcXcXcXcXcXcXcX",
"cXcXcXcXcXcXcXcXl.X.t.X.e.e.t.0.,.f.h.h.h.G.+XXX+X-X:X:X:X:X>X>X>X0X>X0X0X0XwXwXtXeX<XI.t.t.X.4.4.e.6.r.yXcXcXcXcXcXcXcXcXcXcXcX",
"cXcXcXcXcXcXcXtXk.t.j.7.r.5.e.f.U.Y.E.E.h.G..X+X+X:X+X>X#X#X#X>X>X>X>X0X0X0XwXwXtXeX*Xs.l.Q.C.V.}.}.}.}.+X:X:X:X1XcXcXcXcXcXcXcX",
"cXcXcXcX].OX}._.Q.Q.L.L.}.[.b.I.Y.E.T.E.g.F.+X+X+X+X+X#X#X#X:X#X>X>X0X>X0XwX0XwXwXtXoXc.n.OXqX<X0X0X>X>X+X[.~./.~.<XcXcXcXcXcXcX",
"cXcXcXrXC.`.`.`._.'.`.`.}.+Xm.Y.Y.Y.E.E.g.H.}.}.}.}.}.OX+X}.XXOX+X@X#X#X>X>X0XwXwXqX[.b.l.C.>X>X:X-X}.}.`.`.P.P.P.tXcXcXcXcXcXcX",
"cXcXcX#XC.}.OX}.].[.'.[.[.XXb.R.R.Y.E.h.w.' / Q Q Q E E E E E E Q ] ] ] ] ] [ *...../ / k.C.].XX}.`.}.`.L.P.K.L..XiXcXcXcXcXcXcX",
"cXcXcX0XC.'.OX+X+XoX/././.XX~.Y.R.T.h.f.%.' W E Q E Q Q Q W W Q W Q Q ! W Q Q ) ~ ~ / ) 7.L.'.`.`.`.L.B.B.Z.v.Q.+XrXcXcXcXcXcXcX",
"cXcXcXcXC.C._.`.'.`.!.(./.+X!.I.Y.f.w.%.` Y F D S J I I U ! ! ) ` ` [ { &.&.=.;.:.:.3.3.v.L.L.L.L.Z.Z.Z.v.l.Q.OX}.cXcXcXcXcXcXcX",
"cXcXcXcX_.C.C.C.B.N.B.!.oX+X/.H.y.q.y.<.I I I W W W ~ ~ _ [ &.&.=.:.:.2.8.8.y.u.c.c.c.c.Z.Z.Z.Z.Z.z.z.7.X.l.].OX#XcXcXcXcXcXcXcX",
"cXcXcXcXv.;.*.{ ] ~ [ 5.c.c.y.-.a.d.a.` ! ) _ _ _ &.&.&.:.:.1.8.8.8.i.i.8.8.8.8.8.8.c.c.7.7.z.z.z.z.3.*.} ..} 6.L.cXcXcXcXcXcXcX"
};
