/* XPM */
static char *_5ad12973e694b7cb2d50759ac3425d15vyedadGjpjPnKk3[] = {
/* columns rows colors chars-per-pixel */
"64 64 221 2 ",
"   c None",
".  c #010101",
"X  c #0B0201",
"o  c #0E0905",
"O  c #01010A",
"+  c #050B0B",
"@  c #0A0B0B",
"#  c #120000",
"$  c #1E0000",
"%  c #130D07",
"&  c #120E09",
"*  c #1A130C",
"=  c #16100A",
"-  c #030313",
";  c #131414",
":  c #1A1B1B",
">  c #151818",
",  c #081413",
"<  c #230000",
"1  c #2D0404",
"2  c #350000",
"3  c #3A0202",
"4  c #23180D",
"5  c #231B18",
"6  c #240314",
"7  c #2E2115",
"8  c #352516",
"9  c #392515",
"0  c #3A2819",
"q  c #080629",
"w  c #0A0932",
"e  c #0A332F",
"r  c #0C3834",
"t  c #232424",
"y  c #2C2C2C",
"u  c #2A2624",
"i  c #333333",
"p  c #3D3D3D",
"a  c #3D3834",
"s  c #342424",
"d  c #490000",
"f  c #460302",
"g  c #550000",
"h  c #5D0906",
"j  c #5B1F1F",
"k  c #6C0101",
"l  c #640404",
"z  c #730000",
"x  c #7B0404",
"c  c #771812",
"v  c #412D1C",
"b  c #4B321E",
"n  c #54351F",
"m  c #512906",
"M  c #693311",
"N  c #4B3622",
"B  c #583A23",
"V  c #462E2C",
"C  c #703C3C",
"Z  c #0F423D",
"A  c #5D432A",
"S  c #5A4127",
"D  c #5C4237",
"F  c #62462B",
"G  c #65482C",
"H  c #6F4B2C",
"J  c #764D2C",
"K  c #6A4C32",
"L  c #775538",
"P  c #774518",
"I  c #13115C",
"U  c #19165E",
"Y  c #2E0B42",
"T  c #171466",
"R  c #19167A",
"E  c #181577",
"W  c #2A196D",
"Q  c #322F71",
"!  c #182374",
"~  c #582470",
"^  c #12564E",
"/  c #135953",
"(  c #0F4640",
")  c #30534D",
"_  c #1C5E7D",
"`  c #19756C",
"'  c #18776E",
"]  c #1A6D73",
"[  c #1B6578",
"{  c #186E68",
"}  c #444444",
"|  c #4A4A4A",
" . c #474748",
".. c #4F5050",
"X. c #535353",
"o. c #5C5C5C",
"O. c #50504F",
"+. c #725448",
"@. c #49674A",
"#. c #447770",
"$. c #636363",
"%. c #6B6B6B",
"&. c #646469",
"*. c #747474",
"=. c #7D7D7D",
"-. c #787777",
";. c #6E6C6D",
":. c #757A48",
">. c #840000",
",. c #8C0000",
"<. c #930000",
"1. c #9B0000",
"2. c #931A1A",
"3. c #A50000",
"4. c #AB0000",
"5. c #B30000",
"6. c #BB0000",
"7. c #AC3433",
"8. c #A10B3B",
"9. c #C30000",
"0. c #CB0000",
"q. c #D70000",
"w. c #DC0000",
"e. c #C40B12",
"r. c #E30000",
"t. c #ED0000",
"y. c #F10000",
"u. c #D32129",
"i. c #9B5212",
"p. c #B1590C",
"a. c #8A5A34",
"s. c #915E36",
"d. c #935924",
"f. c #A35F21",
"g. c #95643D",
"h. c #A76834",
"j. c #855E5E",
"k. c #8F6744",
"l. c #B07E52",
"z. c #B17B4E",
"x. c #8C7474",
"c. c #BC6E6E",
"v. c #C27D48",
"b. c #C56363",
"n. c #F35050",
"m. c #68837F",
"M. c #46827A",
"N. c #FF8312",
"B. c #CA834C",
"V. c #C28B5B",
"C. c #C78855",
"Z. c #D18951",
"A. c #D9935B",
"S. c #D7945D",
"D. c #CE8D57",
"F. c #DC9C64",
"G. c #D69A64",
"H. c #CC9260",
"J. c #E19D63",
"K. c #DFA068",
"L. c #E2A169",
"P. c #EAA66B",
"I. c #ECAA6E",
"U. c #E5A167",
"Y. c #EEAB70",
"T. c #F0AC71",
"R. c #1D198D",
"E. c #1C1786",
"W. c #1F1B98",
"Q. c #211B9A",
"!. c #3E1C9B",
"~. c #2A2E97",
"^. c #241FAD",
"/. c #221DA4",
"(. c #241FB0",
"). c #222CA4",
"_. c #2424AA",
"`. c #2520B0",
"'. c #2230A3",
"]. c #1E4E8A",
"[. c #4A968C",
"{. c #70A49E",
"}. c #5AAEA2",
"|. c #66A29A",
" X c #79D9CD",
".X c #75DACC",
"XX c #848484",
"oX c #8D8D8D",
"OX c #8E8181",
"+X c #969696",
"@X c #9C9C9C",
"#X c #979898",
"$X c #8D9594",
"%X c #AC988C",
"&X c #9FA6A6",
"*X c #9DBEBA",
"=X c #A4A4A4",
"-X c #ABACAB",
";X c #B3B4B4",
":X c #BDBDBD",
">X c #B0AFAF",
",X c #D89A9A",
"<X c #D09393",
"1X c #F58B8B",
"2X c #C0BFBF",
"3X c #D6C0AD",
"4X c #B6D8D3",
"5X c #ADCBC7",
"6X c #9ED3CC",
"7X c #C3C3C3",
"8X c #CDCCCC",
"9X c #D4D4D4",
"0X c #DCDBDB",
"qX c #CED4D3",
"wX c #F0D1CA",
"eX c #FCE6D3",
"rX c #E7F9F7",
"tX c #F7FAFA",
"yX c #FDFDFD",
"uX c #F4F5F5",
"iX c #E9E7E8",
/* pixels */
"                                                                                                                                ",
"                                                                                                                                ",
"                                                                                                                                ",
"                                                                                                                                ",
"                                                        : : t : t :                                                             ",
"                                                      x.2 2 2 2 1 2 j.                                                          ",
"                                            *.O @ @ @ l r.r.r.r.w.r.k :                                                         ",
"                                            +.g g g g 1.t.t.t.t.t.y.k +                                                         ",
"                                      t . . ,.t.t.t.t.t.t.t.t.t.t.y.x @                                                         ",
"                                    ;.x x x 6.t.t.t.t.t.t.t.t.t.u.1XC o                                                         ",
"                                   .$ q.y.y.t.t.t.t.t.t.t.t.t.t.n.yX*.@                                                         ",
"                                ..2.4.r.t.t.t.t.t.w.6.6.6.6.e.1XwXyX*.+                                                         ",
"                                X 4.y.t.t.t.t.r.t.q.1.<.<.<.2.0XuXuX%.+                                                         ",
"                            ) c 6.r.y.y.t.y.0.4.4.<.< $ $ $ < i i i : . t o.                                                    ",
"                            X k y.t.r.r.r.r.4.>.>.z < < $ < < $ < $ $ < $ s                                                     ",
"                        } , . k y.y.r.5.4.4.g X X 3 0.q.q.q.q.q.w.w.q.q.w.5.5                                                   ",
"                        j 2 3 <.t.r.0.>.z z g 2 2 g 4.5.4.5.4.5.5.5.5.5.6.,.X |                                                 ",
"                    %.% 6.r.r.r.r.6.<.# . . >.t.r.6.$ X . X X X . . X X X X . . +                                               ",
"                    $.X 9.y.t.r.0.x h B A A c <.<.z X * b V p p V N 4 . . , o.$.                                                ",
"                    $.# 9.y.t.0.1.2 * G.T.T.G . . . . n B.%X@X&X%XB.B . X y                                                     ",
"                    &.X 9.y.y.3.f M L F.Y.Y.l.L * * L z.J.2X5Xo.+.G.F + %.                                                      ",
"                    %.X 6.t.t.x O s.Z.P.Y.Y.T.L.7 7 U.I.T.eXiX: b I.K +                                                         ",
"                        j d d < . a.Z.P.I.I.Y.K.7 7 U.P.T.eXiX: v I.K . p ..|                                                   ",
"                        p + . . . a.v.U.I.P.I.K.8 7 U.T.P.wX9Xu B I.L o % o X $.                                                ",
"                            @ . . = 0 z.B.Z.F.L.7 7 L.Y.P.+.a l.H.T.G.V.V.V.V.k.i                                               ",
"                            @ . . . = s.z.h.D.L.N N L.Y.P.N @ l.H.H.F.P.P.P.Y.a..                                               ",
"                            + . . . X % % # k.T.F.F.I.Y.Y.N . & & & J Z.Z.Z.D.J X                                               ",
"                            O.u . . . . % 9 k.U.Y.Y.Y.I.Y.L 8 X . . b s.a.a.a.L |                                               ",
"                                . . . . v v.B.B.L.Y.I.I.I.I.H.* . . . X . . X $.                                                ",
"                                %.%.o.@ 4 J H J C.F.F.U.I.Y.F.L F F 7 . . > o.                                                  ",
"                                      : . . . o g.v.v.A.Y.I.I.I.Y.T.K . . i                                                     ",
"                                  #X&.T Y ,.,.>.M B B s.A.A.A.A.A.A.F . . i                                                     ",
"                                  | - Q.~ y.y.r.2 . . n v.v.v.v.v.v.B . . i                                                     ",
"                                | W W 8.e.t.y.r.6.3.4.c 9 9 9 9 9 9 -.;X:X=XX.| |                                               ",
"                              =.O R !.e.y.y.t.t.t.y.y.<.# X # X X + $XyXyX9Xt + . +X                                            ",
"                            a > O R /.6 l y.t.y.t.t.t.r.9.9.0.9.7.}.4XyXyXuX0X=.. : }                                           ",
"                            * . . R Q.- 2 9.9.9.r.t.t.t.t.y.y.y.7.}.6XrXrXrXrX$X. . ; ;X                                        ",
"                        ) 7 B 8 . R Q.- X # # < 9.y.y.y.y.y.y.y.6., M..X X X XM.. . . @ X.                                      ",
"                        y % F 8 O R Q.- . . . X >.3.4.3.3.4.3.3.x . ) [.[.[.[.#.p ; . . i >X                                    ",
"                        y % F 8 . E W.- . . . . . X . X . . X X X . . . . . . X.7X} . . . . XX                                  ",
"                        y = A 8 . E /.I w . . . . . . . . . . . . . , r e e e ) %.H M M m . | +X+XoXoX                          ",
"                        y % F 8 O R `.`.E . . . . . . . . . . . . . Z ' ` ' ' Z . i.N.N.p.+ . . . . . o.                        ",
"                        y % F 8 . E `.(.Q.T T I - . . . . . + r ( Z / ' ' ` ' @.i.i.f.f.P . : p p a p | %.                      ",
"                        y = A 8 . E `.^.^.(.(./.q O . . . . + { ' ' ' ' ' ' ' :.N.f.F G b . i $.$.$.$.p . #X                    ",
"                  } } } @ X = o O R _.^.^.^.^.^.R.! ^ ^ ^ ^ ^ { ' ` ` ` ` ` ' @.d.P G G b . & : > : : ; . @X                    ",
"                  . . . + @ + X O T /.^.^.^.^.^.(.).[ ] ] ' ` ` ` ` ] ] ] ] ] @.A A A A 0 . + > ; @ . . . @X                    ",
"                  X . + } X.X.y . O w Q.`.(.^.^.(._.).).'.[ ` ` ` ` ]._.).).).Q A G S * & . o.;X;X#X@ . . @X                    ",
"                  . @ : $.-.=. .; + - R R.R.E.R./.^.^.(.^.].[ [ [ [ ].(.^./.~.~ G G S o + y *.7X7X=Xa : . XX                    ",
"              u @ . i &.:X8X9X+XX.: X O O O O - R._.^.^.^._._._._._._.^.(.~.D F G G B X i 7X#X&.&.-.7X=.. @ t                   ",
"              ; + t o.oX-X>X;X@XXXp : . : ..t O I E.^.^.^.^.^.^.Q.E E E E W D F F B v 5  .>X@XOXoXoX;X;.. . ;                   ",
"              : t $.=X8Xx.$.$.#X9XXXX.O X.tX%.. . q /.(.^.^.(.(.R O O . . & S G G 5 @ ..$.$.@X9X9X7X;.p . . ;                   ",
"              ; 5 $.=XqX{.[.$.+X9XXXX.@ V <Xx.x.*.&.U I I T I I Y f d d d f 9 8 8 o @ X.*.+X@X@X=X@X@X;.y ; ;                   ",
"              ; t $.-XqX6X}.%.#X9XXXX.@ 2 1.,XyXyX8X& . . . X . 1 1.3.3.3.>.X . . . @ X.{.8X%Xo.$.*.8X-X$.u ;                   ",
"              ; : $.-X9X5X6X-X2X9XOXX.@ 2 3.7.b.b.c.@X@X@X@X@X@X=X,X,X,X,X,X=Xj.l $ + X.XX9X*X|.%.*.8X-X$.t ;                   ",
"              t t o.=X9X9X9X9X9X7Xx.X.; 3 <.1.1.<.7.uXyXtXyXtXyXtXtXtXtXuXtXyX,X1.3 & ..=.8X6X.X[.-.8X=Xo.u :                   ",
"                  : X.XX8X9X9X>X{.i y   OX< < < < 1 a p V ) V ) p } V ) ) p p y < x.;Xy i =.&X4X2X>XOXo.: =.                    ",
"                  : p $.-X:X2XoXX.y p     : : : : : ; : : : ; : : : : ; : : ; : :     V y X.oX2X2X>X$.p :                       ",
"                    o.@ ; : : ; @                                                         , ; : : ; + o.                        ",
"                      i i i i i p                                                         p i i i i i =.                        ",
"                                                                                                                                ",
"                                                                                                                                ",
"                                                                                                                                ",
"                                                                                                                                ",
"                                                                                                                                "
};
