/* XPM */
static char *result[] = {
/* columns rows colors chars-per-pixel */
"64 64 217 2 ",
"   c #0D0D0D",
".  c #18060C",
"X  c #020615",
"o  c #0A0714",
"O  c #050916",
"+  c #0C0C15",
"@  c #0C0E19",
"#  c #060B19",
"$  c #130C15",
"%  c #190813",
"&  c #0E101C",
"*  c #141314",
"=  c #1C1613",
"-  c #11111C",
";  c #1B1B1B",
":  c #1C151A",
">  c #240203",
",  c #2D0404",
"<  c #22060E",
"1  c #2B060A",
"2  c #240C0D",
"3  c #330403",
"4  c #3C0503",
"5  c #380A0B",
"6  c #370C14",
"7  c #221A14",
"8  c #231E1C",
"9  c #2B1C15",
"0  c #391717",
"q  c #270A10",
"w  c #2B2119",
"e  c #3C2914",
"r  c #35271A",
"t  c #3B2B1D",
"y  c #362417",
"u  c #141622",
"i  c #151824",
"p  c #1B1C25",
"a  c #1C1E2A",
"s  c #231D22",
"d  c #3E1822",
"f  c #1F212A",
"g  c #232323",
"h  c #2A2625",
"j  c #23232C",
"k  c #2C2A2A",
"l  c #332C2C",
"z  c #372824",
"x  c #3B332C",
"c  c #2A2A33",
"v  c #272935",
"b  c #2F3039",
"n  c #343334",
"m  c #32333B",
"M  c #3C3C3C",
"N  c #3A3431",
"B  c #420704",
"V  c #450806",
"C  c #4D0A06",
"Z  c #440A0B",
"A  c #550D09",
"S  c #5D0E09",
"D  c #560B07",
"F  c #58100D",
"G  c #471719",
"H  c #531313",
"J  c #591718",
"K  c #43120E",
"L  c #610F0A",
"P  c #6B0F0A",
"I  c #65100B",
"U  c #6C120C",
"Y  c #73140D",
"T  c #7A160E",
"R  c #631413",
"E  c #6B1615",
"W  c #6B1A1B",
"Q  c #661E1E",
"!  c #741B16",
"~  c #442E15",
"^  c #44261C",
"/  c #4B3213",
"(  c #4A341A",
")  c #523613",
"_  c #583B17",
"`  c #5E261F",
"'  c #603D14",
"]  c #6A1C21",
"[  c #562726",
"{  c #44372B",
"}  c #513D24",
"|  c #463C38",
" . c #58393C",
".. c #502C31",
"X. c #6A2426",
"o. c #772524",
"O. c #663735",
"+. c #773535",
"@. c #79322F",
"#. c #66451C",
"$. c #58442E",
"%. c #4A423C",
"&. c #53463C",
"*. c #56473B",
"=. c #674B29",
"-. c #7B423B",
";. c #6C573D",
":. c #775C39",
">. c #705129",
",. c #3C3C44",
"<. c #373842",
"1. c #503D43",
"2. c #3F4147",
"3. c #434344",
"4. c #44454B",
"5. c #4C4B4C",
"6. c #5B4D42",
"7. c #574944",
"8. c #4C4D53",
"9. c #494A53",
"0. c #4F525A",
"q. c #535354",
"w. c #53555B",
"e. c #5B5B5B",
"r. c #57575C",
"t. c #5D5046",
"y. c #645445",
"u. c #6B5B4C",
"i. c #6A5747",
"p. c #7A4F55",
"a. c #695A58",
"s. c #755E57",
"d. c #714D48",
"f. c #7D6441",
"g. c #776355",
"h. c #585A61",
"j. c #5F6167",
"k. c #6A6A6B",
"l. c #646468",
"z. c #6D6E74",
"x. c #727274",
"c. c #79797B",
"v. c #76686D",
"b. c #81170F",
"n. c #841911",
"m. c #8D1B12",
"M. c #941C13",
"N. c #9A1D14",
"B. c #A01F15",
"V. c #91221A",
"C. c #932F28",
"Z. c #93433B",
"A. c #854746",
"S. c #8E5251",
"D. c #887058",
"F. c #A26457",
"G. c #976866",
"H. c #997273",
"J. c #836F69",
"K. c #AB6D6F",
"L. c #8D5B62",
"P. c #958478",
"I. c #A68772",
"U. c #7B7D82",
"Y. c #877F84",
"T. c #7F8186",
"R. c #8B8A8B",
"E. c #868589",
"W. c #9A8688",
"Q. c #8E8C91",
"!. c #929195",
"~. c #94949A",
"^. c #9C9B9C",
"/. c #978F93",
"(. c #A78788",
"). c #B2958D",
"_. c #BFA897",
"`. c #9E9CA2",
"'. c #B49EA1",
"]. c #A4A2A5",
"[. c #ABAAAD",
"{. c #A7A6AA",
"}. c #AEAEB0",
"|. c #B0AFB2",
" X c #B3B2B4",
".X c #BAB9BD",
"XX c #B7B5B9",
"oX c #C59D82",
"OX c #CAA78B",
"+X c #CCAA92",
"@X c #D2AE93",
"#X c #D7B398",
"$X c #CBAE97",
"%X c #C5B1A2",
"&X c #D6BAA4",
"*X c #D3C6BD",
"=X c #BFBEC1",
"-X c #C0BEC2",
";X c #C3C2C5",
":X c #C6C6C9",
">X c #CBCACD",
",X c #C8C7CA",
"<X c #CFCED0",
"1X c #D3D3D4",
"2X c #D7D6D9",
"3X c #DBDBDC",
"4X c #D8D7DA",
"5X c #D0CFD2",
"6X c #DFDFE0",
"7X c #E0DFE2",
"8X c #E3E3E4",
"9X c #EAEAEB",
"0X c #E6E6E8",
"qX c #EFEFF0",
"wX c #F4F4F4",
"eX c #F9F9F9",
"rX c None",
/* pixels */
"rXrXrXrXrXrXrXrXrXrXrXrXrXrXrXrXrXrXrXrXrXrXrXrXrXrXrXrXrXrXrXrXrXrXrXrXrXrXrXrXrXrXrXrXrXrXrXrXrXrXrXrXrXrXrXrXrXrXrXrXrXrXrXrX",
"rXrXrXrXrXrXrXrXrXrXrXrXrXrXrXrXrXrXrXrXrXrXrXrXrXrXrXrXrXrXrXrXrXrXrXrXrXrXrXrXrXrXrXrXrXrXrXrXrXrXrXrXrXrXrXrXrXrXrXrXrXrXrXrX",
"rXrXrXrXrXrXrXrXrXrXrXrXrXrXrXrXrXrXrXrXrXrXrXrXrXrXrXrXrXrXrXrXrXrXrXrXrXrXrXrXrXrXrXrXrXrXrXrXrXrXrXrXrXrXrXrXrXrXrXrXrXrXrXrX",
"rXrXrXrXrXrXrXrXrXrXrXrXrXrXrXrXrXrXrXrXrXrXrXrXrXrXrXrXrXrXrXrXrXR.z.j.h.8.j.U.`.rXrXrXrXrXrXrXrXrXrXrXrXrXrXrXrXrXrXrXrXrXrXrX",
"rXrXrXrXrXrXrXrXrXrXrXrXrXrXrXrXrXrXrXrXrXrXrXrXrXrXrXrXx.4.h 9 ( f.u.*.4.<.<.4.0.h.U.rXrXrXrXrXrXrXrXrXrXrXrXrXrXrXrXrXrXrXrXrX",
"rXrXrXrXrXrXrXrXrXrXrXrXrXrXrXrXrXrXrXrXrXrXrXrX!.l.h.w.h.3.9 ~ _ #.P.f.} : @ - u z.j.rXrXrXrXrXrXrXrXrXrXrXrXrXrXrXrXrXrXrXrXrX",
"rXrXrXrXrXrXrXrXrXrXrXrXrXrXrXrXrXrXrXrXrXrX~.h.0.0.,.c p u & - 7 / >.A.=.e - - v h.8.E.rXrXrXrXrXrXrXrXrXrXrXrXrXrXrXrXrXrXrXrX",
"rXrXrXrXrXrXrXrXrXrXrXrXrXrXrXrXrXrXrXrXrXE.z.<.a u @ & @ & - - * 7 _ >.' ) ; c <.u v c.rXrXrXrXrXrXrXrXrXrXrXrXrXrXrXrXrXrXrXrX",
"rXrXrXrXrXrXrXrXrXrXrXrXrXrXrXrXrXrXrXrXrXE.`.0.v i u u @ u u & ; ; ( =.' ( h i X X a 9.'.rXrXrXrXrXrXrXrXrXrXrXrXrXrXrXrXrXrXrX",
"rXrXrXrXrXrXrXrXrXrXrXrXrXrXrXrXrXrXrXrXrX0.v 9.h.h.0.2.,.,.<.<.<.m x } ~ r ; X X X & 1.L.rXrXrXrXrXrXrXrXrXrXrXrXrXrXrXrXrXrXrX",
"rXrXrXrXrXrXrXrXrXrXrXrXrXrXrXrXrXrXrXrXrX<.X X X & i i i i u & # # ; t r r w X X # # p.K.'.rXrXrXrXrXrXrXrXrXrXrXrXrXrXrXrXrXrX",
"rXrXrXrXrXrXrXrXrXrXrXrXrXrXH.G.o.d.rXrXrX<.X X X X X X X X X X O O * r r r w O X % ..S.L.).rXrXrXrXrXrXrXrXrXrXrXrXrXrXrXrXrXrX",
"rXrXrXrXrXrXrXrXrXrXrXrXK.! T T T Y +.H.h.j X # X X X X X X X X O O + w r r y % d X.] E A.H.rXrXrXrXrXrXrXrXrXrXrXrXrXrXrXrXrXrX",
"rXrXrXrXrXrXrXrXrXrXrXG.! T T T b.U Z ]  .s 6 6 $ X # o o X X X O X O w y ^ [ Q W R L L +.A.rXrXrXrXrXrXrXrXrXrXrXrXrXrXrXrXrXrX",
"rXrXrXrXrXrXrXrXrXrXH.+.C.o.E U L C 5 R ] F W ] H < Z J J % . . % q 6 J Q W E I L L L L ] +./.rXrXrXrXrXrXrXrXrXrXrXrXrXrXrXrXrX",
"rXrXrXrXrXrXrXrXrXrXrXrXrXrXp.A B , 3 S L L S L R R F ] E F F J R E E E U L L I R L P U U o.G u m k.rXrXrXrXrXrXrXrXrXrXrXrXrXrX",
"rXrXrXrXrXrXrXrXrXrXrXrX(.O.H 4 , > 3 S S L L U U S L L U L I I I I I I I I I U U U U U U ! W < # @ i 8.rXrXrXrXrXrXrXrXrXrXrXrX",
"rXrXrXrXrXrXrXrXrXrXrXrXS.D B 3 > . 1 S S S L U U S I I T L L L I I I U U U U U U Y Y Y T Y R % @ - - @ u ,.rXrXrXrXrXrXrXrXrXrX",
"rXrXrXrXrXrXrXrXrXrXrXrXd.V 3 > . o 5 S S L L Y I L U L Y I I U U U U U U Y U Y Y Y Y Y Y S 1 & & - - - - @ @ @ @ 8.rXrXrXrXrXrX",
"rXrXrXrXrXrXrXrXrXrXrXrXO., . + # $ C L S L L Y I L L I U I U U Y U U Y Y Y Y T T T T Y S 1 $ - - - - - - - - @ m rXrXrXrXrXrXrX",
"rXrXrXrXrXrXrXrXrXrXrXrX7 + - & # < A S S L I Y L L L I Y S U Y Y Y Y Y T T T T T T I 5 % $ - - - - - - - & & 4.rXrXrXrXrXrXrXrX",
"rXrXrXrXrXrXrXrXrXrXrXp @ - @ # o o < Z A L L Y S S S U U I T T T T T T T T T T R Z . : w r w * - - - - @ : x.rXrXrXrXrXrXrXrXrX",
"rXrXrXrXrXrXrXrXrXc.u & - - - @ @ @ # o 5 A L L V A S I U A S S S S S A A J ` [ ^ 8 7 e / / w - - - - & p rXrXrXrXrXrXrXrXrXrXrX",
"rXrXrXrXrXrXrXrXrXu - - - - - - - - & @ o . 1 < % 5 S I A 1 1 1 1 2 . . $ $.g.i.=._ ) ) / e * - - & - @ rXrXrXrXrXrXrXrXrXrXrXrX",
"rXrXrXrXrXrXrXrXf - i & & & - @ & - - - & # # @ # o % < % o @ @ O *     = _ :.f.:.=._ ~ ; ; @ - 4.l.U.rXrXrXrXrXrXrXrXrXrXrXrXrX",
"rXrXrXrXrXrXj.f p j j i f j j p u - & & - - - - - & @ @ & & @ + 9 / ~ / ) ) ) } ;.;.$.t - & - - a j x.rXrXrXrXrXrXrXrXrXrXrXrXrX",
"rXrXrXrXrXrXrXx.b m ,.9.r.h.w.9.9.1.b p - - - - - - & - + O * e ) ' ' ) / / / / ( i.;.$.8 - - - # 9.rXrXrXrXrXrXrXrXrXrXrXrXrXrX",
"rXrXrXrXrXrXrXrXrXrXrXrXrXrXrXR.<.4.4.4.,.b f - - & - - & @ $ 7 e ) ~ = * * = e r $.u.;.x - & @ h.rXrXrXrXrXrXrXrXrXrXrXrXrXrXrX",
"rXrXrXrXrXrXrXrXrXrXrXrXrXrXrXE.8.5.3.3.2.2.n m v p u - - - - & + = = @ @ @ + = e ~ u.g.&.* a T.rXrXrXrXrXrXrXrXrXrXrXrXrXrXrXrX",
"rXrXrXrXrXrXrXrXrXrXrXrXrXrXrXx.e.8.5.5.5.5.2.M ,.m c j f p - @ & & @ - - - @ * r r 7.5.h j ].rXrXrXrXrXrXrXrXrXrXrXrXrXrXrXrXrX",
"rXrXrXrXrXrXrXrXrXrXrXrXrXrX<X}.}. X~.k.q.5.5.q.5.5.| n n n n v j p i - - @ @ o = 7 p h N a.rXrXrXrXrXrXrXrXrXrXrXrXrXrXrXrXrXrX",
"rXrXrXrXrXrXrXrXrXrXrXrXrX3X;X:X8XqX1X=X^.j.q.q.5.5.%.%.| | | z %.3.l p s p g g l h { &.t.P.rXrXrXrXrXrXrXrXrXrXrXrXrXrXrXrXrXrX",
"rXrXrXrXrXrXrXrXrXrXrXrXrX1X4X8XqXqX<X>X;X}.J.e.q.8.5.3.| %.%.e $.$.x x &.&.7.6.6.&.7.6.P.%XrXrXrXrXrXrXrXrXrXrXrXrXrXrXrXrXrXrX",
"rXrXrXrXrXrXrXrXrXrXrXrX>X>X6XwXwXwX0X6X4X6X2X^.c.e.e.q.| x | { u.y.t &.*.t.6.6.6.t.g.I.&X*XrXrXrXrXrXrXrXrXrXrXrXrXrXrXrXrXrXrX",
"rXrXrXrXrXrXrXrXrXrXrXrX<X>X8XwXeXwX0X2X>X,X:X.X].!.x.k.5.w x &.*.*.7.u.a.u.u.a.D.I.OX#X_.'.rXrXrXrXrXrXrXrXrXrXrXrXrXrXrXrXrXrX",
"rXrXrXrXrXrXrXrXrXrXrX9X:X:X8XqXwX2X;X,X:X=X].|.}.;X=XQ.3.w %.*.&.*.u.).$XOXOX+X@X#X#X&Xg.q 7.(.rXrXrXrXrXrXrXrXrXrXrXrXrXrXrXrX",
"rXrXrXrXrXrXrXrXrXrXrX1X1X:X4X7X>X X,X7X0X X[.3X1X1XrX}.n z *.*.6.6.g.@X#X#X#X#X@X@X&X).0 > 4 Y C.Z.rXrXrXrXrXrXrXrXrXrXrXrXrXrX",
"rXrXrXrXrXrXrXrXrXrX9X5X<X1X1X<X,XXX=X=X|.|.1X6X1X}..X=X%.z 6.t.y.y.D.+X@X@X@X@X$X&X%X*.. > D M.B.rXrXrXrXrXrXrXrXrXrXrXrXrXrXrX",
"rXrXrXrXrXrXrXrXrXrX>X1X:X>X1XqXwX0X=X`.=X6X6X3X4X{.R.^.7.6  .y.u.s.D.oX@X@X@XOX#X&Xs.2 > S N.N.K.rXrXrXrXrXrXrXrXrXrXrXrXrXrXrX",
"rXrXrXrXrXrXrXrXrX5X<X;X X1X0X6X6X0X9X:X9X8X6X3X3X=Xv...` L n.V.@.+.f.I.oXOX@X#X$Xg.2 3 I N.B.C.rXrXrXrXrXrXrXrXrXrXrXrXrXrXrXrX",
"rXrXrXrXrXrXrXrXrX;X<X[.<X8X6X3X3X4X5X>X0X6X1X1X3X,XO.Z C I M.N.B.N.V.V.C.Z.F.F.-.K V T N.M.M.).rXrXrXrXrXrXrXrXrXrXrXrXrXrXrXrX",
"rXrXrXrXrXrXrXrXrX=X.X[.4X3X3X3X3X>X X<X8X7X3X3X4X5XO.C E Y m.M.N.N.N.N.N.N.B.N.M.m.m.M.M.m.V.rXrXrXrXrXrXrXrXrXrXrXrXrXrXrXrXrX",
"rXrXrXrXrXrXrXrXrX2X8X>X X1X3X3X<X.X.X4XwX0X1X>X3X2Xp.S m.m.M.M.M.M.M.m.m.m.m.m.m.n.n.n.n.n.Z.rXrXrXrXrXrXrXrXrXrXrXrXrXrXrXrXrX",
"rXrXrXrXrXrXrXrXrX;X<X6X].XX1X,X=X=X;X7XeXwX0X{.'.>Xd.Y m.m.m.m.m.M.M.M.m.n.T T T T Y Y U U H.rXrXrXrXrXrXrXrXrXrXrXrXrXrXrXrXrX",
"rXrXrXrXrXrXrXrXrX2X.X}.].|.XX[.{.{.[.,XwXeXwXW.[ J.+.Y n.b.T T T U U T T T U U U U U U U I rXrXrXrXrXrXrXrXrXrXrXrXrXrXrXrXrXrX",
"rXrXrXrXrXrXrXrXrXrX XXX}.}.:XXX!.~.~.Q. XqXwXs.4 G J S S L L U U U I I I Y T Y U U U Y Y @.rXrXrXrXrXrXrXrXrXrXrXrXrXrXrXrXrXrX",
"rXrXrXrXrXrXrXrXrXrXrX[.rXrXrXrX X!.~.`.R./.8Xa.1.z z z 2 9 9 K H L U Y U U U T T Y T Y A.rXrXrXrXrXrXrXrXrXrXrXrXrXrXrXrXrXrXrX",
"rXrXrXrXrXrXrXrXrXrXrXrXrXrXrXrXrX].`.Y...d Q.t.rX^.n ;   : g n ; . 4 F U U U I T T ! G.rXrXrXrXrXrXrXrXrXrXrXrXrXrXrXrXrXrXrXrX",
"rXrXrXrXrXrXrXrXrXrXrXrXrXrXrXrXrXx.7.0 3 , z ..rXrX8.g   ; k %.k   * ; 9 G K ..A.! G.rXrXrXrXrXrXrXrXrXrXrXrXrXrXrXrXrXrXrXrXrX",
"rXrXrXrXrXrXrXrXrXrXrXrXrXrXrXrXrX..3 4 3 3 3 0 rXrXM h n   g ; k n   ; h h h n rXrXrXrXrXrXrXrXrXrXrXrXrXrXrXrXrXrXrXrXrXrXrXrX",
"rXrXrXrXrXrXrXrXrXrXrXrXrXrXrXrXrX[ B 4 4 4 3 5 rXrXk c 5.g M ; 2.M * w h z l k r.rXrXrXrXrXrXrXrXrXrXrXrXrXrXrXrXrXrXrXrXrXrXrX",
"rXrXrXrXrXrXrXrXrXrXrXrXrXrXrXrXrX` C C V V G d.W.R.q.x.4.; 3.l.x.g ; M h h l l l rXrXrXrXrXrXrXrXrXrXrXrXrXrXrXrXrXrXrXrXrXrXrX",
"rXrXrXrXrXrXrXrXrXrXrXrXrXrXrXrXrXR I I F A O.rXrXk.; n g * ; M 5.; q.5.* w k l k c.rXrXrXrXrXrXrXrXrXrXrXrXrXrXrXrXrXrXrXrXrXrX",
"rXrXrXrXrXrXrXrXrXrXrXrXrXrXrXrXrXU U Y Y U ! rXrXrX;   * ; * * * ; j.R.n g l l l | rXrXrXrXrXrXrXrXrXrXrXrXrXrXrXrXrXrXrXrXrXrX",
"rXrXrXrXrXrXrXrXrXrXrXrXrXrXrXrXrXrXS.E U U ! rXrXrX3.* ; M g * * n g l.v.h l l k w rXrXrXrXrXrXrXrXrXrXrXrXrXrXrXrXrXrXrXrXrXrX",
"rXrXrXrXrXrXrXrXrXrXrXrXrXrXrXrXrXrXrXrXrXrXrXrXrXrXx.g * g n * * e.l.].q.; g h p * E.rXrXrXrXrXrXrXrXrXrXrXrXrXrXrXrXrXrXrXrXrX",
"rXrXrXrXrXrXrXrXrXrXrXrXrXrXrXrXrXrXrXrXrXrXrXrXrXrXrX3.k * n g * w 5.k.g * ; g ; * e.rXrXrXrXrXrXrXrXrXrXrXrXrXrXrXrXrXrXrXrXrX",
"rXrXrXrXrXrXrXrXrXrXrXrXrXrXrXrXrXrXrXrXrXrXrXrXrXrXrXrXe.M k 3.f * * * * ; k ; ; * q.rXrXrXrXrXrXrXrXrXrXrXrXrXrXrXrXrXrXrXrXrX",
"rXrXrXrXrXrXrXrXrXrXrXrXrXrXrXrXrXrXrXrXrXrXrXrXrXrXrXrXrXrXk.5.3.k * * * n g * ; * 5.rXrXrXrXrXrXrXrXrXrXrXrXrXrXrXrXrXrXrXrXrX",
"rXrXrXrXrXrXrXrXrXrXrXrXrXrXrXrXrXrXrXrXrXrXrXrXrXrXrXrXrXrXrXrXrXe.M g g n * * ; * e.rXrXrXrXrXrXrXrXrXrXrXrXrXrXrXrXrXrXrXrXrX",
"rXrXrXrXrXrXrXrXrXrXrXrXrXrXrXrXrXrXrXrXrXrXrXrXrXrXrXrXrXrXrXrXrXrXrXe.n M k g g * R.rXrXrXrXrXrXrXrXrXrXrXrXrXrXrXrXrXrXrXrXrX",
"rXrXrXrXrXrXrXrXrXrXrXrXrXrXrXrXrXrXrXrXrXrXrXrXrXrXrXrXrXrXrXrXrXrXrXrXrXU.q.q.e.W.rXrXrXrXrXrXrXrXrXrXrXrXrXrXrXrXrXrXrXrXrXrX",
"rXrXrXrXrXrXrXrXrXrXrXrXrXrXrXrXrXrXrXrXrXrXrXrXrXrXrXrXrXrXrXrXrXrXrXrXrXrXrXrXrXrXrXrXrXrXrXrXrXrXrXrXrXrXrXrXrXrXrXrXrXrXrXrX",
"rXrXrXrXrXrXrXrXrXrXrXrXrXrXrXrXrXrXrXrXrXrXrXrXrXrXrXrXrXrXrXrXrXrXrXrXrXrXrXrXrXrXrXrXrXrXrXrXrXrXrXrXrXrXrXrXrXrXrXrXrXrXrXrX"
};
