/* XPM */
static char *_6724d1d5d4342e1959e9b42c022bd3fNMAW7DM6X9O7a1LN[] = {
/* columns rows colors chars-per-pixel */
"64 66 251 2 ",
"   c None",
".  c #0C0607",
"X  c #0C2C09",
"o  c #392A0C",
"O  c #1C2A2F",
"+  c #27343A",
"@  c #2E322C",
"#  c #1F0F11",
"$  c #520F13",
"%  c #720613",
"&  c #4A3905",
"*  c #593908",
"=  c #523310",
"-  c #653408",
";  c #743109",
":  c #55312D",
">  c #6E212B",
",  c #1B5901",
"<  c #145D12",
"1  c #334D09",
"2  c #1E6200",
"3  c #1D6E17",
"4  c #256900",
"5  c #2B7A00",
"6  c #2C7113",
"7  c #307425",
"8  c #39403F",
"9  c #5A4405",
"0  c #4B4906",
"q  c #674B04",
"w  c #755505",
"e  c #7C5A05",
"r  c #795706",
"t  c #7A5515",
"y  c #6E4D0F",
"u  c #4A6209",
"i  c #4A4936",
"p  c #4C4A2B",
"a  c #6C5426",
"s  c #7B6231",
"d  c #2C3942",
"f  c #313D43",
"g  c #3C4A54",
"h  c #35434C",
"j  c #434B4A",
"k  c #414E5B",
"l  c #48545C",
"z  c #545A55",
"x  c #70544D",
"c  c #746A57",
"v  c #726D58",
"b  c #4B5867",
"n  c #535E67",
"m  c #56616B",
"M  c #576473",
"N  c #5E7C75",
"B  c #616D7A",
"V  c #6F7376",
"C  c #990618",
"Z  c #941108",
"A  c #AC1604",
"S  c #983B06",
"D  c #8D2F07",
"F  c #8B0722",
"G  c #8B3A30",
"H  c #AA2E0F",
"J  c #C61A04",
"K  c #D71D06",
"L  c #E61E06",
"P  c #DC2108",
"I  c #CD350E",
"U  c #E92309",
"Y  c #F9270B",
"T  c #FC2D13",
"R  c #F42A11",
"E  c #FE3116",
"W  c #FD381B",
"Q  c #E13408",
"!  c #825D05",
"~  c #885B05",
"^  c #935112",
"/  c #A64E1B",
"(  c #8C6406",
")  c #866106",
"_  c #946906",
"`  c #9C6D05",
"'  c #926606",
"]  c #9E7106",
"[  c #95681D",
"{  c #A56B05",
"}  c #A57406",
"|  c #AC7907",
" . c #A97607",
".. c #B37C06",
"X. c #B57C08",
"o. c #AA7817",
"O. c #A86817",
"+. c #8B5623",
"@. c #986627",
"#. c #896934",
"$. c #8F7431",
"%. c #B77826",
"&. c #A97A36",
"*. c #AA7732",
"=. c #A05A21",
"-. c #FF4222",
";. c #C37C22",
":. c #855955",
">. c #86795B",
",. c #917A46",
"<. c #867467",
"1. c #A9785B",
"2. c #2E8200",
"3. c #2C871C",
"4. c #2E8922",
"5. c #3B932A",
"6. c #4A8D38",
"7. c #738A36",
"8. c #6C8062",
"9. c #BB8206",
"0. c #B78107",
"q. c #BF8714",
"w. c #B8853C",
"e. c #B38934",
"r. c #C28606",
"t. c #C58906",
"y. c #CB8C06",
"u. c #CB8B0A",
"i. c #C58809",
"p. c #D18F06",
"a. c #CE9209",
"s. c #D49306",
"d. c #DD9907",
"f. c #DA9708",
"g. c #C48A14",
"h. c #D79714",
"j. c #C69311",
"k. c #E49C06",
"l. c #E39C0A",
"z. c #E79D09",
"x. c #E49C14",
"c. c #DEA60E",
"v. c #ECA206",
"b. c #ECA20A",
"n. c #E8A308",
"m. c #F3A606",
"M. c #F5A907",
"N. c #FAAD07",
"B. c #F2A60B",
"V. c #F6A90B",
"C. c #FBAD0A",
"Z. c #FEB30C",
"A. c #FFBB0C",
"S. c #FDB407",
"D. c #E9A315",
"F. c #F7AB15",
"G. c #FEB414",
"H. c #FFBB14",
"J. c #FFBC1A",
"K. c #FDB318",
"L. c #EAB413",
"P. c #C4842A",
"I. c #C88D3A",
"U. c #C8943B",
"Y. c #D39334",
"T. c #EDB32A",
"R. c #FEC50C",
"E. c #FEC315",
"W. c #FFC41B",
"Q. c #FFCC1C",
"!. c #FDCB15",
"~. c #FFD31E",
"^. c #FFD61A",
"/. c #FFD520",
"(. c #FFDC21",
"). c #FFE122",
"_. c #AA8646",
"`. c #B68A47",
"'. c #BC944B",
"]. c #B99655",
"[. c #B38E51",
"{. c #958973",
"}. c #AD9770",
"|. c #B3A87B",
" X c #9D8752",
".X c #C8974A",
"XX c #C79D56",
"oX c #CF964C",
"OX c #E29D46",
"+X c #CAA459",
"@X c #D7A559",
"#X c #D3A34A",
"$X c #E8A749",
"%X c #F7B658",
"&X c #EAAF54",
"*X c #C8A864",
"=X c #D8AB65",
"-X c #DAB468",
";X c #D0B473",
":X c #E7B76A",
">X c #F6B966",
",X c #ECBD72",
"<X c #E1BF73",
"1X c #C49C65",
"2X c #FDC56B",
"3X c #F5C578",
"4X c #FBCC7C",
"5X c #F9C675",
"6X c #FFD37B",
"7X c #FFDA7B",
"8X c #FFD474",
"9X c #E9C676",
"0X c #F6E07A",
"qX c #89929A",
"wX c #949492",
"eX c #A99698",
"rX c #B7A58B",
"tX c #B0AA93",
"yX c #9BA4AB",
"uX c #ABB0B2",
"iX c #959BA0",
"pX c #CCB593",
"aX c #C9B5A5",
"sX c #D1BBA7",
"dX c #DDC38B",
"fX c #FDCE80",
"gX c #FED783",
"hX c #EDCF90",
"jX c #FFE384",
"kX c #FFEB8C",
"lX c #FFE788",
"zX c #FFEE90",
"xX c #FFFB95",
"cX c #FFFD9C",
"vX c #FFF593",
"bX c #FEF98F",
"nX c #D7C5AB",
"mX c #D5CAB7",
"MX c #E4D5B8",
"NX c #FFFFA4",
"BX c #FFFFAA",
"VX c #FFFFB4",
"CX c #FAE5B7",
"ZX c #838EC2",
"AX c #BAC0C5",
"SX c #D1D4D5",
"DX c #EDD9CB",
"FX c #F6E8D0",
"GX c #E7EAEB",
"HX c #F3F6F8",
"JX c #CED4ED",
/* pixels */
"                                                                                                                                ",
"                          R.R.M.                                                                                                ",
"                      ^.c.0.0.0.d.                                                                                              ",
"                    a.n.M.A.L.] u.z.                                                                                            ",
"                (.(.!.a.9.y.M.L.9.s.B.                                                                                          ",
"                (./././.!.| s.M.f.r.d.                                                                                          ",
"              ~.Q.W.Q.W.W.c...s.z.r.z.W.                                                                                        ",
"              Q.L.G.C.J.J.H.` 9.u.D.~./.W.                                                                                      ",
"              Q.E.i.z.G.H.G.X.X.;XGX].J.J.F.                                                                                    ",
"              W.W.E.B.m.m.F.t s iXSXiXB.D.h.        T               CX                                                          ",
"              W.W.W.W.H.B.}.*.$.+.c o.X.{         W Y               hX                                                          ",
"              H.W.W.Q.W.W.G.k.i.{ w ~  .        -.T R             ;XhX                                                          ",
"              V.J.J.W.J.J.J.F.x.u.X.i.        W -.T U T E E       *X;X-X      CX                                                ",
"                b.K.J.K.K.K.F.x.u.XXa       W -.E Y L R T P       _.hX;X    fXhX                                                ",
"              b i b.D.F.F.D.x.g.( }.c       E -.Y Y L U E K   R T I ].hX*.  @X-X              CX                                ",
"              qXM j [ q.h.g.$.: h +X$.yX    T -.Y Y K L R R R T E S [.<X.X/ *.&.          9XhXhX                                ",
"              yXn AXuXB B m b iXuX Xe.#.  U T W Y U K K U K K P J - '.-X`.* q ^ =.      #X-X-X;X                                ",
"                n GXSXV b b g SXSXi *.[ t K Y E U K Y U J A A A Z e.+X@X7.3.3 3 7 D / @.e.XX=X                                  ",
"                e.B qXb b b g l h H Y +.; ^ Q I H T Y K U A ; D @.e..X.X5.4.3 3 3.- S / @._.'.                                  ",
"                H.Z.m.s.q.X.| ` ~ U Y Z 4 5 5 5 R R T T D 0 - ^ @.*.*.#.4.5.5.< 3.3.- S / +.                                    ",
"                  Z.H.C.v.k.i.{ { Y Y D 5 2.2.u Y Y J Z J 4 4 S ; +.+.7 3.5.6.7 3 4.4.* D /                                     ",
"                  m.C.C.v.l.y.r.i.Q Y Z 2.2., U Y A :.> 1 0 4 * D p rXsXtX6.5.4.6.rXMXFXFXFXFX                                  ",
"                    V.V.V.b.z.k.l.%.K S 5 4 Y Y J :.GXGX4 4 2 2 o 8 v {.tXnXMXMXMXMXMXMXmXMXDXFX1XXX-X<XdX                      ",
"                    V.C.F.B.b.M.>X* tX* , - A Z :.# G HX, 2 u U.e.p i v {.{.rXtXtXiXGXmXqX8.tXmXDX`.+X|.                        ",
"                      C.G.V.z.&X&X;X0X&.X X X ZXJXeXiXN 1 $X8X7X8X2Xa i v v  Xv v iXAXqXh + i ,.pXnX_.                          ",
"                        B.b.T.2XBXBX$.a 0X X1 p , 2 < q %X7XlX0XjX8X2X# @ p i i g g M d g.G.S.R.R.A.R.                          ",
"                          bXkXBXVXVXVXBXxXxXcXxX0X2X$.%X7XkXjX7X7X5X>X@ V i o j g M g o.MXY.P.T.A.A.R.A.                        ",
"                        xXxXvXBXVXVXVXBXxXcXNXcXxX0X2X2X7X6X6X8X2X>X@XO l p 9 z 7.{.+ mXGXyXM M M v F.S.A.                      ",
"                        cXxXlXcXNXNXNXxXbXNXNXcXcXkXlX8X2X2X>X@X@XOX'.O O e ^.).^.(.^.W.#.k V M M B SXgXA.S.                    ",
"                        kXvX7XcXNXcXbXkXxXNXNXcXbXkXgX6X>XI.[ *..X.X#.@ y ^.!.!.R.^.).^.^.Q.j.+ m yXHXHXe.A.                    ",
"                          lXgX6XzXkX8XjXvXcXvXzXlXlX6X>X@XZ ^ e..X&.O v R.R.S.S.M.R.^.).(.!.!.S.O h qXSXb B.                    ",
"                            gXgX:X:XoX7XkXzXkXlXgX6X>X@XG % ^ I.oXp g A.S.v.s.9.r.S.!.^./.Q.~.E.d.+ h B b >.B.                  ",
"                              3X>X@X&.>XgXgXgX4X,X>X.X<.$ $ O.I..X+ z N.v.p...` ! c.~./.~.Q.!.E.S.t + k b b l.                  ",
"                                  mX<.oX@.=X:X=X;XG Z % x o %..X&.O @ m.s.u.n.l.!././.~.Q.Q.Q.E.S.f.+ d b b                     ",
"                                        O.o $ F DXC C % c a P.oX&.O t k.u././.~./././.~.Q.Q.Q.E.A.v.+ + b uX                    ",
"                                        %.a > F % C C > . ^ I.OX#.s r { f.~.~././.~.Q.Q.Q.Q.W.E.H.S.@ d k GX                    ",
"                                        P.9 : F % F > wXc O.I.oXy #.,.#.>.B.G.C.m.Z.H.Q.~.Q.W.W.H.m.+ d m SX                    ",
"                                        %.aX@ % % 1.> . : O.oX`.#.,._._._.B...~ ' r.V.Q.W.Q.H.H.Z.k.d d b                       ",
"                                      I.%.@.t ; a 1.aX: %.I.oX.X,.[.].[._.W.S.M.C.A.W.W.J.W.W.J.Z.a d g                         ",
"                                    %XOXOXI.;.;.;.;.I.OXOX$X@X.X].]._.`.'.U.W.Q.W.J.G.J.J.J.J.G.h.h                             ",
"                                    6X8X2X%X%X$X$XT.$X%X>X:X@X1.].1X+X=X+X+XD.r.u.y.s.G.J.J.K.F.                                ",
"                                      fX6X5X8X2X2X%X>X2X>X>X=X=X=X:X=X=XXX+XT.J.J.W.W.Q.J.J.F.                                  ",
"                                      Z.p.y.Y.OX5X5X6X6X4X@XXXXX.XXX=X,X:X=XoXn.F.J.J.J.K.F.z.m.  ,.<X                          ",
"                                      k.y. .| ..fX4X5X3X,X4X,X,X3X5X3X,X:X=Xi.f.p.d.D.D.x.k.z.F.[ $.=X    |.                    ",
"                                    S.f.X...{ { oXfXgXfXfXgXfXfX4XfX5X,X@X@Xg.t.u.y.p.p.k.z.C.C.S.[ &.  a *X                    ",
"                                    S.p.X.| ' ' ~ <X3XfXgXfXfXfXfX3X,X=X:X+XX.r.r.y.p.d.k.m.Z.C.S.Z.z.k.+.'.-X                  ",
"                                    m.t.| ` ' ! ! e.,X3X3X,X,X,X,X,X,X:XXX| 0.9.t.p.p.p.k.m.N.S.Z.Z.m.C.V.h.D.A.H.              ",
"                                  S.v.y.| ' ~ r w q [ :X,X3X3X3X,X,X-XXX@. .| 9.r.r.X.y.p.m.N.C.Z.Z.B.C.Z.Z.G.H.H.J.            ",
"                                  N.b.y.| _ w w q q 9 9 `.-X-X-X=X*X.X_.( ] | | 0.0.9.t.f.v.C.S.Z.G.C.b.B.F.F.F.                ",
"                                  N.n.y.X._ w 9 0 & & & o     [.'.      w ) ` } }  .0.9.s.n.C.S.Z.A.S.f.l.l.                    ",
"                                  M.n.s.9.} ( w q 9 9 9                   q ! ' ` }  .0.y.k.V.S.S.Z.Z.                          ",
"                                  t.n.f.t...] ( ) w q q                       r ) _ } 0.t.d.M.C.C.S.Z.                          ",
"                                    s.p.9.0.} _ ( e r w                       0 & w ] 0.y.d.M.S.C.S.S.                          ",
"                                v.y.i.y.t.0. .` ( ) e w                       w r '  .9.a.d.n.N.N.N.C.                          ",
"                              m.f.n.y.9.9.0.} ` _ ) e w                       r ( ] 0.9.y.d.n.m.V.m.M.                          ",
"                            nXe.d.s.s.y.| ' ( ( ( ! ! e                       e _ ] 0.9.y.f.d.n.z.m.v.                          ",
"                            rX>.rX0.| y.9.] ( ) ! e e !                       w _ ] | 0.9.s.d.d.z.z.d.                          ",
"                              sX}.o.h.t.y.0. ._ ( ! ) (                       w ( ` ] 0.0.t.y.0.i.p.y.s.                        ",
"                                  pXaXd.a.u.r.| } } }                         q ) ) e _ } 9.9.y.k.f.f.b.V.                      ",
"                                  DXaXD.n.n.d.s.                              e ) ' _ } t.a.s.s.s.s.9.s.V.                      ",
"                                                                              ~ _  .0.t.r.t.X.` z.#X0.i.pXT.                    ",
"                                                                                9.r.y.a.f.U.e._  XaX|.s rXFX                    ",
"                                                                                  f.v.n.Y.nXnX .<.rXnXg.{.FX                    ",
"                                                                                        D.nXDX      DX                          ",
"                                                                                                                                ",
"                                                                                                                                "
};
