/* XPM */
static char *result[] = {
/* columns rows colors chars-per-pixel */
"64 64 216 2 ",
"   c gray2",
".  c #00010D",
"X  c #03010C",
"o  c #01020E",
"O  c #04040D",
"+  c #0B040D",
"@  c #0C0B0C",
"#  c #110104",
"$  c #1F0000",
"%  c #1C0106",
"&  c #1F0405",
"*  c #12020B",
"=  c #150E0B",
"-  c #1C130C",
";  c #010312",
":  c #040612",
">  c #060715",
",  c #090915",
"<  c #0C0E1C",
"1  c #150D13",
"2  c #0D111F",
"3  c gray8",
"4  c #1E1815",
"5  c #1E171C",
"6  c #1E1E1E",
"7  c #270103",
"8  c #220307",
"9  c #290000",
"0  c #300000",
"q  c #350303",
"w  c #390100",
"e  c #34040C",
"r  c #27150D",
"t  c #271B12",
"y  c #361010",
"u  c #331F10",
"i  c #3C111C",
"p  c #39240C",
"a  c #322213",
"s  c #382717",
"d  c #34231F",
"f  c #141520",
"g  c #151825",
"h  c #191B25",
"j  c #1E1E28",
"k  c #252120",
"l  c #282525",
"z  c #302828",
"x  c #37312D",
"c  c #383028",
"v  c #222432",
"b  c #252530",
"n  c #2B2C36",
"m  c #2E3038",
"M  c #313031",
"N  c #393939",
"B  c #400100",
"V  c #430201",
"C  c #420303",
"Z  c #4C0301",
"A  c #410A06",
"S  c #550301",
"D  c #540502",
"F  c #570705",
"G  c #5D0602",
"H  c #520B0B",
"J  c #451012",
"K  c #581011",
"L  c #610603",
"P  c #650703",
"I  c #6B0603",
"U  c #6C0A04",
"Y  c #630C0B",
"T  c #6B0E0D",
"R  c #740C05",
"E  c #7B0E06",
"W  c #75140E",
"Q  c #6B1314",
"!  c #6A151B",
"~  c #661818",
"^  c #422A0D",
"/  c #4A2E0B",
"(  c #51330B",
")  c #422115",
"_  c #5E2119",
"`  c #493113",
"'  c #573810",
"]  c #503A1F",
"[  c #603A0C",
"{  c #78201F",
"}  c #6A1F21",
"|  c #4F282D",
" . c #552221",
".. c #423427",
"X. c #443935",
"o. c #573639",
"O. c #7A2E2B",
"+. c #663432",
"@. c #783232",
"#. c #664315",
"$. c #57422A",
"%. c #484039",
"&. c #524439",
"*. c #554538",
"=. c #674A24",
"-. c #705024",
";. c #7C4038",
":. c #6C563A",
">. c #785C36",
",. c #7E643F",
"<. c #343540",
"1. c #393942",
"2. c #3D3F45",
"3. c #4F3A41",
"4. c #414142",
"5. c #42434A",
"6. c #4B4A4B",
"7. c #564742",
"8. c #5B4C40",
"9. c #5D4F44",
"0. c #474952",
"q. c #4B4C52",
"w. c #4E515A",
"e. c #525253",
"r. c #52545B",
"t. c #56565C",
"y. c #5B5B5B",
"u. c #724C46",
"i. c #645343",
"p. c #6A5645",
"a. c #6B5B4B",
"s. c #7B4E54",
"d. c #695A57",
"f. c #765E56",
"g. c #786354",
"h. c #575A61",
"j. c #5F6167",
"k. c #646468",
"l. c #6A6A6B",
"z. c #77686D",
"x. c #6D6E75",
"c. c #737375",
"v. c #7A7A7C",
"b. c #821006",
"n. c #851209",
"m. c #8E140A",
"M. c #95150B",
"N. c #9B170C",
"B. c #921C13",
"V. c #A1190D",
"C. c #942B23",
"Z. c #944138",
"A. c #864544",
"S. c #8F5150",
"D. c #897057",
"F. c #A36456",
"G. c #8E5B62",
"H. c #986866",
"J. c #847069",
"K. c #9A7374",
"L. c #AC6D70",
"P. c #968579",
"I. c #A78873",
"U. c #7C7E83",
"Y. c #808287",
"T. c #888085",
"R. c #87868A",
"E. c #8C8B8C",
"W. c #9B8789",
"Q. c #8F8D92",
"!. c #939296",
"~. c #989094",
"^. c #95959B",
"/. c #9D9C9D",
"(. c #A88889",
"). c #B3968E",
"_. c #9F9DA3",
"`. c #B59FA2",
"'. c #A5A3A6",
"]. c #A8A7AB",
"[. c #ACABAE",
"{. c #AFAFB1",
"}. c #B1B0B3",
"|. c #B4B3B5",
" X c #B8B6BA",
".X c #BBBABE",
"XX c #C69E83",
"oX c #CBA88C",
"OX c #CDAB93",
"+X c #C0A998",
"@X c #CCAF98",
"#X c #D3AF94",
"$X c #D8B499",
"%X c #C6B2A3",
"&X c #D7BBA5",
"*X c #D4C7BE",
"=X c #C0BFC2",
"-X c #C4C3C6",
";X c #C7C7CA",
":X c #C9C8CB",
">X c #CCCBCE",
",X c #D0CFD1",
"<X c #D1D0D3",
"1X c #D4D4D5",
"2X c #D8D7DA",
"3X c #D9D8DB",
"4X c #DCDCDD",
"5X c #E0E0E1",
"6X c #E1E0E3",
"7X c #E4E4E5",
"8X c #E7E7E9",
"9X c #EBEBEC",
"0X c #EFEFF0",
"qX c #F4F4F4",
"wX c #F9F9F9",
"eX c None",
/* pixels */
"eXeXeXeXeXeXeXeXeXeXeXeXeXeXeXeXeXeXeXeXeXeXeXeXeXeXeXeXeXeXeXeXeXeXeXeXeXeXeXeXeXeXeXeXeXeXeXeXeXeXeXeXeXeXeXeXeXeXeXeXeXeXeXeX",
"eXeXeXeXeXeXeXeXeXeXeXeXeXeXeXeXeXeXeXeXeXeXeXeXeXeXeXeXeXeXeXeXeXeXeXeXeXeXeXeXeXeXeXeXeXeXeXeXeXeXeXeXeXeXeXeXeXeXeXeXeXeXeXeX",
"eXeXeXeXeXeXeXeXeXeXeXeXeXeXeXeXeXeXeXeXeXeXeXeXeXeXeXeXeXeXeXeXeXeXeXeXeXeXeXeXeXeXeXeXeXeXeXeXeXeXeXeXeXeXeXeXeXeXeXeXeXeXeXeX",
"eXeXeXeXeXeXeXeXeXeXeXeXeXeXeXeXeXeXeXeXeXeXeX_.U.j.q.h.j.x.E.eXeXeXeXeXeXeXeXeXeXeXeXeXeXeXeXeXeXeXeXeXeXeXeXeXeXeXeXeXeXeXeXeX",
"eXeXeXeXeXeXeXeXeXeXeXeXeXeXeXeXeXeXeXeXeXU.h.w.5.<.<.5.*.a.,.` r k 5.c.eXeXeXeXeXeXeXeXeXeXeXeXeXeXeXeXeXeXeXeXeXeXeXeXeXeXeXeX",
"eXeXeXeXeXeXeXeXeXeXeXeXeXeXeXeXeXeXeXeXeXj.x.< , : 1 ] ,.P.#.' ^ r 4.h.r.h.k.!.eXeXeXeXeXeXeXeXeXeXeXeXeXeXeXeXeXeXeXeXeXeXeXeX",
"eXeXeXeXeXeXeXeXeXeXeXeXeXeXeXeXeXeXeXeXR.q.h.v , , p =.A.-./ - , > < f b 1.w.w.h.^.eXeXeXeXeXeXeXeXeXeXeXeXeXeXeXeXeXeXeXeXeXeX",
"eXeXeXeXeXeXeXeXeXeXeXeXeXeXeXeXeXeXeXeXv.v < <.b 3 ( [ -.' - @ , , > : > : < g <.x.R.eXeXeXeXeXeXeXeXeXeXeXeXeXeXeXeXeXeXeXeXeX",
"eXeXeXeXeXeXeXeXeXeXeXeXeXeXeXeXeXeXeX`.0.g . . 2 k ` [ =.` 3 3 > < < : < < 2 v w._.R.eXeXeXeXeXeXeXeXeXeXeXeXeXeXeXeXeXeXeXeXeX",
"eXeXeXeXeXeXeXeXeXeXeXeXeXeXeXeXeXeXeXG.3.> . . . 3 a ^ ] c m <.<.<.1.1.2.w.h.h.0.v w.eXeXeXeXeXeXeXeXeXeXeXeXeXeXeXeXeXeXeXeXeX",
"eXeXeXeXeXeXeXeXeXeXeXeXeXeXeXeXeXeX`.L.s.; ; . . t a a s 3 ; ; > < 2 2 2 2 > . . . <.eXeXeXeXeXeXeXeXeXeXeXeXeXeXeXeXeXeXeXeXeX",
"eXeXeXeXeXeXeXeXeXeXeXeXeXeXeXeXeXeX).G.S.| * . o t a a a @ o o . . . . . . . . . . <.eXeXeXu.{ H.K.eXeXeXeXeXeXeXeXeXeXeXeXeXeX",
"eXeXeXeXeXeXeXeXeXeXeXeXeXeXeXeXeXeXK.A.T ! } i * u a a t O o o . . . . . . . . ; . j h.K.@.R E E E W L.eXeXeXeXeXeXeXeXeXeXeXeX",
"eXeXeXeXeXeXeXeXeXeXeXeXeXeXeXeXeXeXA.@.L L Y Q ~  .) u t o . o . . . X X ; . + e e 5 o.! C U b.E E E W H.eXeXeXeXeXeXeXeXeXeXeX",
"eXeXeXeXeXeXeXeXeXeXeXeXeXeXeXeXeX~.@.! L L L L P T Q ~ K e 8 * # # * K K C % H ! Q F ! Y q Z L U T { C.@.K.eXeXeXeXeXeXeXeXeXeX",
"eXeXeXeXeXeXeXeXeXeXeXeXeXeXl.m < J { U U I L Y P L L U T T T Y K F F T ! F Y Y L G L L G 0 9 B D s.eXeXeXeXeXeXeXeXeXeXeXeXeXeX",
"eXeXeXeXeXeXeXeXeXeXeXeXq.2 : ; % Q W U U U U U U P P P P P P P P P L U L L G U U L L G G 0 $ 9 w H +.(.eXeXeXeXeXeXeXeXeXeXeXeX",
"eXeXeXeXeXeXeXeXeXeX1.< : , , : * Y R E R R R U U U U U U P P P L L L E P P G U U L G G G 7 # $ 0 B S S.eXeXeXeXeXeXeXeXeXeXeXeX",
"eXeXeXeXeXeXq.: : : : , , , , > > 7 G R R R R R R U R U U U U U U P P R L U L P R L L G G q X # $ 0 V u.eXeXeXeXeXeXeXeXeXeXeXeX",
"eXeXeXeXeXeXeXm : , , , , , , , , + 7 G R E E E E R R R R U U R U U P U P L L P R L L G L Z + ; O # 9 +.eXeXeXeXeXeXeXeXeXeXeXeX",
"eXeXeXeXeXeXeXeX5.> > , , , , , , , + * q P E E E E E E R R R R R U G R P L L L R P L G G D % ; > , O - eXeXeXeXeXeXeXeXeXeXeXeX",
"eXeXeXeXeXeXeXeXeXc.1 : , , , , @ t a t 1 # C Y E E E E E E E E E E P U U G G G R L L D C % X X ; : , : f eXeXeXeXeXeXeXeXeXeXeX",
"eXeXeXeXeXeXeXeXeXeXeXf > , , , , t / / p - 4 )  ._ K D D G G G G G D U P G D V L L D q X ; : : : , , , > < v.eXeXeXeXeXeXeXeXeX",
"eXeXeXeXeXeXeXeXeXeXeXeX: , > , , @ p / ( ( ' =.p.g.$.+ # # & 7 7 7 7 D P G q * % 7 # X : > , , , , , , , , < eXeXeXeXeXeXeXeXeX",
"eXeXeXeXeXeXeXeXeXeXeXeXeXU.k.5., : 3 3 ^ ' =.>.,.>.' =     @ o : : X * % * X ; : ; ; > , , , > : , > > > 2 , h eXeXeXeXeXeXeXeX",
"eXeXeXeXeXeXeXeXeXeXeXeXeXc.j g , , > , s $.:.:.] ( ( ( / ^ / r O : > > : : > , , , , , > > , < f j j h 2 j j f h j.eXeXeXeXeXeX",
"eXeXeXeXeXeXeXeXeXeXeXeXeXeX0.; , , , 4 $.:.p.` / / / / ( [ [ ( p @ o O , > , , , , , , f n 3.0.0.r.h.t.0.1.m n c.eXeXeXeXeXeXeX",
"eXeXeXeXeXeXeXeXeXeXeXeXeXeXeXh.: > , c :.a.$.a p = @ @ = ^ ( p - + : > , , > , , h n 1.5.5.5.<.E.eXeXeXeXeXeXeXeXeXeXeXeXeXeXeX",
"eXeXeXeXeXeXeXeXeXeXeXeXeXeXeXeXY.g @ &.g.a.^ p = O : : : = = O > , , , , < f v m M 2.2.4.4.6.q.R.eXeXeXeXeXeXeXeXeXeXeXeXeXeXeX",
"eXeXeXeXeXeXeXeXeXeXeXeXeXeXeXeXeX'.j k 6.7.a a @ : , , , : > > : , f h j b m 1.N 2.6.6.6.6.q.y.c.eXeXeXeXeXeXeXeXeXeXeXeXeXeXeX",
"eXeXeXeXeXeXeXeXeXeXeXeXeXeXeXeXeXeXd.x k f - = X : : , , 2 f j v M M M M X.6.6.e.6.6.e.l.^.|.{.{.,XeXeXeXeXeXeXeXeXeXeXeXeXeXeX",
"eXeXeXeXeXeXeXeXeXeXeXeXeXeXeXeXeXeXP.9.&...k z 6 6 f 5 f z 4.%.d X.X.X.%.%.6.6.e.e.j./.=X1X0X7X;X-X4XeXeXeXeXeXeXeXeXeXeXeXeXeX",
"eXeXeXeXeXeXeXeXeXeXeXeXeXeXeXeXeXeX%XP.8.7.&.8.8.7.&.&.c c $.$.p %.%.X.4.6.q.e.y.J.{.-X>X,X0X0X7X3X1XeXeXeXeXeXeXeXeXeXeXeXeXeX",
"eXeXeXeXeXeXeXeXeXeXeXeXeXeXeXeXeXeX*X&XI.g.9.8.8.8.9.*.&.s i.a...X.c X.e.y.y.v./.2X5X3X5X8XqXqXqX5X>X>XeXeXeXeXeXeXeXeXeXeXeXeX",
"eXeXeXeXeXeXeXeXeXeXeXeXeXeXeXeXeXeX`.+X$XoXI.D.d.a.a.d.a.7.*.*.&.c t 6.l.c.!.'..X;X:X>X2X8XqXwXqX7X>X,XeXeXeXeXeXeXeXeXeXeXeXeX",
"eXeXeXeXeXeXeXeXeXeXeXeXeXeXeXeX(.7.8 g.&X$X$X#XOXoXoX@X).a.*.&.*.%.t 4.Q.=X-X{.}.'.=X;X:X-X2XqX0X7X;X;X9XeXeXeXeXeXeXeXeXeXeXeX",
"eXeXeXeXeXeXeXeXeXeXeXeXeXeXZ.C.R w $ y ).&X#X#X$X$X$X$X#Xg.8.8.*.*.d M {.eX1X1X4X[.|.8X6X:X|.>X6X3X;X1X1XeXeXeXeXeXeXeXeXeXeXeX",
"eXeXeXeXeXeXeXeXeXeXeXeXeXeXeXV.M.S $ # *.%X&X@X#X#X#X#XOXD.i.i.9.8.d %.=X.X{.1X5X1X}.}.=X=X X:X,X1X1X,X<X9XeXeXeXeXeXeXeXeXeXeX",
"eXeXeXeXeXeXeXeXeXeXeXeXeXeXeXL.N.N.G $ & f.&X$XoX#X#X#XXXD.f.a.i.o.e 7./.E.].3X4X5X5X=X_.=X8XqX0X1X>X;X1X>XeXeXeXeXeXeXeXeXeXeX",
"eXeXeXeXeXeXeXeXeXeXeXeXeXeXeXeXC.V.N.P 0 & g.@X$X#XoXXXI.,.@.O.B.n.L _ | z.=X4X4X5X7X9X;X9X8X5X5X8X1X|.-X,X<XeXeXeXeXeXeXeXeXeX",
"eXeXeXeXeXeXeXeXeXeXeXeXeXeXeXeX).M.M.N.E V A ;.F.F.Z.C.B.B.N.V.N.M.P Z C +.:X4X1X1X5X8X>X<X3X4X4X5X7X,X[.,X-XeXeXeXeXeXeXeXeXeX",
"eXeXeXeXeXeXeXeXeXeXeXeXeXeXeXeXeXB.m.M.M.m.m.M.N.V.N.N.N.N.N.N.M.m.R T Z +.<X3X4X4X6X7X,X|.>X4X4X4X4X3X[..X=XeXeXeXeXeXeXeXeXeX",
"eXeXeXeXeXeXeXeXeXeXeXeXeXeXeXeXeXZ.n.n.n.n.n.m.m.m.m.m.m.M.M.M.M.M.m.m.G s.2X4X>X1X8XqX3X.X.X,X4X4X1X|.>X7X2XeXeXeXeXeXeXeXeXeX",
"eXeXeXeXeXeXeXeXeXeXeXeXeXeXeXeXeXK.U U R R E E E E n.m.M.M.M.m.m.m.m.m.R u.>X`.].8XqXwX6X-X=X=X:X1X X'.5X,X-XeXeXeXeXeXeXeXeXeX",
"eXeXeXeXeXeXeXeXeXeXeXeXeXeXeXeXeXeXP U U U U U U U E E E U U E E E b.n.R @.J. .W.qXwXqX:X[.].].[. X}.'.{..X2XeXeXeXeXeXeXeXeXeX",
"eXeXeXeXeXeXeXeXeXeXeXeXeXeXeXeXeXeXO.R R U U U R E R P P P U U U L L G G K J w f.qX0X|.Q.^.^.!. X;X{.{. X|.eXeXeXeXeXeXeXeXeXeX",
"eXeXeXeXeXeXeXeXeXeXeXeXeXeXeXeXeXeXeXA.R E R E E U U U R U L H A r r & d d d 3.d.7X~.E._.^.!.|.eXeXeXeX[.eXeXeXeXeXeXeXeXeXeXeX",
"eXeXeXeXeXeXeXeXeXeXeXeXeXeXeXeXeXeXeXeXH.W E E P U U U F w # 3 M 6 1   3 M /.eX9.Q.i | T._.'.eXeXeXeXeXeXeXeXeXeXeXeXeXeXeXeXeX",
"eXeXeXeXeXeXeXeXeXeXeXeXeXeXeXeXeXeXeXeXeXH.W A.| A J r 3 @   l %.l 3   6 q.eXeX| d 9 0 y 7.c.eXeXeXeXeXeXeXeXeXeXeXeXeXeXeXeXeX",
"eXeXeXeXeXeXeXeXeXeXeXeXeXeXeXeXeXeXeXeXeXeXeXeXM k k k 3   M l 3 6   M k N eXeXy 0 0 0 w 0 | eXeXeXeXeXeXeXeXeXeXeXeXeXeXeXeXeX",
"eXeXeXeXeXeXeXeXeXeXeXeXeXeXeXeXeXeXeXeXeXeXeXt.l z d k t @ N 2.3 N 6 6.b l eXeXq 0 w w w B  .eXeXeXeXeXeXeXeXeXeXeXeXeXeXeXeXeX",
"eXeXeXeXeXeXeXeXeXeXeXeXeXeXeXeXeXeXeXeXeXeXeXz z z k k N 3 6 c.k.4.3 5.c.e.E.W.u.J V V Z Z _ eXeXeXeXeXeXeXeXeXeXeXeXeXeXeXeXeX",
"eXeXeXeXeXeXeXeXeXeXeXeXeXeXeXeXeXeXeXeXeXeXv.l z l t @ 6.e.3 6.N 3 @ 6 M 3 l.eXeX+.D F P P Y eXeXeXeXeXeXeXeXeXeXeXeXeXeXeXeXeX",
"eXeXeXeXeXeXeXeXeXeXeXeXeXeXeXeXeXeXeXeXeXeXX.z z z 6 M E.j.3 @ @ @ 3 @   3 eXeXeXW U R R U U eXeXeXeXeXeXeXeXeXeXeXeXeXeXeXeXeX",
"eXeXeXeXeXeXeXeXeXeXeXeXeXeXeXeXeXeXeXeXeXeXt l z z k z.k.6 M @ @ 6 N 3 @ 4.eXeXeXW U U T S.eXeXeXeXeXeXeXeXeXeXeXeXeXeXeXeXeXeX",
"eXeXeXeXeXeXeXeXeXeXeXeXeXeXeXeXeXeXeXeXeXR.@ f k 6 3 e.'.k.y.@ @ M 6 @ 6 c.eXeXeXeXeXeXeXeXeXeXeXeXeXeXeXeXeXeXeXeXeXeXeXeXeXeX",
"eXeXeXeXeXeXeXeXeXeXeXeXeXeXeXeXeXeXeXeXeXy.@ 3 6 3 @ 6 l.6.t @ 6 M @ l 4.eXeXeXeXeXeXeXeXeXeXeXeXeXeXeXeXeXeXeXeXeXeXeXeXeXeXeX",
"eXeXeXeXeXeXeXeXeXeXeXeXeXeXeXeXeXeXeXeXeXe.@ 3 3 l 3 @ @ @ @ h 4.l N y.eXeXeXeXeXeXeXeXeXeXeXeXeXeXeXeXeXeXeXeXeXeXeXeXeXeXeXeX",
"eXeXeXeXeXeXeXeXeXeXeXeXeXeXeXeXeXeXeXeXeX6.@ 3 @ 6 M @ @ @ l 4.6.l.eXeXeXeXeXeXeXeXeXeXeXeXeXeXeXeXeXeXeXeXeXeXeXeXeXeXeXeXeXeX",
"eXeXeXeXeXeXeXeXeXeXeXeXeXeXeXeXeXeXeXeXeXy.@ 3 @ @ M 6 6 N y.eXeXeXeXeXeXeXeXeXeXeXeXeXeXeXeXeXeXeXeXeXeXeXeXeXeXeXeXeXeXeXeXeX",
"eXeXeXeXeXeXeXeXeXeXeXeXeXeXeXeXeXeXeXeXeXE.@ 6 6 l N M y.eXeXeXeXeXeXeXeXeXeXeXeXeXeXeXeXeXeXeXeXeXeXeXeXeXeXeXeXeXeXeXeXeXeXeX",
"eXeXeXeXeXeXeXeXeXeXeXeXeXeXeXeXeXeXeXeXeXeXW.y.e.e.U.eXeXeXeXeXeXeXeXeXeXeXeXeXeXeXeXeXeXeXeXeXeXeXeXeXeXeXeXeXeXeXeXeXeXeXeXeX",
"eXeXeXeXeXeXeXeXeXeXeXeXeXeXeXeXeXeXeXeXeXeXeXeXeXeXeXeXeXeXeXeXeXeXeXeXeXeXeXeXeXeXeXeXeXeXeXeXeXeXeXeXeXeXeXeXeXeXeXeXeXeXeXeX",
"eXeXeXeXeXeXeXeXeXeXeXeXeXeXeXeXeXeXeXeXeXeXeXeXeXeXeXeXeXeXeXeXeXeXeXeXeXeXeXeXeXeXeXeXeXeXeXeXeXeXeXeXeXeXeXeXeXeXeXeXeXeXeXeX"
};
