/* XPM */
static char *_c4fce7cce31434da62b746c85ab4cee8m30y4LL82jOr9SU[] = {
/* columns rows colors chars-per-pixel */
"64 64 256 2 ",
"   c black",
".  c #010101",
"X  c #020202",
"o  c gray1",
"O  c #040404",
"+  c gray2",
"@  c #060606",
"#  c #070707",
"$  c gray3",
"%  c #090909",
"&  c gray4",
"*  c #0B0B0B",
"=  c #0C0C0C",
"-  c gray5",
";  c #0E0E0E",
":  c gray6",
">  c #101010",
",  c #111111",
"<  c gray7",
"1  c #131313",
"2  c gray8",
"3  c #151515",
"4  c #161616",
"5  c gray9",
"6  c #181818",
"7  c #191919",
"8  c gray10",
"9  c #1B1B1B",
"0  c gray11",
"q  c #1D1D1D",
"w  c #1E1E1E",
"e  c gray12",
"r  c #202020",
"t  c gray13",
"y  c #222222",
"u  c #232323",
"i  c gray14",
"p  c #252525",
"a  c gray15",
"s  c #272727",
"d  c #282828",
"f  c gray16",
"g  c #2A2A2A",
"h  c gray17",
"j  c #2C2C2C",
"k  c #2D2D2D",
"l  c gray18",
"z  c #2F2F2F",
"x  c gray19",
"c  c #313131",
"v  c #323232",
"b  c gray20",
"n  c #343434",
"m  c #353535",
"M  c gray21",
"N  c #373737",
"B  c gray22",
"V  c #393939",
"C  c #3A3A3A",
"Z  c gray23",
"A  c #3C3C3C",
"S  c gray24",
"D  c #3E3E3E",
"F  c #3F3F3F",
"G  c gray25",
"H  c #414141",
"J  c gray26",
"K  c #434343",
"L  c #444444",
"P  c gray27",
"I  c #464646",
"U  c gray28",
"Y  c #484848",
"T  c #494949",
"R  c gray29",
"E  c #4B4B4B",
"W  c #4C4C4C",
"Q  c gray30",
"!  c #4E4E4E",
"~  c gray31",
"^  c #505050",
"/  c #515151",
"(  c gray32",
")  c #535353",
"_  c gray33",
"`  c #555555",
"'  c #565656",
"]  c gray34",
"[  c #585858",
"{  c gray35",
"}  c #5A5A5A",
"|  c #5B5B5B",
" . c gray36",
".. c #5D5D5D",
"X. c gray37",
"o. c #5F5F5F",
"O. c #606060",
"+. c gray38",
"@. c #626262",
"#. c gray39",
"$. c #646464",
"%. c #656565",
"&. c gray40",
"*. c #676767",
"=. c #686868",
"-. c DimGray",
";. c #6A6A6A",
":. c gray42",
">. c #6C6C6C",
",. c #6D6D6D",
"<. c gray43",
"1. c #6F6F6F",
"2. c gray44",
"3. c #717171",
"4. c #727272",
"5. c gray45",
"6. c #747474",
"7. c gray46",
"8. c #767676",
"9. c #777777",
"0. c gray47",
"q. c #797979",
"w. c gray48",
"e. c #7B7B7B",
"r. c #7C7C7C",
"t. c gray49",
"y. c #7E7E7E",
"u. c gray50",
"i. c #808080",
"p. c #818181",
"a. c gray51",
"s. c #838383",
"d. c #848484",
"f. c gray52",
"g. c #868686",
"h. c gray53",
"j. c #888888",
"k. c #898989",
"l. c gray54",
"z. c #8B8B8B",
"x. c gray55",
"c. c #8D8D8D",
"v. c #8E8E8E",
"b. c gray56",
"n. c #909090",
"m. c gray57",
"M. c #929292",
"N. c #939393",
"B. c gray58",
"V. c #959595",
"C. c gray59",
"Z. c #979797",
"A. c #989898",
"S. c gray60",
"D. c #9A9A9A",
"F. c #9B9B9B",
"G. c gray61",
"H. c #9D9D9D",
"J. c gray62",
"K. c #9F9F9F",
"L. c #A0A0A0",
"P. c gray63",
"I. c #A2A2A2",
"U. c gray64",
"Y. c #A4A4A4",
"T. c #A5A5A5",
"R. c gray65",
"E. c #A7A7A7",
"W. c gray66",
"Q. c #A9A9A9",
"!. c #AAAAAA",
"~. c gray67",
"^. c #ACACAC",
"/. c gray68",
"(. c #AEAEAE",
"). c #AFAFAF",
"_. c gray69",
"`. c #B1B1B1",
"'. c #B2B2B2",
"]. c gray70",
"[. c #B4B4B4",
"{. c gray71",
"}. c #B6B6B6",
"|. c #B7B7B7",
" X c gray72",
".X c #B9B9B9",
"XX c gray73",
"oX c #BBBBBB",
"OX c #BCBCBC",
"+X c gray74",
"@X c gray",
"#X c gray75",
"$X c #C0C0C0",
"%X c #C1C1C1",
"&X c gray76",
"*X c #C3C3C3",
"=X c gray77",
"-X c #C5C5C5",
";X c #C6C6C6",
":X c gray78",
">X c #C8C8C8",
",X c gray79",
"<X c #CACACA",
"1X c #CBCBCB",
"2X c gray80",
"3X c #CDCDCD",
"4X c #CECECE",
"5X c gray81",
"6X c #D0D0D0",
"7X c gray82",
"8X c #D2D2D2",
"9X c LightGray",
"0X c gray83",
"qX c #D5D5D5",
"wX c gray84",
"eX c #D7D7D7",
"rX c #D8D8D8",
"tX c gray85",
"yX c #DADADA",
"uX c gray86",
"iX c gainsboro",
"pX c #DDDDDD",
"aX c gray87",
"sX c #DFDFDF",
"dX c gray88",
"fX c #E1E1E1",
"gX c #E2E2E2",
"hX c gray89",
"jX c #E4E4E4",
"kX c gray90",
"lX c #E6E6E6",
"zX c #E7E7E7",
"xX c gray91",
"cX c #E9E9E9",
"vX c #EAEAEA",
"bX c gray92",
"nX c #ECECEC",
"mX c gray93",
"MX c #EEEEEE",
"NX c #EFEFEF",
"BX c gray94",
"VX c #F1F1F1",
"CX c gray95",
"ZX c #F3F3F3",
"AX c #F4F4F4",
"SX c gray96",
"DX c #F6F6F6",
"FX c gray97",
"GX c #F8F8F8",
"HX c #F9F9F9",
"JX c gray98",
"KX c #FBFBFB",
"LX c gray99",
"PX c #FDFDFD",
"IX c #FEFEFE",
"UX c white",
/* pixels */
"m.8XiX2XA.O.j 0 6.3XpXuXuXuXuXuXuXuXuXeX(.7.G 4 R ].pXuXuXuXuXuXuXuXuXuX&Xz._ t d c.wXiXuXuXuXuXuXuXuXuX7XP.=.n 5 #.=XpXuXuXuXuX",
"A.iXlXeXT.,.b e d.xXCXzXkXkXkXkXkXkXlXfXXXa.R 7 _ 2XSXvXkXkXkXkXkXkXkXkX4XA.O.a l P.VXNXlXkXkXkXkXkXkXlXiX/.7.A 8 3.sXZXxXkXkXkX",
"d.#X>X+XA.:.b e d.lXgX2X:X:X:X:X:X:X:X=XE.y.R 7 ` 1XnX8X:X:X:X:X:X:X:X:X}.v.o.a l P.mXiX,X:X:X:X:X:X:X>X$XJ.5.A 8 3.pXzX4X:X:X:X",
"r.{.+X].N.:.b e d.kXpX%XOXOXOXOXOXOXOX.XL.r.R 7 ` 1XxX,XOXOXOXOXOXOXOXOX^.l.o.a l P.bXqX@XOXOXOXOXOXOXOX}.A.4.A 8 3.pXgX=XOXOXOX",
"r.{.+X].N.:.b e d.kXpX%XOXOXOXOXOXOXOX.XL.r.R 7 ` 1XxX,XOXOXOXOXOXOXOXOX/.l.o.a l P.bXqX@XOXOXOXOXOXOXOX}.A.4.A 8 3.pXgX=XOXOXOX",
"r.{.+X].N.:.b e d.kXpX%XOXOXOXOXOXOXOX.XL.r.R 7 ` 1XxX,XOXOXOXOXOXOXOXOX/.l.o.a l P.bXqX@XOXOXOXOXOXOXOX}.A.4.A 8 3.pXgX=XOXOXOX",
"r.{.+X].N.:.b e d.kXpX%XOXOXOXOXOXOXOX.XL.r.R 7 ` 1XxX,XOXOXOXOXOXOXOXOX/.l.o.a l P.bXqX@XOXOXOXOXOXOXOX}.A.4.A 8 3.pXgX=XOXOXOX",
"r.{.+X].N.:.b e d.kXpX%XOXOXOXOXOXOXOX.XL.r.R 7 ` 1XxX,XOXOXOXOXOXOXOXOX/.l.o.a l P.bXqX@XOXOXOXOXOXOXOX}.A.4.A 8 3.pXgX=XOXOXOX",
"r.{.+X].N.:.b e d.kXpX%XOXOXOXOXOXOXOX.XL.r.R 7 ` 1XxX,XOXOXOXOXOXOXOXOX/.l.o.a l P.bXqX@XOXOXOXOXOXOXOX}.A.4.A 8 3.pXgX=XOXOXOX",
"r.{.+X].N.:.b e f.kXpX%XOXOXOXOXOXOXOX.XL.r.R 7 ` 1XxX,XOXOXOXOXOXOXOXOX/.l.o.a l I.bXqX@XOXOXOXOXOXOXOX}.A.4.A 8 3.pXgX=XOXOXOX",
"r.[.OX'.N.:.b e d.jXiX%XoXOXOXOXOXOXOX.XL.r.R 7 _ <XxX,XOXOXOXOXOXOXOXOX^.l.o.a l P.bXqX@XoXOXOXOXOXOXOX}.A.4.A 8 3.iXfX=XoXOXOX",
"3.U.~.U.x.;.b 0 5.:X*X(.!.!.!.!.!.!.!.W.C.q.R 7 T _.2X[.!.!.!.!.!.!.!.!.K.f.o.a d x.3X+X^.!.!.!.!.!.!.!.R.n.2.A 6 @.$X:X_.!.!.!.",
"} a.h.f.t.=.b 4 ^ c.m.k.h.h.h.h.h.h.h.h.i.6.R 5 b r.B.z.h.h.h.h.h.h.h.h.s.w.X.a q @.M.b.j.h.h.h.h.h.h.h.g.y.,.A 2 L h.M.l.h.h.h.",
"A ] | } } ^ d ; x ` | } } } } } } } } } } ] V , w R | | } } } } } } } } } } T w < C [ | } } } } } } } } } } _ z ; f / | } } } } ",
"5 t y y y w : + < r y y y y y y y y y y y t 4 @ * 0 y y y y y y y y y y y y 0 * @ 4 t y y y y y y y y y y y r < + : w y y y y y ",
"u b m m m m m n m m m b d 9 ; # 6 z M m m m m n n m m m k r 1 $ ; s m m m m m n n m m m c p 6 * $ w v M m m m m n m m m n g 0 , ",
"4.T.^.^.^.^.^.^.^.^.^.T.i.) g , T Z./.^.^.^.^.^.^.^.^.~.m.$.C 2 h t.!.^.^.^.^.^.^.^.^.^.K.7.T t 5 X.P./.^.^.^.^.^.^.^.^.W.h.{ n ",
"Y.nXVXnXnXnXnXnXnXnXnXhX'.9.S 7 ;.tXAXmXnXnXnXnXnXnXnXvX>Xc.) w D {.ZXNXnXnXnXnXnXnXnXnXuXY.-.x t h.zXCXmXnXnXnXnXnXnXnXzXoXu.E ",
"E.mXjX0X8X8X8X8X8X8X8X1XR.8.D 8 >.iXnXrX8X8X8X8X8X8X8X7X|.k.` w F  XVXsX9X8X8X8X8X8X8X8X-XF.;.c t l.cXzXqX8X8X8X8X8X8X8X4X/.t.W ",
"E.cXeX$X+X+X+X+X+X+X@X XD.6.D 8 >.yXjX;X+X+X+X+X+X+X@X+XW.d.` w F  XnX6X@X+X+X+X+X+X+X@X].M.-.c t l.zXiX&X+X+X+X+X+X+X@XXXL.w.W ",
"E.cXwX#XOXOXOXOXOXOXOX}.S.5.D 8 >.yXhX-XOXOXOXOXOXOXOXoXE.s.` w F  XbX5X+XOXOXOXOXOXOXOX'.m.-.c t l.lXuX%XOXOXOXOXOXOXOX.XK.q.W ",
"E.cXwX#XOXOXOXOXOXOXOX|.S.5.D 8 >.yXhX-XOXOXOXOXOXOXOXoXE.s.` w F  XbX5X+XOXOXOXOXOXOXOX'.m.-.c t l.lXuX%XOXOXOXOXOXOXOX.XK.q.W ",
"E.cXwX#XOXOXOXOXOXOXOX|.S.5.D 8 >.yXhX-XOXOXOXOXOXOXOXoXE.s.` w F  XbX5X+XOXOXOXOXOXOXOX'.m.-.c t l.lXuX%XOXOXOXOXOXOXOX.XK.q.W ",
"E.cXwX#XOXOXOXOXOXOXOX|.S.5.D 8 >.yXhX-XOXOXOXOXOXOXOXoXE.s.` w F  XbX5X+XOXOXOXOXOXOXOX'.m.-.c t l.lXuX%XOXOXOXOXOXOXOX.XK.q.W ",
"E.cXwX#XOXOXOXOXOXOXOX|.S.5.D 8 >.yXhX-XOXOXOXOXOXOXOXoXE.s.` w F  XbX5X+XOXOXOXOXOXOXOX'.m.-.c t l.lXuX%XOXOXOXOXOXOXOX.XK.q.W ",
"E.cXwX#XOXOXOXOXOXOXOX|.S.5.D 8 >.yXhX-XOXOXOXOXOXOXOXoXE.s.` w F  XbX5X+XOXOXOXOXOXOXOX'.m.-.c t l.lXuX%XOXOXOXOXOXOXOX.XK.q.W ",
"E.vXeX#XOXOXOXOXOXOX+X|.D.5.D 8 >.uXjX-XOXOXOXOXOXOXOXoXE.s.` w G  XnX5X+XOXOXOXOXOXOX+X'.m.-.c t l.zXiX%XOXOXOXOXOXOX+X.XK.q.W ",
"H.iX2X|.[.[.[.[.[.[.[.).C.5.D 7 &.4XeXOX[.[.[.[.[.[.[.].P.a.` w A /.sX-X{.[.[.[.[.[.[.[.~.v.=.c r a.tX7X X[.[.[.[.[.[.[.`.D.0.W ",
"8.W.I.C.V.V.V.V.V.V.V.N.g.2.F 4 W G.W.S.V.V.V.V.V.V.V.V.x.e.` w k a.~.J.V.V.V.V.V.V.V.V.m.a.=.c 7 +.T.Y.Z.V.V.V.V.V.V.V.B.k.7.Q ",
"E ,.2.<.<.<.<.<.<.<.<.,.>.#.V , c $.3.<.<.<.<.<.<.<.<.<.,.-.Q 9 q ) 2.1.<.<.<.<.<.<.<.<.,.>...k < D :.2.<.<.<.<.<.<.<.<.<.>.&.I ",
"i n N N N N N B N N N N N b q $ 5 x N N N N N B N N N N N M d - - s M N N N N N N N N N N N x 5 $ q b N N N N N B N N N N N m i ",
"1 0 q 9 5 , - * 1 9 q q q 0 7 4 6 0 q 0 7 1 ; * : 7 q q q q 9 4 4 9 q q 8 3 > = = 4 0 q q q 0 6 4 7 0 q 0 5 < - * < 9 q q q q 8 ",
"( 9.t.6.' M 7 : H 5.t.r.r.r.r.t.t.r.r.w.#.J i = f $.r.r.r.r.r.t.t.r.r.r.<.! z < 4 ~ q.r.r.r.r.t.t.r.r.t.9.| Z q - N <.t.r.r.r.r.",
"V.tXhX9XJ.$.l q q.wXkXgXgXgXgXgXgXgXgXaX[.w.K 5 Q XXkXhXgXgXgXgXgXgXgXgX,Xn.[ u g N.sXjXgXgXgXgXgXgXgXgXrXE.,.N 6 *.2XkXgXgXgXgX",
"N.wXdX8XI.,.b r f.cXNXfXsXsXsXsXsXsXsXuX}.a.R 8 ` 2XAXkXsXsXsXsXsXsXsXsX,XC.O.a l I.VXbXdXsXsXsXsXsXsXsXwX!.7.A 8 3.dXVXhXsXsXsX",
"i.oX*X XC.:.b e d.kXdX:X&X&X&X&X&X&X*X$XY.t.R 7 ` 1XvX4X&X&X&X&X&X&X&X&X'.c.o.a l P.nXtX=X&X&X&X&X&X&X*XOXG.4.A 8 3.pXkX<X&X&X&X",
"r.[.OX'.N.:.b e d.kXpX%XoXOXOXOXOXOXOX.XL.r.R 7 ` 1XxX,XOXOXOXOXOXOXOXOX^.l.o.a l P.bXqX@XOXOXOXOXOXOXOX}.A.4.A 8 3.pXgX=XoXOXOX",
"r.{.+X].N.:.b e d.kXpX%XOXOXOXOXOXOXOX.XL.r.R 7 ` 1XxX,XOXOXOXOXOXOXOXOX/.l.o.a l P.bXqX@XOXOXOXOXOXOXOX}.A.4.A 8 3.pXgX=XOXOXOX",
"r.{.+X].N.:.b e d.kXpX%XOXOXOXOXOXOXOX.XL.r.R 7 ` 1XxX,XOXOXOXOXOXOXOXOX/.l.o.a l P.bXqX@XOXOXOXOXOXOXOX}.A.4.A 8 3.pXgX=XOXOXOX",
"r.{.+X].N.:.b e d.kXpX%XOXOXOXOXOXOXOX.XL.r.R 7 ` 1XxX,XOXOXOXOXOXOXOXOX/.l.o.a l P.bXqX@XOXOXOXOXOXOXOX}.A.4.A 8 3.pXgX=XOXOXOX",
"r.{.+X].N.:.b e d.kXpX%XOXOXOXOXOXOXOX.XL.r.R 7 ` 1XxX,XOXOXOXOXOXOXOXOX/.l.o.a l P.bXqX@XOXOXOXOXOXOXOX}.A.4.A 8 3.pXgX=XOXOXOX",
"r.{.+X].N.:.b e d.kXpX%XOXOXOXOXOXOXOX.XL.r.R 7 ` 1XxX,XOXOXOXOXOXOXOXOX/.l.o.a l P.bXqX@XOXOXOXOXOXOXOX}.A.4.A 8 3.pXgX=XOXOXOX",
"r.{.+X].N.:.b e f.kXpX%XOXOXOXOXOXOXOX.XL.r.R 7 ` 1XcX<XOXOXOXOXOXOXOXOX/.l.o.a l I.bXqX@XOXOXOXOXOXOXOX}.A.4.A 8 3.pXgX=XOXOXOX",
"e.].oX`.M.:.b e s.gXyX#XXXXXXXXXXXXXXX|.K.e.R 7 ) >XkX:XXXXXXXXXXXXXXXXX~.l.o.a k K.xX9XOXXXXXXXXXXXXXXX[.Z.4.A 8 1.yXsX&XXXXXXX",
">.G.U.H.k.;.b 9 :.XX XR.I.I.I.I.I.I.I.P.m.0.R 6 L T.$X~.I.I.I.I.I.I.I.I.S.s.o.a a s.$X].Y.I.I.I.I.I.I.U.K.x.2.A 5 | [.OXW.I.I.I.",
"_ q.u.t.0.&.v 2 Y u.f.u.y.y.y.y.y.y.y.y.w.2.T 5 l 2.h.p.y.y.y.y.y.y.y.y.r.8. .a 8 [ d.s.u.y.y.y.y.y.y.y.t.q.:.Z 1 D w.g.i.y.y.y.",
"b R ! Q ! P y = d Y ! Q Q ! ! ! ! Q Q Q ! E v : 8 F Q Q Q Q ! ! ! Q Q Q Q ! F 8 : c E Q Q Q ! ! ! ! Q Q Q ! Y d = y P ! Q Q ! ! ",
"< 7 9 8 9 6 ; # > 7 9 8 8 7 6 5 6 8 8 8 9 8 < $ * 4 9 8 8 7 6 5 6 7 8 8 8 9 4 * $ < 8 9 8 7 6 5 5 7 8 8 8 9 7 > # ; 6 9 8 8 7 6 ",
"b R Q Q Q Q Q Q Q Q Q R V p 1 $ t L Q Q Q Q Q Q Q Q Q Q H k 8 % 1 B W Q Q Q Q Q Q Q Q Q U m t : & g Y Q Q Q Q Q Q Q Q Q E A d 5 ",
"s.@X;X-X-X-X-X-X-X-X-X+XN.o.c 2 ` /.;X-X-X-X-X-X-X-X-X=XR.5.K 6 v n.=X-X-X-X-X-X-X-X-X-X}.g._ a 8 >..X;X-X-X-X-X-X-X-X-X%XD.&.A ",
"E.NXCXvXvXvXvXvXvXvXvXfX'.0.D 8 >.iXDXnXvXvXvXvXvXvXvXxX:Xv.` w F  XDXNXvXvXvXvXvXvXvXvXtXY.:.x t k.bXZXbXvXvXvXvXvXvXvXkXoXi.W ",
"E.bXsX3X1X1X1X1X1X1X1X-XI.7.D 8 >.uXcX8X1X1X1X1X1X1X1X<X'.h.` w F  XNXyX2X1X1X1X1X1X1X2X#XA.;.c t l.xXhX5X1X1X1X1X1X1X1X>XW.r.W ",
"E.cXwX#XOXOXOXOXOXOXOX|.D.5.D 8 >.yXhX-XOXOXOXOXOXOXOXoXE.s.` w F  XbX5X+XOXOXOXOXOXOXOX'.m.-.c t l.lXiX%XOXOXOXOXOXOXOX.XK.q.W ",
"E.cXwX#XOXOXOXOXOXOXOX|.S.5.D 8 >.yXhX-XOXOXOXOXOXOXOXoXE.s.` w F  XbX5X+XOXOXOXOXOXOXOX'.m.-.c t l.lXuX%XOXOXOXOXOXOXOX.XK.q.W ",
"E.cXwX#XOXOXOXOXOXOXOX|.S.5.D 8 >.yXhX-XOXOXOXOXOXOXOXoXE.s.` w F  XbX5X+XOXOXOXOXOXOXOX'.m.-.c t l.lXuX%XOXOXOXOXOXOXOX.XK.q.W ",
"E.cXwX#XOXOXOXOXOXOXOX|.S.5.D 8 >.yXhX-XOXOXOXOXOXOXOXoXE.s.` w F  XbX5X+XOXOXOXOXOXOXOX'.m.-.c t l.lXuX%XOXOXOXOXOXOXOX.XK.q.W ",
"E.cXwX#XOXOXOXOXOXOXOX|.S.5.D 8 >.yXhX-XOXOXOXOXOXOXOXoXE.s.` w F  XbX5X+XOXOXOXOXOXOXOX'.m.-.c t l.lXuX%XOXOXOXOXOXOXOX.XK.q.W ",
"E.cXwX#XOXOXOXOXOXOXOX|.S.5.D 8 >.yXhX-XOXOXOXOXOXOXOXoXE.s.` w F  XbX5X+XOXOXOXOXOXOXOX'.m.-.c t l.lXuX%XOXOXOXOXOXOXOX.XK.q.W ",
"E.cXwX#XOXOXOXOXOXOXOX|.S.5.D 8 >.yXhX-XOXOXOXOXOXOXOXoXE.s.` w F  XbX5X+XOXOXOXOXOXOXOX'.m.-.c t l.lXuX%XOXOXOXOXOXOXOX.XK.q.W ",
"E.cXeX#XOXOXOXOXOXOXOX|.D.5.D 8 >.uXhX-XOXOXOXOXOXOXOXoXE.s.` w F  XnX5X+XOXOXOXOXOXOXOX'.m.-.c t l.zXiX%XOXOXOXOXOXOXOX.XK.q.W ",
"C.9X=X`.(.(.(.(.(.(.).!.N.4.D 6 +.-X5X}.(.(.(.(.(.(.(.(.J.i.` w V T.qX@X).(.(.(.(.(.(.).R.x.=.c e r.6X>X'.(.(.(.(.(.(.).^.Z.0.Q ",
">.D.C.v.c.c.c.c.c.c.c.z.a.2.F 3 I v.F.n.c.c.c.c.c.c.c.x.g.q.` w f 9.H.B.c.c.c.c.c.c.c.c.l.u.*.c 6 { Z.A.v.c.c.c.c.c.c.c.x.s.5.Q ",
"J o.#.@.@.@.@.@.@.@.@.@.+.} n > g ] #.@.@.@.@.@.@.@.@.@.+.O.I 6 7 Y @.@.@.@.@.@.@.@.@.@.+.+._ f > M ..#.@.@.@.@.@.@.@.@.@.+...G ",
"e k z z z z z z z z z z x k 8 $ 2 f z z z z z z z z z z z z u = = y z z z z z z z z z z z x g 2 $ 8 j z z z z z z z z z z z l e "
};
